<svg width="85" height="101" viewBox="0 0 85 101" fill="none" xmlns="http://www.w3.org/2000/svg">
<g clip-path="url(#clip0_53_872)">
<path d="M48.804 24.09C48.8878 21.5489 49.2936 20.0512 49.6934 19.2264V24.1939C50.7263 24.4537 51.6034 25.1803 52.0422 26.192C52.8117 27.9633 52.007 30.0372 50.2479 30.8133C50.0661 30.8932 49.8793 30.9711 49.6934 31.0497V38.8715C49.6934 39.7662 50.4131 40.4909 51.3003 40.4909C52.1879 40.4909 52.9078 39.7662 52.9078 38.8715V27.0495H53.5102V38.8715C53.5102 39.7662 54.2299 40.4909 55.1171 40.4909C56.0047 40.4909 56.7246 39.7662 56.7246 38.8715V19.233C56.8013 19.3922 56.879 19.5748 56.9557 19.7879C57.3218 20.8111 57.6301 22.4896 57.6289 25.1099C57.6292 25.8321 57.606 26.6254 57.5556 27.4966C57.5222 28.0743 57.9598 28.57 58.5331 28.6036C58.5539 28.6049 58.5743 28.6055 58.5947 28.6055C59.1414 28.6055 59.5998 28.1752 59.6322 27.6184C59.6848 26.7105 59.7086 25.8767 59.7089 25.1099C59.7034 21.1573 59.0768 18.9697 58.2227 17.654C57.7953 17.0011 57.2958 16.5821 56.8347 16.3503C56.3913 16.125 56.0013 16.0739 55.7669 16.0711C55.7511 16.0702 55.7357 16.0686 55.7199 16.0686H50.6979C50.6812 16.0686 50.6651 16.0702 50.6481 16.0711C50.4137 16.0742 50.0247 16.1255 49.5824 16.3499C48.8832 16.6995 48.1295 17.4638 47.6023 18.818C47.0935 20.1129 46.7447 21.9604 46.7113 24.6983C46.9606 24.595 47.2095 24.4913 47.4535 24.3833C47.884 24.1934 48.3377 24.0962 48.804 24.09Z" fill="#192E45"/>
<path d="M50.2841 12.3759C50.2841 14.0029 51.5938 15.3224 53.209 15.3224C54.8245 15.3224 56.1336 14.0029 56.1336 12.3759C56.1336 10.7482 54.8245 9.42896 53.209 9.42896C51.5938 9.42896 50.2841 10.7482 50.2841 12.3759Z" fill="#192E45"/>
<path d="M9.98117 66.8594C11.5454 65.5492 13.554 64.7599 15.7422 64.7599C16.4545 64.7599 17.1469 64.8463 17.8121 65.0039V57.0042H19.2798V65.4884C22.5029 66.8774 24.7675 70.1035 24.7675 73.853C24.7675 76.713 23.4489 79.2673 21.3935 80.9351H21.8599C21.9249 80.9351 21.9886 80.9376 22.052 80.9417C22.8452 80.9588 24.06 81.1296 25.4318 81.8281C26.0138 82.1204 26.5751 82.4921 27.1107 82.9273V35.175C28.64 35.0318 30.7989 34.7916 33.2977 34.4037C38.2262 33.6339 44.4549 32.3146 49.8666 29.9369C51.1475 29.3714 51.7326 27.8662 51.1713 26.5745C50.6109 25.2832 49.1172 24.6946 47.8354 25.2602C43.1134 27.3474 37.2032 28.637 32.5264 29.3583C30.1856 29.7222 28.1489 29.9497 26.7056 30.0862C25.9841 30.1541 25.4111 30.1996 25.0211 30.2273C24.8733 30.2379 24.7545 30.246 24.6636 30.2519H24.6633H12.4286C12.3958 30.2519 12.364 30.2557 12.3315 30.2568C11.7622 30.2616 10.8022 30.3828 9.71057 30.9377C8.0072 31.7889 6.17146 33.6503 4.8868 36.9486C3.5858 40.2607 2.71244 45.0481 2.70813 52.2779C2.70905 54.1467 2.76811 56.1785 2.89677 58.391C2.97594 59.7473 4.09235 60.7939 5.42369 60.7939C5.47379 60.7939 5.52417 60.7923 5.57459 60.7892C6.97151 60.7066 8.03719 59.4987 7.95523 58.0922C7.83122 55.9707 7.77555 54.0374 7.77555 52.2779C7.76443 44.5502 8.88268 40.2096 9.98117 37.9451V66.8594Z" fill="#192E45"/>
<path d="M18.5456 28.4339C22.4808 28.4339 25.6708 25.2198 25.6708 21.2551C25.6708 17.2904 22.4808 14.0764 18.5456 14.0764C14.6105 14.0764 11.4204 17.2904 11.4204 21.2551C11.4204 25.2198 14.6105 28.4339 18.5456 28.4339Z" fill="#192E45"/>
<path d="M31.5922 46.7327H80.5734V0H11.2213V11.6983H12.4886V1.2759H79.306V45.4553L31.5922 45.4562V46.7327Z" fill="#192E45"/>
<path d="M14.5801 80.9352H16.9045C20.2868 80.3759 22.8675 77.4184 22.8675 73.853C22.8675 69.8879 19.6779 66.6743 15.7423 66.6743C11.8074 66.6743 8.61707 69.8879 8.61707 73.853C8.61707 77.4184 11.1981 80.3759 14.5801 80.9352Z" fill="#192E45"/>
<path d="M49.6266 73.853C49.6266 69.8879 46.437 66.6743 42.5014 66.6743C38.5665 66.6743 35.3762 69.8879 35.3762 73.853C35.3762 77.4184 37.9573 80.3759 41.3393 80.9352H43.6636C47.0459 80.3759 49.6266 77.4184 49.6266 73.853Z" fill="#192E45"/>
<path d="M7.17778 90.5441V101H24.3074V90.559C24.4951 90.9466 24.6846 91.3915 24.8715 91.9106C25.5679 93.8555 26.1762 96.779 26.409 101H31.8303C32.1256 95.6449 33.0376 92.3979 33.9369 90.5441V101H51.0665V90.5584C51.2542 90.9466 51.4438 91.3915 51.6306 91.9106C52.327 93.8555 52.9353 96.779 53.1682 101H58.5894C58.8847 95.6449 59.7967 92.3979 60.696 90.5441V101H77.8256V90.5584C78.0133 90.9466 78.2029 91.3915 78.3897 91.9106C79.0861 93.8555 79.6945 96.779 79.9273 101H85C84.6341 93.7667 83.2589 89.4582 81.4754 86.7123C80.4351 85.1214 79.2185 84.1013 78.0938 83.5361C77.012 82.9858 76.0604 82.8624 75.4895 82.855C75.4524 82.8537 75.4159 82.8494 75.3782 82.8494H70.5631C70.1376 82.9117 69.7031 82.9453 69.2605 82.9453C68.818 82.9453 68.3835 82.9117 67.958 82.8494H63.1435C63.1011 82.8494 63.06 82.8537 63.0179 82.8556C62.4458 82.8643 61.5007 82.9902 60.4267 83.5361C58.8411 84.3275 57.1421 85.9957 55.8782 88.8809C55.5176 88.0645 55.1279 87.346 54.7163 86.7123C53.676 85.1214 52.4594 84.1013 51.3343 83.5361C50.2529 82.9858 49.3013 82.8624 48.7304 82.855C48.6933 82.8537 48.6568 82.8494 48.6191 82.8494H36.3843C36.342 82.8494 36.3009 82.8537 36.2588 82.8556C35.6867 82.8643 34.7416 82.9902 33.6675 83.5361C32.082 84.3275 30.383 85.9957 29.1191 88.8809C28.7585 88.0645 28.3688 87.346 27.9572 86.7123C26.9169 85.1214 25.7003 84.1013 24.5752 83.5361C23.4937 82.9858 22.5421 82.8624 21.9713 82.855C21.9342 82.8537 21.8976 82.8494 21.8599 82.8494H9.62521C9.58255 82.8494 9.5411 82.8537 9.49936 82.8556C8.92723 82.8643 7.98245 82.9902 6.90842 83.5361C5.20444 84.3867 3.36839 86.248 2.08313 89.5476C1.03043 92.2275 0.258534 95.8751 0 101H5.07116C5.36649 95.6449 6.27848 92.3982 7.17778 90.5441Z" fill="#192E45"/>
<path d="M69.2605 81.0318C73.1956 81.0318 76.3857 77.8177 76.3857 73.853C76.3857 69.8883 73.1956 66.6743 69.2605 66.6743C65.3253 66.6743 62.1353 69.8883 62.1353 73.853C62.1353 77.8177 65.3253 81.0318 69.2605 81.0318Z" fill="#192E45"/>
<path d="M41.0924 11.1245H33.8088V12.4007H41.0924V11.1245Z" fill="#192E45"/>
<path d="M68.1398 7.05664H60.8562V8.33286H68.1398V7.05664Z" fill="#192E45"/>
<path d="M29.8219 4.24646H15.8882V5.52268H29.8219V4.24646Z" fill="#192E45"/>
<path d="M24.4669 7.27747H15.8882V8.55368H24.4669V7.27747Z" fill="#192E45"/>
<path d="M45.8426 18.3566V17.7182H39.6083L37.5815 13.1218L37.0032 13.3809H37.0026L39.1967 18.3566H45.8426Z" fill="#192E45"/>
<path d="M57.9266 12.8792H62.7773L64.849 9.37319L64.3056 9.04727L64.3047 9.04651L62.4176 12.2411H57.9266V12.8792Z" fill="#192E45"/>
<path d="M73.921 16.3092H66.6375V17.5854H73.921V16.3092Z" fill="#192E45"/>
<path d="M70.6302 18.6259L70.0863 18.3V18.2992L68.1983 21.4938H61.4102V22.1319H68.5585L70.6302 18.6259Z" fill="#192E45"/>
<path d="M71.9155 34.4685H64.632V35.7447H71.9155V34.4685Z" fill="#192E45"/>
<path d="M59.4045 30.5599H66.1933L68.081 33.7542L68.6246 33.4278L66.5532 29.9216H59.4045V30.5599Z" fill="#192E45"/>
<path d="M42.832 40.7164H35.5485V41.9926H42.832V40.7164Z" fill="#192E45"/>
<path d="M41.2697 36.8081H48.0593V36.1698H40.9103L38.8392 39.676L39.3826 40.0027V40.0019L41.2697 36.8081Z" fill="#192E45"/>
</g>
<defs>
<clipPath id="clip0_53_872">
<rect width="85" height="101" fill="white"/>
</clipPath>
</defs>
</svg>
