<svg width="128" height="128" viewBox="0 0 128 128" fill="none" xmlns="http://www.w3.org/2000/svg">
<path d="M11.6125 101.334H116.56C116.56 103.271 114.99 104.841 113.053 104.841H15.1191C13.1825 104.841 11.6125 103.271 11.6125 101.334Z" fill="#192E45"/>
<path d="M116.7 96.2018H11.2997C9.77908 96.2018 8.54639 97.4345 8.54639 98.9551C8.54639 100.476 9.77908 101.708 11.2997 101.708H116.7C118.221 101.708 119.453 100.476 119.453 98.9551C119.453 97.4345 118.221 96.2018 116.7 96.2018Z" fill="white" stroke="#192E45" stroke-width="2"/>
<path d="M28.533 25.1449H17.2146C14.4532 25.1449 12.2146 27.3835 12.2146 30.1449V89.9859C12.2146 92.7473 14.4532 94.9859 17.2146 94.9859H28.533C31.2944 94.9859 33.533 92.7473 33.533 89.9859V30.1449C33.533 27.3835 31.2944 25.1449 28.533 25.1449Z" fill="white" stroke="#192E45" stroke-width="2" stroke-linecap="round" stroke-linejoin="round"/>
<path d="M50.2286 25.1449H38.9102C36.1487 25.1449 33.9102 27.3835 33.9102 30.1449V89.9859C33.9102 92.7473 36.1487 94.9859 38.9102 94.9859H50.2286C52.99 94.9859 55.2286 92.7473 55.2286 89.9859V30.1449C55.2286 27.3835 52.99 25.1449 50.2286 25.1449Z" fill="white" stroke="#192E45" stroke-width="2" stroke-linecap="round" stroke-linejoin="round"/>
<path d="M22.8047 71.7742C25.0394 71.7742 26.851 69.1531 26.851 65.9199C26.851 62.6866 25.0394 60.0656 22.8047 60.0656C20.5699 60.0656 18.7583 62.6866 18.7583 65.9199C18.7583 69.1531 20.5699 71.7742 22.8047 71.7742Z" stroke="#192E45" stroke-width="2"/>
<path d="M44.5693 71.7742C46.8041 71.7742 48.6157 69.1531 48.6157 65.9199C48.6157 62.6866 46.8041 60.0656 44.5693 60.0656C42.3346 60.0656 40.5229 62.6866 40.5229 65.9199C40.5229 69.1531 42.3346 71.7742 44.5693 71.7742Z" stroke="#192E45" stroke-width="2"/>
<path d="M12.6458 38.4561H32.7914" stroke="#192E45" stroke-width="2" stroke-linecap="round" stroke-linejoin="round"/>
<path d="M12.6455 42.933H32.7912" stroke="#192E45" stroke-width="2" stroke-linecap="round" stroke-linejoin="round"/>
<path d="M34.4963 38.4561H54.642" stroke="#192E45" stroke-width="2" stroke-linecap="round" stroke-linejoin="round"/>
<path d="M34.4966 42.933H54.6423" stroke="#192E45" stroke-width="2" stroke-linecap="round" stroke-linejoin="round"/>
<path d="M71.9236 25.145H60.6052C57.8438 25.145 55.6052 27.3836 55.6052 30.145V89.986C55.6052 92.7474 57.8438 94.986 60.6052 94.986H71.9236C74.685 94.986 76.9236 92.7474 76.9236 89.986V30.145C76.9236 27.3836 74.685 25.145 71.9236 25.145Z" fill="white" stroke="#192E45" stroke-width="2" stroke-linecap="round" stroke-linejoin="round"/>
<path d="M66.2644 71.7742C68.4991 71.7742 70.3107 69.1531 70.3107 65.9199C70.3107 62.6866 68.4991 60.0656 66.2644 60.0656C64.0296 60.0656 62.218 62.6866 62.218 65.9199C62.218 69.1531 64.0296 71.7742 66.2644 71.7742Z" stroke="#192E45" stroke-width="2"/>
<path d="M55.7783 38.4563H75.924" stroke="#192E45" stroke-width="2" stroke-linecap="round" stroke-linejoin="round"/>
<path d="M55.7776 42.9332H75.9233" stroke="#192E45" stroke-width="2" stroke-linecap="round" stroke-linejoin="round"/>
<path d="M91.9354 24.4532L80.3059 27.5693C77.6386 28.284 76.0557 31.0257 76.7704 33.693L92.4427 92.1826C93.1574 94.85 95.8991 96.4329 98.5664 95.7182L110.196 92.6021C112.863 91.8874 114.446 89.1457 113.731 86.4784L98.0591 27.9887C97.3444 25.3214 94.6027 23.7385 91.9354 24.4532Z" fill="#192E45"/>
<path d="M98.2848 71.3736C100.443 70.7952 101.515 67.7946 100.678 64.6715C99.8413 61.5484 97.413 59.4855 95.2544 60.0639C93.0958 60.6423 92.0243 63.643 92.8612 66.766C93.698 69.8891 96.1262 71.952 98.2848 71.3736Z" fill="#192E45" stroke="white" stroke-width="2"/>
<path d="M80.8374 41.5554L98.3262 36.8693" stroke="white" stroke-width="2" stroke-linecap="round" stroke-linejoin="round"/>
<path d="M81.9963 45.8796L99.4851 41.1935" stroke="white" stroke-width="2" stroke-linecap="round" stroke-linejoin="round"/>
</svg>
