<svg width="113" height="113" viewBox="0 0 113 113" fill="none" xmlns="http://www.w3.org/2000/svg">
<path d="M93.5781 24.7188C94.0464 24.7188 94.4955 24.9048 94.8266 25.2359C95.1577 25.567 95.3438 26.0161 95.3438 26.4844H98.875C98.872 25.3916 98.5309 24.3264 97.8988 23.435C97.2665 22.5437 96.374 21.8696 95.3438 21.5053V19.4219H91.8125V21.5053C90.6447 21.9291 89.663 22.7497 89.0391 23.8238C88.4151 24.898 88.1886 26.1572 88.3988 27.3815C88.6091 28.6058 89.2432 29.7172 90.1899 30.5215C91.1366 31.3257 92.336 31.7715 93.5781 31.7812C93.9274 31.7812 94.2687 31.8847 94.5591 32.0788C94.8494 32.2728 95.0757 32.5486 95.2094 32.8712C95.343 33.1938 95.378 33.5488 95.3099 33.8913C95.2417 34.2339 95.0736 34.5485 94.8266 34.7953C94.5798 35.0424 94.2651 35.2104 93.9226 35.2786C93.5801 35.3468 93.225 35.3118 92.9024 35.1781C92.5798 35.0445 92.304 34.8181 92.11 34.5279C91.916 34.2374 91.8125 33.8961 91.8125 33.5469H88.2812C88.2843 34.6396 88.6254 35.7048 89.2575 36.5963C89.8897 37.4876 90.7823 38.1617 91.8125 38.5259V40.6094H95.3438V38.5259C96.5115 38.1022 97.4932 37.2815 98.1172 36.2075C98.7412 35.1333 98.9677 33.874 98.7574 32.6498C98.5471 31.4255 97.9131 30.314 96.9664 29.5098C96.0196 28.7055 94.8202 28.2597 93.5781 28.25C93.1099 28.25 92.6607 28.0639 92.3297 27.7328C91.9986 27.4018 91.8125 26.9526 91.8125 26.4844C91.8125 26.0161 91.9986 25.567 92.3297 25.2359C92.6607 24.9048 93.1099 24.7188 93.5781 24.7188Z" fill="#192E45"/>
<path d="M100.501 13.7895C100.141 13.6124 99.8532 13.3184 99.6831 12.9559C99.5131 12.5933 99.4714 12.1838 99.5648 11.7944C100.217 9.22096 101.11 6.71452 102.231 4.30813C102.363 4.03868 102.424 3.74002 102.409 3.44036C102.393 3.1407 102.302 2.84992 102.143 2.59547C101.984 2.34103 101.762 2.13131 101.5 1.9861C101.237 1.84091 100.942 1.76503 100.642 1.76563H86.5169C86.2167 1.76503 85.9215 1.84091 85.6589 1.9861C85.3964 2.13131 85.175 2.34103 85.0161 2.59547C84.857 2.84992 84.7654 3.1407 84.75 3.44036C84.7345 3.74002 84.7957 4.03868 84.9278 4.30813C86.056 6.71771 86.9489 9.23069 87.5939 11.812C87.6799 12.1943 87.6364 12.5943 87.4703 12.9491C87.304 13.3039 87.0245 13.5934 86.6758 13.7719C82.9688 15.3464 79.9115 18.1409 78.0111 21.6918C76.1106 25.2426 75.4814 29.3366 76.2277 33.2944C76.9738 37.252 79.0506 40.8357 82.1136 43.4508C85.1766 46.066 89.0415 47.5553 93.0673 47.6719H93.5794C97.6417 47.6627 101.577 46.253 104.721 43.6803C107.865 41.1078 110.025 37.5296 110.839 33.5494C111.652 29.5691 111.067 25.4303 109.184 21.8307C107.301 18.2311 104.234 15.3912 100.501 13.7895ZM97.9581 5.29688C97.243 7.14434 96.6531 9.03783 96.1925 10.9645C96.0897 11.422 96.0481 11.891 96.0689 12.3594H91.1428C91.1619 11.8969 91.1204 11.4339 91.0192 10.9822C90.5584 9.04977 89.9685 7.15041 89.2536 5.29688H97.9581ZM103.432 40.1503C102.076 41.4682 100.469 42.5004 98.7071 43.1858C96.945 43.8712 95.0632 44.1959 93.1733 44.1406C89.5197 43.9706 86.0679 42.4158 83.5195 39.7921C80.9712 37.1684 79.5178 33.6726 79.4544 30.0156C79.462 27.251 80.2809 24.5494 81.8094 22.2458C83.3379 19.942 85.5087 18.1376 88.053 17.0559C88.67 16.7857 89.2236 16.3887 89.6773 15.8906H97.4814C97.9454 16.3723 98.4966 16.7617 99.1058 17.0383C101.246 17.9495 103.129 19.3756 104.586 21.1894C106.043 23.0034 107.029 25.1492 107.457 27.4361C107.885 29.7229 107.741 32.0802 107.039 34.2982C106.337 36.5163 105.098 38.5265 103.432 40.1503Z" fill="#192E45"/>
<path d="M90.9284 65.3279H65.1503C64.7451 63.3322 63.6624 61.538 62.0857 60.2493C60.509 58.9605 58.5352 58.2566 56.4987 58.2566C54.4624 58.2566 52.4886 58.9605 50.9119 60.2493C49.3351 61.538 48.2524 63.3322 47.8472 65.3279H22.069C17.6219 65.3233 13.3582 63.5545 10.2136 60.4099C7.069 57.2654 5.30031 53.0015 5.29563 48.5545C5.30959 44.1102 7.08127 39.8519 10.2239 36.7092C13.3665 33.5666 17.6248 31.795 22.069 31.781H58.2644V35.3123C58.2638 35.6123 58.3396 35.9076 58.4849 36.1702C58.63 36.4327 58.8398 36.654 59.0942 36.8131C59.3753 36.9871 59.6995 37.079 60.03 37.0779C60.3065 37.0763 60.5786 37.0097 60.8245 36.8837L71.4183 31.5868C71.7075 31.4387 71.9502 31.2136 72.1197 30.9363C72.2892 30.659 72.3788 30.3405 72.3788 30.0154C72.3788 29.6905 72.2892 29.3718 72.1197 29.0944C71.9502 28.8172 71.7075 28.5921 71.4183 28.444L60.8245 23.1471C60.5558 23.0117 60.2569 22.9473 59.9562 22.9598C59.6553 22.9723 59.3629 23.0617 59.1064 23.2192C58.8498 23.3765 58.6378 23.597 58.4905 23.8594C58.3431 24.1217 58.2652 24.4175 58.2644 24.7185V28.2498H22.069C16.6839 28.2498 11.5193 30.389 7.71148 34.1969C3.90361 38.0047 1.76438 43.1693 1.76438 48.5545C1.76438 53.9396 3.90361 59.1042 7.71148 62.912C11.5193 66.7199 16.6839 68.8591 22.069 68.8591H47.8472C48.2524 70.8548 49.3351 72.6491 50.9119 73.9378C52.4886 75.2265 54.4624 75.9305 56.4987 75.9305C58.5352 75.9305 60.509 75.2265 62.0857 73.9378C63.6624 72.6491 64.7451 70.8548 65.1503 68.8591H90.9284C95.3727 68.8731 99.631 70.6447 102.774 73.7874C105.916 76.93 107.688 81.1883 107.702 85.6326C107.697 90.0797 105.928 94.3435 102.784 97.4881C99.6393 100.633 95.3757 102.401 90.9284 102.406H15.6422C15.2125 100.742 14.1904 99.2911 12.7677 98.3264C11.345 97.3616 9.61931 96.9488 7.91405 97.1655C6.20879 97.3821 4.64106 98.2132 3.50472 99.503C2.36838 100.793 1.74146 102.453 1.74146 104.172C1.74146 105.891 2.36838 107.551 3.50472 108.84C4.64106 110.13 6.20879 110.961 7.91405 111.178C9.61931 111.394 11.345 110.982 12.7677 110.017C14.1904 109.052 15.2125 107.602 15.6422 105.937H90.9284C96.3136 105.937 101.478 103.798 105.286 99.9901C109.094 96.1824 111.233 91.0177 111.233 85.6326C111.233 80.2474 109.094 75.0828 105.286 71.2751C101.478 67.4671 96.3136 65.3279 90.9284 65.3279ZM61.7956 27.5788L66.6687 30.0154L61.7956 32.452V27.5788ZM56.4987 72.3904C55.4512 72.3904 54.4269 72.0798 53.556 71.4977C52.685 70.9158 52.0059 70.0884 51.6051 69.1206C51.2042 68.1527 51.0993 67.0877 51.3037 66.0601C51.508 65.0327 52.0125 64.0888 52.7533 63.3481C53.494 62.6073 54.4379 62.1028 55.4653 61.8983C56.4929 61.6941 57.5579 61.7989 58.5258 62.1999C59.4936 62.6007 60.321 63.2796 60.9029 64.1508C61.485 65.0217 61.7956 66.046 61.7956 67.0935C61.7956 68.4984 61.2375 69.8456 60.2442 70.8389C59.2508 71.8323 57.9036 72.3904 56.4987 72.3904ZM8.82688 107.703C8.12847 107.703 7.44573 107.496 6.86502 107.108C6.28431 106.72 5.83171 106.168 5.56443 105.523C5.29716 104.878 5.22723 104.168 5.36348 103.483C5.49973 102.798 5.83605 102.169 6.32991 101.675C6.82376 101.181 7.45297 100.845 8.13796 100.708C8.82296 100.572 9.53298 100.642 10.1782 100.909C10.8235 101.176 11.375 101.629 11.763 102.21C12.151 102.791 12.3581 103.473 12.3581 104.172C12.3581 105.108 11.9861 106.006 11.3239 106.669C10.6616 107.331 9.76342 107.703 8.82688 107.703Z" fill="#192E45"/>
<path d="M77.1739 94.0016L82.1707 89.0048L87.1497 94.0016L89.6569 91.512L84.6602 86.5153L89.6569 81.5186L87.1497 79.0291L82.1707 84.0258L77.1739 79.0291L74.6667 81.5186L79.6635 86.5153L74.6667 91.512L77.1739 94.0016Z" fill="#192E45"/>
<path d="M32.2945 39.3558L27.2978 44.3526L22.3187 39.3558L19.8115 41.863L24.8082 46.8597L19.8115 51.8388L22.3187 54.346L27.2978 49.3493L32.2945 54.346L34.8017 51.8388L29.805 46.8597L34.8017 41.863L32.2945 39.3558Z" fill="#192E45"/>
</svg>
