<svg width="123" height="120" viewBox="0 0 123 120" fill="none" xmlns="http://www.w3.org/2000/svg">
<g clip-path="url(#clip0_53_895)">
<path d="M69.76 4.06C69.76 1.83 71.96 0 74.71 0C77.46 0 79.66 1.81 79.66 4.06V21.8C79.66 24.03 77.46 25.86 74.71 25.86C71.96 25.86 69.76 24.05 69.76 21.8V4.06ZM14.37 78.05H25.71C26.43 78.05 27.02 78.64 27.02 79.36V87.74C27.02 88.46 26.43 89.05 25.71 89.05H14.37C13.65 89.05 13.06 88.46 13.06 87.74V79.36C13.06 78.63 13.65 78.05 14.37 78.05ZM57.79 54.17H69.13C69.48 54.17 69.79 54.31 70.03 54.53C65.58 57.31 61.72 60.93 58.66 65.18H57.79C57.07 65.18 56.48 64.59 56.48 63.87V55.49C56.48 54.76 57.07 54.17 57.79 54.17ZM36.08 54.17H47.42C48.14 54.17 48.73 54.76 48.73 55.48V63.86C48.73 64.58 48.14 65.17 47.42 65.17H36.08C35.36 65.17 34.77 64.58 34.77 63.86V55.48C34.77 54.76 35.36 54.17 36.08 54.17ZM14.37 54.17H25.71C26.43 54.17 27.02 54.76 27.02 55.48V63.86C27.02 64.58 26.43 65.17 25.71 65.17H14.37C13.65 65.17 13.06 64.58 13.06 63.86V55.48C13.06 54.76 13.65 54.17 14.37 54.17ZM36.08 78.05H47.42C48.14 78.05 48.73 78.64 48.73 79.36V87.74C48.73 88.46 48.14 89.05 47.42 89.05H36.08C35.36 89.05 34.77 88.46 34.77 87.74V79.36C34.77 78.63 35.36 78.05 36.08 78.05ZM103.49 59.54C115.2 64.39 122.88 75.82 122.88 88.56C122.88 97.23 119.36 105.09 113.68 110.77C108 116.45 100.15 119.97 91.47 119.97C82.8 119.97 74.95 116.45 69.26 110.77C63.58 105.08 60.06 97.23 60.06 88.56C60.06 75.92 67.92 64.13 79.61 59.33C86.86 56.37 96.29 56.55 103.49 59.54ZM86.64 87.72C87.03 87.29 87.51 86.92 88.03 86.64V72.98C88.03 71.59 89.16 70.46 90.55 70.46C91.94 70.46 93.08 71.59 93.08 72.98V86.64C94 87.14 94.76 87.89 95.25 88.81H105.01C106.41 88.81 107.53 89.94 107.53 91.33C107.53 92.72 106.4 93.85 105.01 93.85H95.25C94.35 95.53 92.59 96.67 90.55 96.67C88.95 96.67 87.52 95.96 86.54 94.85C84.73 92.78 84.82 89.69 86.64 87.72ZM110.12 70.41C97.11 57.4 75.17 61.08 67.56 77.46C66 80.83 65.12 84.59 65.12 88.55C65.12 95.83 68.07 102.42 72.84 107.19C77.61 111.96 84.2 114.91 91.48 114.91C98.76 114.91 105.35 111.95 110.12 107.19C114.89 102.42 117.84 95.83 117.84 88.55C117.84 84.42 116.89 80.51 115.2 77.03C113.91 74.4 112.19 72.48 110.12 70.41ZM25.33 4.06C25.33 1.83 27.53 0 30.28 0C33.02 0 35.23 1.81 35.23 4.06V21.8C35.23 24.03 33.02 25.86 30.28 25.86C27.54 25.86 25.33 24.05 25.33 21.8V4.06ZM5.45 38.79H99.66V18.37C99.66 17.67 99.38 17.06 98.93 16.61C98.48 16.16 97.84 15.88 97.17 15.88H88.14C86.63 15.88 85.4 14.65 85.4 13.14C85.4 11.63 86.63 10.4 88.14 10.4H97.17C99.38 10.4 101.37 11.29 102.82 12.74C104.27 14.19 105.16 16.18 105.16 18.39V50.82C103.36 50.2 101.51 49.7 99.6 49.33V44.26H99.66H5.45V97.17C5.45 97.87 5.73 98.48 6.18 98.93C6.63 99.38 7.27 99.66 7.94 99.66H52.71C53.22 101.56 53.86 103.42 54.63 105.2H7.99C5.79 105.2 3.79 104.31 2.34 102.86C0.89 101.4 0 99.42 0 97.21V18.39C0 16.19 0.89 14.2 2.34 12.74C3.79 11.29 5.78 10.4 7.99 10.4H17.63C19.14 10.4 20.37 11.63 20.37 13.14C20.37 14.65 19.14 15.88 17.63 15.88H7.99C7.29 15.88 6.68 16.16 6.23 16.61C5.78 17.06 5.5 17.7 5.5 18.37V38.8H5.45V38.79ZM43.13 15.87C41.62 15.87 40.39 14.64 40.39 13.13C40.39 11.62 41.62 10.39 43.13 10.39H61.52C63.03 10.39 64.26 11.62 64.26 13.13C64.26 14.64 63.03 15.87 61.52 15.87H43.13Z" fill="#192E45"/>
</g>
<defs>
<clipPath id="clip0_53_895">
<rect width="122.88" height="119.97" fill="white"/>
</clipPath>
</defs>
</svg>
