<svg width="32" height="32" viewBox="0 0 32 32" fill="none" xmlns="http://www.w3.org/2000/svg">
<path d="M0.655029 16C0.655029 17.095 1.36153 18.07 2.59003 18.685L27.22 31C27.82 31.3 28.405 31.45 28.945 31.45C29.7265 31.45 30.415 31.12 30.8515 30.5365C31.225 30.025 31.585 29.14 31.15 27.7L28.375 18.445C28.285 18.175 28.225 17.8465 28.195 17.5H13C12.175 17.5 11.5 16.825 11.5 16C11.5 15.175 12.175 14.5 13 14.5H28.195C28.2265 14.155 28.2865 13.825 28.375 13.555L31.15 4.30002C31.585 2.86002 31.225 1.97502 30.85 1.46502C30.115 0.475016 28.72 0.250016 27.22 1.00002L2.58853 13.315C1.36003 13.93 0.655029 14.905 0.655029 16Z" fill="#404040"/>
</svg>
