<svg width="140" height="94" viewBox="0 0 140 94" fill="none" xmlns="http://www.w3.org/2000/svg">
<g clip-path="url(#clip0_58_1964)">
<path d="M57.815 69.5541C58.4683 70.4593 59.4949 70.9147 60.9058 70.9147C62.3167 70.9147 63.3104 70.4593 63.9802 69.5541C64.6445 68.6489 64.9794 67.5378 64.9794 66.226C64.9794 65.5702 64.897 64.9523 64.7378 64.3723C64.5786 63.7977 64.3316 63.2936 64.0022 62.8763C63.6728 62.4589 63.2445 62.1228 62.7285 61.8735C62.2124 61.6241 61.603 61.4995 60.9113 61.4995C59.5004 61.4995 58.4738 61.9602 57.8204 62.8763C57.1671 63.7923 56.8432 64.9089 56.8432 66.226C56.8432 67.5432 57.1671 68.6489 57.8204 69.5541H57.815ZM51.7705 70.6382V70.481C51.2105 69.8523 50.7713 69.1801 50.4529 68.4701C50.1345 67.76 49.9753 67.012 49.9753 66.226C49.9753 64.6487 50.2552 63.2665 50.8152 62.0686C51.3752 60.8761 52.1383 59.8625 53.11 59.0332C54.0818 58.2039 55.2292 57.5806 56.5577 57.1632C57.8863 56.7404 59.3357 56.5344 60.9058 56.5344C62.4759 56.5344 63.8979 56.7296 65.2539 57.1252C66.6099 57.5209 67.7848 58.1226 68.7839 58.9356C69.7831 59.7487 70.5682 60.7623 71.1391 61.9656C71.7101 63.1744 71.9956 64.5891 71.9956 66.2206C71.9956 67.8521 71.6991 69.2669 71.1007 70.4756C70.5023 71.6844 69.6953 72.6871 68.6906 73.4893C67.6805 74.2915 66.5056 74.8878 65.1605 75.2835C63.8155 75.6792 62.3991 75.8743 60.9113 75.8743L40.4721 75.9068V76.4001C40.4721 79.2187 39.138 81.5223 36.4699 83.3165C34.1696 84.8884 31.3917 85.6743 28.1306 85.6743C24.5731 85.6743 21.625 84.7962 19.2863 83.04C16.9146 81.2459 15.7288 78.7959 15.7288 75.6846V65.2124H21.0101V74.8065C21.0101 76.8554 21.8995 78.3568 23.6783 79.3108C24.9025 80.0046 26.3683 80.3515 28.0702 80.3515C29.8874 80.3515 31.4411 79.9667 32.7422 79.197C34.0763 78.3893 34.8559 77.2944 35.0755 75.9014H31.3478V70.6328H51.7705V70.6382Z" fill="white"/>
<path d="M25.2704 94C24.5951 94 24.0132 93.756 23.5191 93.2736C23.0305 92.7912 22.7834 92.2112 22.7834 91.5445C22.7834 90.8778 23.0305 90.3087 23.5191 89.8425C24.0077 89.3764 24.5951 89.1433 25.2704 89.1433C25.9457 89.1433 26.5221 89.3764 26.9943 89.8425C27.1864 90.0322 27.3401 90.2382 27.4554 90.4659C27.5707 90.2436 27.7299 90.0377 27.9331 89.8425C28.4217 89.3764 29.0091 89.1433 29.6844 89.1433C30.3596 89.1433 30.9361 89.3764 31.4082 89.8425C31.8803 90.3087 32.1164 90.8778 32.1164 91.5445C32.1164 92.2112 31.8803 92.7912 31.4082 93.2736C30.9361 93.756 30.3596 94 29.6844 94C29.0091 94 28.4271 93.756 27.9331 93.2736C27.7354 93.0785 27.5762 92.8671 27.4554 92.6394C27.3401 92.8671 27.1864 93.0785 26.9943 93.2736C26.5221 93.756 25.9457 94 25.2704 94Z" fill="#FABD12"/>
<path d="M125.814 69.5541C126.467 70.4593 127.494 70.9146 128.905 70.9146C130.316 70.9146 131.309 70.4593 131.974 69.5541C132.638 68.6489 132.973 67.5377 132.973 66.226C132.973 65.5701 132.896 64.9522 132.737 64.3722C132.578 63.7977 132.331 63.2936 131.996 62.8762C131.666 62.4588 131.238 62.1228 130.722 61.8734C130.206 61.6241 129.597 61.4994 128.905 61.4994C127.494 61.4994 126.467 61.9602 125.814 62.8762C125.161 63.7922 124.837 64.9088 124.837 66.226C124.837 67.5431 125.161 68.6489 125.814 69.5541ZM107.005 64.3939C105.819 62.6106 104.321 61.7162 102.514 61.7162C100.802 61.7162 99.2809 62.6106 97.9523 64.3939C99.4236 65.3316 100.95 66.6921 102.514 68.4754C103.892 66.8331 105.391 65.4726 107.005 64.3939ZM81.6745 70.6544H97.5845C95.932 68.7302 94.4058 67.2992 93.0113 66.3561V65.7598C93.0113 63.1472 94.1313 61.0441 96.3712 59.4505C98.1335 58.1822 100.154 57.548 102.432 57.548C105.078 57.548 107.335 58.3827 109.207 60.0522C110.969 61.6458 111.853 63.608 111.853 65.9279V66.3615C110.349 67.3046 108.822 68.7356 107.28 70.6599H119.769V70.4864C119.21 69.8576 118.77 69.1855 118.452 68.4754C118.133 67.7654 117.974 67.0174 117.974 66.2314C117.974 64.6541 118.254 63.2719 118.814 62.074C119.374 60.8815 120.137 59.8679 121.109 59.0386C122.081 58.2093 123.228 57.5859 124.562 57.1686C125.896 56.7512 127.34 56.5398 128.91 56.5398C130.48 56.5398 131.902 56.7349 133.258 57.1306C134.614 57.5263 135.789 58.128 136.788 58.941C137.788 59.7541 138.573 60.7677 139.144 61.971C139.715 63.1797 140 64.5945 140 66.226C140 67.8575 139.704 69.2722 139.105 70.481C138.507 71.6897 137.7 72.6925 136.69 73.4947C135.679 74.2969 134.505 74.8932 133.16 75.2888C131.815 75.6845 130.404 75.8797 128.91 75.8797H81.68C81.68 75.8797 81.5482 78.7308 81.2792 79.9666C81.0157 81.2025 80.5655 82.2486 79.9452 83.1159C79.3193 83.9831 78.4903 84.6444 77.4527 85.1051C76.4151 85.5659 75.1359 85.7935 73.6207 85.7935H44.3152V80.5249H72.3415C73.3517 80.5249 74.0324 80.113 74.3783 79.2837C74.7242 78.4543 74.8944 77.1101 74.8944 75.2455V59.0982H81.6745V70.6544Z" fill="white"/>
<path d="M38.5232 24.4405L47.6476 21.5406L56.2394 16.0768L48.4711 12.494L39.8463 12.1633L38.3805 18.1203L38.5232 24.4405Z" fill="#31AEDF"/>
<path d="M24.9958 45.2925L29.7666 51.0489L33.8841 53.8079L40.0439 50.225L33.9226 46.9836L24.9958 45.2925Z" fill="#60C0E7"/>
<path d="M23.876 65.0391L29.5361 64.3128L32.896 58.8057L26.5441 62.0254L23.876 65.0391Z" fill="#6DC6E9"/>
<path d="M23.9803 59.4127L23.876 65.0391L32.896 58.8057L23.9803 59.4127Z" fill="#60C0E7"/>
<path d="M24.9958 45.2925L28.3941 53.3146L32.8959 58.8055L33.8841 53.8079L24.9958 45.2925Z" fill="#45B6E2"/>
<path d="M23.9802 59.6727L32.896 58.8055L24.9959 45.2925L23.1787 52.8431L23.9802 59.6727Z" fill="#50BAE4"/>
<path d="M17.6008 59.8895L23.9802 59.6727L24.9958 45.2925L18.5122 53.0815L17.6008 59.8895Z" fill="#45B6E2"/>
<path d="M5.80835 53.2442L17.6008 59.8895L24.9958 45.2925L14.7735 48.4363L5.80835 53.2442Z" fill="#41B4E2"/>
<path d="M5.80835 53.2443L24.9958 45.2926L12.9892 44.0676L6.81851 44.5771L5.80835 53.2443Z" fill="#31AEDF"/>
<path d="M6.81853 44.5771L24.9959 45.2926L11.754 41.7314L1.42737 40.4468L6.81853 44.5771Z" fill="#2BABDE"/>
<path d="M1.42737 40.4468L24.9959 45.2926L23.9363 35.8016L21.4768 29.2158L11.6497 33.3624L1.42737 40.4468Z" fill="#43B5E2"/>
<path d="M1.4274 40.4467L21.4768 29.2157L10.1784 26.7549L0 26.7603L1.4274 40.4467Z" fill="#50BAE4"/>
<path d="M21.4768 29.2158L24.9959 45.2926L32.3085 36.04L38.5232 24.4404L30.5243 26.0774L21.4768 29.2158Z" fill="#50BAE4"/>
<path d="M40.0439 50.2252L51.7266 50.3987L48.3997 42.512L43.4752 35.7366L40.7467 43.5256L40.0439 50.2252Z" fill="#9CD8F0"/>
<path d="M43.4752 35.7365L50.9032 40.6799L58.9844 44.4254L58.7264 35.666L55.6849 27.0422L48.4711 30.9232L43.4752 35.7365Z" fill="#C3E8F6"/>
<path d="M38.5232 24.4404L40.269 30.2782L43.4752 35.7365L55.6849 27.0422L38.5232 24.4404Z" fill="#B8E3F4"/>
<path d="M55.6848 27.0422L65.1441 35.2595L74.9162 41.3194L79.8682 29.9096L70.1564 26.4839L55.6848 27.0422Z" fill="#ABDEF2"/>
<path d="M55.6848 27.0421L66.4507 24.6572L77.4471 18.8303L63.1896 15.2366L56.2393 16.0767L55.0919 21.779L55.6848 27.0421Z" fill="#81CDEC"/>
<path d="M39.8463 12.1632L56.2394 16.0767L59.8628 11.3447L61.5811 3.58276L49.1189 6.97049L39.8463 12.1632Z" fill="#43B5E2"/>
<path d="M27.944 1.23584L33.5437 7.41506L39.8462 12.1633L42.5308 5.95698L43.6728 0L27.944 1.23584Z" fill="#3FB3E1"/>
<path d="M20.1537 18.5702L19.989 22.7601L21.4768 29.2158L31.2105 21.3725L39.8463 12.1633L27.8836 14.6946L20.1537 18.5702Z" fill="#2DACDF"/>
<path d="M21.4768 29.2158L38.5232 24.4405L39.8463 12.1633L21.4768 29.2158Z" fill="#22A8DD"/>
<path d="M9.02002 10.1469L14.2575 14.9006L20.1537 18.5702L25.2759 11.0033L27.944 1.23584L9.02002 10.1469Z" fill="#53BBE4"/>
<path d="M0 26.7604L21.4768 29.2158L15.8057 19.2044L9.02004 10.147L0 26.7604Z" fill="#4EB9E4"/>
<path d="M9.02002 10.147L21.4768 29.2158L20.1537 18.5702L9.02002 10.147Z" fill="#4CB9E3"/>
<path d="M20.1537 18.5702L39.8462 12.1633L27.944 1.23584L20.1537 18.5702Z" fill="#3DB2E1"/>
<path d="M39.8463 12.1633L61.5811 3.58286L43.6728 0L39.8463 12.1633Z" fill="#3DB2E1"/>
<path d="M38.5232 24.4405L55.6849 27.0423L56.2394 16.0769L38.5232 24.4405Z" fill="#69C4E8"/>
<path d="M56.2394 16.0767L77.4472 18.8303L61.5811 3.58276L56.2394 16.0767Z" fill="#59BEE6"/>
<path d="M43.4752 35.7366L51.7267 50.3987L58.9844 44.4254L43.4752 35.7366Z" fill="#ADDFF2"/>
<path d="M24.9958 45.2927L40.0439 50.2252L43.4751 35.7366L34.2959 39.3953L24.9958 45.2927Z" fill="#76C9EA"/>
<path d="M24.9958 45.2926L43.4751 35.7365L38.5232 24.4404L24.9958 45.2926Z" fill="#60C0E7"/>
<path d="M55.6848 27.0422L79.8682 29.9096L77.4471 18.8303L55.6848 27.0422Z" fill="#99D7EF"/>
<path d="M55.6848 27.0422L58.9843 44.4254L74.9162 41.3195L55.6848 27.0422Z" fill="#C3E8F6"/>
<path d="M61.1145 54.426C60.4393 54.426 59.8573 54.1821 59.3632 53.6997C58.8746 53.2172 58.6276 52.6427 58.6276 51.9706C58.6276 51.2984 58.8746 50.7347 59.3632 50.2686C59.8518 49.8024 60.4393 49.5693 61.1145 49.5693C61.7898 49.5693 62.3662 49.8024 62.8384 50.2686C63.3105 50.7347 63.5466 51.3039 63.5466 51.9706C63.5466 52.6373 63.3105 53.2172 62.8384 53.6997C62.3662 54.1821 61.7898 54.426 61.1145 54.426Z" fill="#008CCC"/>
<path d="M91.1611 86.314H92.9892L92.4897 77.5493H90.107L89.2396 80.5414C89.1023 81.0509 88.9651 81.5766 88.8388 82.1078C88.7125 82.639 88.5918 83.1594 88.4874 83.6635H88.449C88.3557 83.154 88.2459 82.639 88.1196 82.1133C87.9934 81.5875 87.8616 81.0726 87.7243 80.5522L86.9063 77.5493H84.4962L83.9033 86.314H85.6436L85.8138 83.0727C85.8358 82.5523 85.8578 81.9886 85.8852 81.3924C85.9127 80.7907 85.9291 80.2107 85.9456 79.6416H85.984C86.0773 80.1944 86.1871 80.7527 86.3189 81.311C86.4452 81.8693 86.5769 82.3897 86.7087 82.8667L87.5926 86.1731H89.0529L90.0411 82.845C90.1893 82.368 90.3376 81.8531 90.4913 81.2948C90.645 80.7365 90.7823 80.189 90.9085 79.647H90.936C90.936 80.2432 90.947 80.8341 90.9579 81.4195C90.9744 82.0049 90.9909 82.5469 91.0128 83.0564L91.1556 86.3195L91.1611 86.314Z" fill="white"/>
<path fill-rule="evenodd" clip-rule="evenodd" d="M98.5617 84.1405L99.1546 86.314H101.169L98.7209 77.5493H96.2724L93.7964 86.314H95.7453L96.2998 84.1405H98.5672H98.5617ZM96.5578 82.7095L97.03 80.8503C97.0904 80.5847 97.1508 80.292 97.2166 79.9668C97.2825 79.6416 97.3429 79.3435 97.4033 79.067H97.4417C97.5021 79.3435 97.568 79.6416 97.6339 79.9614C97.6998 80.2866 97.7711 80.5793 97.837 80.8503L98.3092 82.7095H96.5578Z" fill="white"/>
<path fill-rule="evenodd" clip-rule="evenodd" d="M106.418 84.1405L107.011 86.314H109.026L106.577 77.5493H104.128L101.652 86.314H103.601L104.156 84.1405H106.423H106.418ZM104.414 82.7095L104.886 80.8503C104.946 80.5847 105.007 80.292 105.073 79.9668C105.139 79.6416 105.199 79.3435 105.259 79.067H105.298C105.358 79.3435 105.424 79.6416 105.49 79.9614C105.556 80.2866 105.627 80.5793 105.693 80.8503L106.165 82.7095H104.414Z" fill="white"/>
<path fill-rule="evenodd" clip-rule="evenodd" d="M110.151 86.314H112.062V82.8667H112.561C112.923 82.8558 113.209 82.9534 113.412 83.154C113.615 83.3545 113.763 83.7285 113.868 84.2651C113.983 84.7909 114.087 85.23 114.186 85.5877C114.285 85.9454 114.367 86.1894 114.433 86.314H116.41C116.322 86.1243 116.223 85.8045 116.102 85.3384C115.987 84.8776 115.866 84.3898 115.734 83.8749C115.63 83.4521 115.493 83.0998 115.306 82.8233C115.125 82.5415 114.878 82.3409 114.576 82.2162V82.1783C114.993 82.0157 115.35 81.7501 115.641 81.3761C115.926 81.0021 116.08 80.5468 116.091 80.0102C116.091 79.609 116.025 79.2567 115.899 78.9478C115.773 78.6388 115.57 78.3732 115.301 78.1564C114.999 77.9125 114.62 77.739 114.164 77.636C113.714 77.533 113.187 77.4788 112.583 77.4843C112.105 77.4843 111.655 77.5005 111.244 77.5385C110.826 77.571 110.464 77.6143 110.151 77.6685V86.3195V86.314ZM112.062 78.9749C112.127 78.9532 112.221 78.9423 112.342 78.9261C112.462 78.9152 112.621 78.9098 112.814 78.9098C113.258 78.9152 113.593 79.0291 113.824 79.2459C114.054 79.4573 114.17 79.7662 114.17 80.1673C114.17 80.5576 114.038 80.872 113.785 81.1105C113.533 81.349 113.17 81.4682 112.709 81.4736H112.062V78.9749Z" fill="white"/>
<path fill-rule="evenodd" clip-rule="evenodd" d="M121.669 84.1405L122.262 86.314H124.277L121.828 77.5493H119.38L116.904 86.314H118.853L119.407 84.1405H121.674H121.669ZM119.665 82.7095L120.137 80.8503C120.198 80.5847 120.258 80.292 120.324 79.9668C120.39 79.6416 120.45 79.3435 120.511 79.067H120.549C120.609 79.3435 120.675 79.6416 120.741 79.9614C120.807 80.2866 120.878 80.5793 120.944 80.8503L121.416 82.7095H119.665Z" fill="white"/>
<path d="M125.397 86.3139H127.324V82.7581H130.156V81.2133H127.324V79.121H130.349V77.5437H125.397V86.3139Z" fill="white"/>
<path d="M131.825 77.5437V86.3139H133.752V77.5437H131.825Z" fill="white"/>
<path d="M94.3288 46.5176L94.6911 48.3009C93.9994 48.6099 93.0881 48.7616 91.9626 48.7616C90.2498 48.7616 88.9047 48.3009 87.9275 47.3794C86.9503 46.458 86.4617 45.2384 86.4617 43.7153C86.4617 42.1109 86.9942 40.8208 88.0592 39.856C89.1243 38.8912 90.4968 38.4033 92.1712 38.4033C93.3022 38.4033 94.1806 38.5551 94.8064 38.8641L94.3233 40.6799C93.6975 40.4143 93.0112 40.2788 92.2756 40.2788C91.2544 40.2788 90.4419 40.5715 89.8325 41.1569C89.2231 41.7423 88.9157 42.5499 88.9157 43.5798C88.9157 44.6096 89.2176 45.3848 89.816 45.9702C90.4145 46.5556 91.2434 46.8537 92.292 46.8537C93.0496 46.8537 93.7304 46.7398 94.3233 46.5122L94.3288 46.5176Z" fill="white"/>
<path d="M96.2613 48.6044V38.696C97.2221 38.555 98.2981 38.49 99.484 38.49C100.972 38.49 102.048 38.7881 102.723 39.3844C103.398 39.9806 103.733 40.734 103.733 41.6446C103.733 42.7612 103.349 43.6122 102.575 44.2085C101.806 44.7993 100.741 45.0974 99.3906 45.0974C99.1216 45.0974 98.8471 45.0757 98.5616 45.0378V48.6098H96.2559L96.2613 48.6044ZM98.5671 40.3058V43.2653C98.7318 43.3033 99.0063 43.325 99.3797 43.325C100.011 43.325 100.511 43.1786 100.878 42.8913C101.246 42.604 101.427 42.2084 101.427 41.6988C101.427 41.2327 101.263 40.8695 100.939 40.6148C100.615 40.3546 100.154 40.2299 99.5608 40.2299C99.0887 40.2299 98.7593 40.257 98.5671 40.3058Z" fill="white"/>
<path d="M107.291 48.6043V40.4955H104.441V38.5767H112.517V40.4955H109.624V48.6043H107.291Z" fill="white"/>
<path d="M113.752 38.5767H116.086V48.6043H113.752V38.5767Z" fill="white"/>
<path d="M120.17 48.6043V40.4955H117.321V38.5767H125.397V40.4955H122.503V48.6043H120.17Z" fill="white"/>
</g>
<defs>
<clipPath id="clip0_58_1964">
<rect width="140" height="94" fill="white"/>
</clipPath>
</defs>
</svg>
