<svg width="226" height="53" viewBox="0 0 226 53" fill="none" xmlns="http://www.w3.org/2000/svg">
<path fill-rule="evenodd" clip-rule="evenodd" d="M25.7115 6.75605C28.4491 8.08068 29.987 9.87726 29.987 11.7506H15.3895L0.791992 11.7506C0.791992 9.87726 2.32994 8.08068 5.06751 6.75605C7.80507 5.43142 11.518 4.68726 15.3895 4.68726C19.261 4.68726 22.9739 5.43142 25.7115 6.75605ZM5.06764 46.4109C2.33008 45.0863 0.792132 43.2897 0.792132 41.4164H15.3896L29.9872 41.4164C29.9872 43.2897 28.4492 45.0863 25.7116 46.4109C22.9741 47.7355 19.2611 48.4797 15.3896 48.4797C11.5181 48.4797 7.80521 47.7355 5.06764 46.4109ZM25.6078 30.1152H34.3663V35.7659H25.6078V30.1152ZM9.55056 17.4012H0.792052V23.0519H9.55056V17.4012ZM16.8494 17.4012H34.3664V23.0519H16.8494V17.4012ZM18.3091 35.7659V30.1152H0.792052V35.7659H18.3091Z" fill="#A6A6A6"/>
<path d="M57.0178 29.5955C55.7323 29.5955 54.5818 29.2652 53.5661 28.6047C52.5505 27.9442 51.748 26.9854 51.1585 25.7283C50.569 24.4712 50.2742 22.9442 50.2742 21.1473C50.2742 19.3292 50.5725 17.7951 51.1691 16.5451C51.7728 15.288 52.586 14.3398 53.6088 13.7006C54.6315 13.0543 55.7714 12.7312 57.0285 12.7312C57.9873 12.7312 58.7757 12.8945 59.3936 13.2212C60.0115 13.5408 60.5015 13.9279 60.8637 14.3824C61.2259 14.8299 61.5065 15.2525 61.7053 15.6502H61.8651V7.48968H65.7323V29.3079H61.9397V26.7297H61.7053C61.5065 27.1275 61.2188 27.55 60.8424 27.9975C60.466 28.4378 59.9688 28.8143 59.3509 29.1268C58.733 29.4393 57.9553 29.5955 57.0178 29.5955ZM58.0938 26.4314C58.9106 26.4314 59.6066 26.2113 60.1819 25.7709C60.7572 25.3235 61.194 24.702 61.4923 23.9066C61.7906 23.1111 61.9397 22.1843 61.9397 21.126C61.9397 20.0678 61.7906 19.1481 61.4923 18.3668C61.2011 17.5856 60.7678 16.9783 60.1926 16.5451C59.6244 16.1118 58.9248 15.8952 58.0938 15.8952C57.2345 15.8952 56.5171 16.1189 55.9419 16.5664C55.3666 17.0138 54.9333 17.6317 54.6421 18.4201C54.3509 19.2084 54.2053 20.1104 54.2053 21.126C54.2053 22.1488 54.3509 23.0614 54.6421 23.864C54.9404 24.6594 55.3772 25.288 55.9525 25.7496C56.5349 26.2042 57.2487 26.4314 58.0938 26.4314ZM77.0862 29.6275C75.4456 29.6275 74.0287 29.2866 72.8355 28.6047C71.6494 27.9158 70.7368 26.9428 70.0976 25.6857C69.4584 24.4215 69.1388 22.9336 69.1388 21.2219C69.1388 19.5387 69.4584 18.0614 70.0976 16.7901C70.7439 15.5117 71.6459 14.5174 72.8035 13.8072C73.9612 13.0898 75.3213 12.7312 76.8838 12.7312C77.8923 12.7312 78.844 12.8945 79.7389 13.2212C80.6409 13.5408 81.4363 14.038 82.1253 14.7127C82.8213 15.3874 83.3682 16.2468 83.7659 17.2908C84.1636 18.3277 84.3625 19.5635 84.3625 20.9982V22.1807H70.9498V19.5813H80.6657C80.6586 18.8427 80.4988 18.1857 80.1863 17.6104C79.8738 17.028 79.4371 16.5699 78.876 16.2361C78.322 15.9023 77.6757 15.7354 76.9371 15.7354C76.1487 15.7354 75.4562 15.9272 74.8596 16.3107C74.2631 16.6871 73.7979 17.1843 73.464 17.8022C73.1373 18.413 72.9704 19.0841 72.9633 19.8157V22.0848C72.9633 23.0366 73.1373 23.8533 73.4854 24.5351C73.8334 25.2098 74.3199 25.7283 74.9449 26.0905C75.5699 26.4456 76.3014 26.6232 77.1395 26.6232C77.7006 26.6232 78.2084 26.5451 78.6629 26.3888C79.1175 26.2255 79.5116 25.9875 79.8454 25.675C80.1792 25.3625 80.4314 24.9755 80.6018 24.5138L84.2027 24.9187C83.9754 25.8704 83.5422 26.7013 82.903 27.4116C82.2709 28.1147 81.4612 28.6616 80.474 29.0522C79.4868 29.4357 78.3575 29.6275 77.0862 29.6275ZM100.558 17.2695L97.0427 17.653C96.9433 17.2979 96.7693 16.9641 96.5207 16.6516C96.2792 16.3391 95.9525 16.087 95.5406 15.8952C95.1286 15.7035 94.6244 15.6076 94.0278 15.6076C93.2252 15.6076 92.5505 15.7816 92.0036 16.1296C91.4639 16.4776 91.1975 16.9286 91.2046 17.4826C91.1975 17.9584 91.3715 18.3455 91.7267 18.6438C92.0889 18.9421 92.6855 19.1871 93.5164 19.3789L96.3076 19.9755C97.8559 20.3093 99.0065 20.8384 99.7593 21.5628C100.519 22.2873 100.903 23.2354 100.91 24.4073C100.903 25.4371 100.601 26.3462 100.004 27.1346C99.4149 27.9158 98.5945 28.5266 97.5434 28.967C96.4923 29.4073 95.2849 29.6275 93.9213 29.6275C91.9184 29.6275 90.3062 29.2084 89.0846 28.3704C87.863 27.5252 87.135 26.3498 86.9007 24.8441L90.6613 24.4819C90.8318 25.2205 91.194 25.778 91.748 26.1545C92.3019 26.5309 93.0228 26.7191 93.9106 26.7191C94.8268 26.7191 95.5619 26.5309 96.1159 26.1545C96.6769 25.778 96.9575 25.3128 96.9575 24.7589C96.9575 24.2901 96.7764 23.903 96.4142 23.5976C96.059 23.2922 95.5051 23.0579 94.7522 22.8945L91.961 22.3086C90.3914 21.9819 89.2302 21.4314 88.4774 20.6573C87.7245 19.876 87.3517 18.8888 87.3588 17.6956C87.3517 16.6871 87.6251 15.8135 88.1791 15.0749C88.7401 14.3292 89.5178 13.7539 90.5122 13.3491C91.5136 12.9371 92.6677 12.7312 93.9745 12.7312C95.8921 12.7312 97.4014 13.1395 98.5022 13.9563C99.6102 14.7731 100.296 15.8775 100.558 17.2695ZM111.228 29.6275C109.594 29.6275 108.191 29.2688 107.02 28.5515C105.855 27.8341 104.956 26.8434 104.324 25.5792C103.699 24.3079 103.387 22.8448 103.387 21.19C103.387 19.528 103.706 18.0614 104.346 16.7901C104.985 15.5117 105.887 14.5174 107.052 13.8072C108.223 13.0898 109.608 12.7312 111.206 12.7312C112.535 12.7312 113.71 12.9762 114.733 13.4662C115.763 13.9492 116.583 14.6346 117.194 15.5223C117.804 16.403 118.152 17.4329 118.238 18.6118H114.552C114.402 17.8235 114.047 17.1665 113.486 16.641C112.932 16.1083 112.19 15.842 111.26 15.842C110.471 15.842 109.779 16.055 109.182 16.4812C108.586 16.9002 108.12 17.5039 107.787 18.2922C107.46 19.0806 107.297 20.0252 107.297 21.126C107.297 22.2411 107.46 23.1999 107.787 24.0025C108.113 24.7979 108.571 25.4123 109.161 25.8455C109.758 26.2716 110.457 26.4847 111.26 26.4847C111.828 26.4847 112.336 26.3782 112.783 26.1651C113.238 25.9449 113.618 25.6289 113.923 25.217C114.228 24.805 114.438 24.3043 114.552 23.7148H118.238C118.145 24.8725 117.804 25.8988 117.215 26.7937C116.625 27.6814 115.823 28.3775 114.807 28.8817C113.792 29.3789 112.598 29.6275 111.228 29.6275ZM121.404 29.3079V12.9442H125.144V15.6715H125.314C125.612 14.7269 126.124 13.9989 126.848 13.4875C127.58 12.9691 128.414 12.7098 129.352 12.7098C129.565 12.7098 129.803 12.7205 130.066 12.7418C130.335 12.756 130.559 12.7809 130.737 12.8164V16.364C130.573 16.3072 130.314 16.2574 129.959 16.2148C129.611 16.1651 129.274 16.1402 128.947 16.1402C128.244 16.1402 127.612 16.2929 127.051 16.5983C126.497 16.8966 126.06 17.3121 125.74 17.8448C125.421 18.3775 125.261 18.9918 125.261 19.6878V29.3079H121.404ZM133.299 29.3079V12.9442H137.155V29.3079H133.299ZM135.238 10.6218C134.627 10.6218 134.101 10.4194 133.661 10.0145C133.221 9.6026 133.001 9.109 133.001 8.53371C133.001 7.95133 133.221 7.45772 133.661 7.05289C134.101 6.64096 134.627 6.43499 135.238 6.43499C135.856 6.43499 136.381 6.64096 136.815 7.05289C137.255 7.45772 137.475 7.95133 137.475 8.53371C137.475 9.109 137.255 9.6026 136.815 10.0145C136.381 10.4194 135.856 10.6218 135.238 10.6218ZM141.121 35.4442V12.9442H144.914V15.6502H145.138C145.336 15.2525 145.617 14.8299 145.979 14.3824C146.341 13.9279 146.831 13.5408 147.449 13.2212C148.067 12.8945 148.856 12.7312 149.814 12.7312C151.079 12.7312 152.218 13.0543 153.234 13.7006C154.257 14.3398 155.066 15.288 155.663 16.5451C156.267 17.7951 156.569 19.3292 156.569 21.1473C156.569 22.9442 156.274 24.4712 155.684 25.7283C155.095 26.9854 154.292 27.9442 153.277 28.6047C152.261 29.2652 151.111 29.5955 149.825 29.5955C148.888 29.5955 148.11 29.4393 147.492 29.1268C146.874 28.8143 146.377 28.4378 146 27.9975C145.631 27.55 145.343 27.1275 145.138 26.7297H144.978V35.4442H141.121ZM144.903 21.126C144.903 22.1843 145.052 23.1111 145.351 23.9066C145.656 24.702 146.093 25.3235 146.661 25.7709C147.236 26.2113 147.932 26.4314 148.749 26.4314C149.601 26.4314 150.315 26.2042 150.89 25.7496C151.466 25.288 151.899 24.6594 152.19 23.864C152.488 23.0614 152.638 22.1488 152.638 21.126C152.638 20.1104 152.492 19.2084 152.201 18.4201C151.91 17.6317 151.476 17.0138 150.901 16.5664C150.326 16.1189 149.608 15.8952 148.749 15.8952C147.925 15.8952 147.226 16.1118 146.65 16.5451C146.075 16.9783 145.638 17.5856 145.34 18.3668C145.049 19.1481 144.903 20.0678 144.903 21.126ZM168.042 12.9442V15.9272H158.635V12.9442H168.042ZM160.958 9.02377H164.814V24.386C164.814 24.9045 164.892 25.3022 165.049 25.5792C165.212 25.8491 165.425 26.0337 165.688 26.1331C165.951 26.2326 166.242 26.2823 166.562 26.2823C166.803 26.2823 167.023 26.2645 167.222 26.229C167.428 26.1935 167.584 26.1616 167.691 26.1331L168.341 29.1481C168.135 29.2191 167.84 29.2972 167.456 29.3824C167.08 29.4677 166.618 29.5174 166.071 29.5316C165.106 29.56 164.236 29.4144 163.461 29.0948C162.687 28.7681 162.073 28.2638 161.618 27.582C161.171 26.9002 160.951 26.0479 160.958 25.0252V9.02377Z" fill="#A6A6A6"/>
</svg>
