<svg width="263" height="57" viewBox="0 0 263 57" fill="none" xmlns="http://www.w3.org/2000/svg">
<path d="M111.693 10.9494H115.645V25.2037C115.645 26.7662 115.276 28.1404 114.537 29.3265C113.806 30.5126 112.776 31.4395 111.448 32.1071C110.12 32.7676 108.568 33.0978 106.792 33.0978C105.01 33.0978 103.454 32.7676 102.126 32.1071C100.798 31.4395 99.7681 30.5126 99.0366 29.3265C98.305 28.1404 97.9393 26.7662 97.9393 25.2037V10.9494H101.892V24.8734C101.892 25.7825 102.091 26.5922 102.488 27.3024C102.893 28.0126 103.461 28.5701 104.193 28.975C104.924 29.3727 105.791 29.5716 106.792 29.5716C107.794 29.5716 108.66 29.3727 109.392 28.975C110.13 28.5701 110.698 28.0126 111.096 27.3024C111.494 26.5922 111.693 25.7825 111.693 24.8734V10.9494ZM123.627 23.1795V32.7676H119.771V16.4039H123.457V19.1845H123.649C124.025 18.2683 124.625 17.5403 125.449 17.0005C126.28 16.4608 127.306 16.1909 128.528 16.1909C129.657 16.1909 130.641 16.4324 131.479 16.9153C132.324 17.3983 132.977 18.0978 133.439 19.014C133.908 19.9302 134.139 21.0417 134.132 22.3485V32.7676H130.275V22.9451C130.275 21.8514 129.991 20.9956 129.423 20.3777C128.862 19.7598 128.084 19.4508 127.09 19.4508C126.415 19.4508 125.815 19.6 125.289 19.8983C124.771 20.1895 124.362 20.612 124.064 21.166C123.773 21.72 123.627 22.3912 123.627 23.1795ZM150.985 20.7292L147.47 21.1127C147.37 20.7576 147.196 20.4238 146.948 20.1113C146.706 19.7988 146.379 19.5467 145.967 19.3549C145.556 19.1632 145.051 19.0673 144.455 19.0673C143.652 19.0673 142.977 19.2413 142.431 19.5893C141.891 19.9373 141.624 20.3883 141.632 20.9423C141.624 21.4181 141.798 21.8052 142.154 22.1035C142.516 22.4018 143.112 22.6468 143.943 22.8386L146.735 23.4352C148.283 23.769 149.433 24.2981 150.186 25.0225C150.946 25.747 151.33 26.6951 151.337 27.867C151.33 28.8968 151.028 29.8059 150.431 30.5943C149.842 31.3755 149.021 31.9863 147.97 32.4267C146.919 32.867 145.712 33.0872 144.348 33.0872C142.345 33.0872 140.733 32.6681 139.512 31.8301C138.29 30.9849 137.562 29.8095 137.328 28.3038L141.088 27.9416C141.259 28.6802 141.621 29.2377 142.175 29.6142C142.729 29.9906 143.45 30.1788 144.338 30.1788C145.254 30.1788 145.989 29.9906 146.543 29.6142C147.104 29.2377 147.384 28.7725 147.384 28.2186C147.384 27.7498 147.203 27.3627 146.841 27.0574C146.486 26.752 145.932 26.5176 145.179 26.3542L142.388 25.7683C140.818 25.4416 139.657 24.8912 138.904 24.117C138.151 23.3358 137.779 22.3485 137.786 21.1554C137.779 20.1468 138.052 19.2733 138.606 18.5346C139.167 17.7889 139.945 17.2136 140.939 16.8088C141.941 16.3968 143.095 16.1909 144.401 16.1909C146.319 16.1909 147.828 16.5993 148.929 17.416C150.037 18.2328 150.722 19.3372 150.985 20.7292ZM154.517 38.9039V16.4039H158.309V19.1099H158.533C158.732 18.7122 159.013 18.2896 159.375 17.8422C159.737 17.3876 160.227 17.0005 160.845 16.6809C161.463 16.3542 162.251 16.1909 163.21 16.1909C164.474 16.1909 165.614 16.514 166.63 17.1603C167.653 17.7995 168.462 18.7477 169.059 20.0048C169.662 21.2548 169.964 22.7889 169.964 24.6071C169.964 26.4039 169.67 27.9309 169.08 29.188C168.491 30.4451 167.688 31.4039 166.672 32.0645C165.657 32.725 164.506 33.0552 163.221 33.0552C162.283 33.0552 161.505 32.899 160.888 32.5865C160.27 32.274 159.773 31.8975 159.396 31.4572C159.027 31.0098 158.739 30.5872 158.533 30.1895H158.373V38.9039H154.517ZM158.299 24.5858C158.299 25.644 158.448 26.5708 158.746 27.3663C159.052 28.1618 159.488 28.7832 160.057 29.2306C160.632 29.671 161.328 29.8912 162.145 29.8912C162.997 29.8912 163.711 29.6639 164.286 29.2093C164.861 28.7477 165.295 28.1191 165.586 27.3237C165.884 26.5211 166.033 25.6085 166.033 24.5858C166.033 23.5701 165.888 22.6681 165.596 21.8798C165.305 21.0914 164.872 20.4735 164.297 20.0261C163.721 19.5787 163.004 19.3549 162.145 19.3549C161.321 19.3549 160.621 19.5716 160.046 20.0048C159.471 20.438 159.034 21.0453 158.736 21.8265C158.444 22.6078 158.299 23.5275 158.299 24.5858ZM177.123 10.9494V32.7676H173.267V10.9494H177.123ZM185.798 33.0978C184.761 33.0978 183.827 32.9132 182.996 32.5439C182.172 32.1674 181.519 31.6135 181.036 30.8819C180.56 30.1504 180.322 29.2484 180.322 28.176C180.322 27.2527 180.493 26.4892 180.833 25.8855C181.174 25.2818 181.64 24.7988 182.229 24.4366C182.819 24.0744 183.483 23.801 184.221 23.6163C184.967 23.4245 185.738 23.286 186.533 23.2008C187.492 23.1014 188.27 23.0126 188.866 22.9345C189.463 22.8493 189.896 22.7214 190.166 22.551C190.443 22.3734 190.581 22.1 190.581 21.7306V21.6667C190.581 20.8642 190.343 20.2427 189.868 19.8024C189.392 19.362 188.706 19.1419 187.811 19.1419C186.867 19.1419 186.118 19.3478 185.564 19.7598C185.017 20.1717 184.647 20.6582 184.456 21.2193L180.855 20.7079C181.139 19.7136 181.608 18.8826 182.261 18.215C182.914 17.5403 183.713 17.036 184.658 16.7022C185.603 16.3613 186.647 16.1909 187.79 16.1909C188.578 16.1909 189.363 16.2832 190.145 16.4679C190.926 16.6525 191.64 16.9579 192.286 17.3841C192.932 17.8031 193.451 18.3748 193.841 19.0993C194.239 19.8237 194.438 20.7292 194.438 21.8159V32.7676H190.73V30.5197H190.603C190.368 30.9743 190.038 31.4004 189.612 31.7981C189.193 32.1887 188.664 32.5048 188.024 32.7463C187.392 32.9806 186.65 33.0978 185.798 33.0978ZM186.799 30.264C187.573 30.264 188.245 30.1113 188.813 29.8059C189.381 29.4934 189.818 29.0815 190.123 28.5701C190.436 28.0588 190.592 27.5012 190.592 26.8975V24.9693C190.471 25.0687 190.265 25.161 189.974 25.2463C189.69 25.3315 189.37 25.4061 189.015 25.47C188.66 25.5339 188.309 25.5907 187.961 25.6404C187.613 25.6902 187.311 25.7328 187.055 25.7683C186.48 25.8464 185.965 25.9743 185.51 26.1518C185.056 26.3294 184.697 26.5779 184.434 26.8975C184.172 27.21 184.04 27.6149 184.04 28.112C184.04 28.8223 184.299 29.3585 184.818 29.7207C185.336 30.0829 185.997 30.264 186.799 30.264ZM211.249 20.7292L207.733 21.1127C207.634 20.7576 207.46 20.4238 207.211 20.1113C206.97 19.7988 206.643 19.5467 206.231 19.3549C205.819 19.1632 205.315 19.0673 204.718 19.0673C203.916 19.0673 203.241 19.2413 202.694 19.5893C202.154 19.9373 201.888 20.3883 201.895 20.9423C201.888 21.4181 202.062 21.8052 202.417 22.1035C202.779 22.4018 203.376 22.6468 204.207 22.8386L206.998 23.4352C208.547 23.769 209.697 24.2981 210.45 25.0225C211.21 25.747 211.593 26.6951 211.6 27.867C211.593 28.8968 211.292 29.8059 210.695 30.5943C210.105 31.3755 209.285 31.9863 208.234 32.4267C207.183 32.867 205.975 33.0872 204.612 33.0872C202.609 33.0872 200.997 32.6681 199.775 31.8301C198.554 30.9849 197.826 29.8095 197.591 28.3038L201.352 27.9416C201.522 28.6802 201.885 29.2377 202.439 29.6142C202.993 29.9906 203.713 30.1788 204.601 30.1788C205.517 30.1788 206.252 29.9906 206.806 29.6142C207.368 29.2377 207.648 28.7725 207.648 28.2186C207.648 27.7498 207.467 27.3627 207.105 27.0574C206.75 26.752 206.196 26.5176 205.443 26.3542L202.652 25.7683C201.082 25.4416 199.921 24.8912 199.168 24.117C198.415 23.3358 198.042 22.3485 198.049 21.1554C198.042 20.1468 198.316 19.2733 198.87 18.5346C199.431 17.7889 200.208 17.2136 201.203 16.8088C202.204 16.3968 203.358 16.1909 204.665 16.1909C206.583 16.1909 208.092 16.5993 209.193 17.416C210.301 18.2328 210.986 19.3372 211.249 20.7292ZM218.637 23.1795V32.7676H214.781V10.9494H218.552V19.1845H218.744C219.127 18.2612 219.72 17.5332 220.523 17.0005C221.332 16.4608 222.362 16.1909 223.612 16.1909C224.749 16.1909 225.739 16.4288 226.585 16.9047C227.43 17.3805 228.083 18.0765 228.545 18.9927C229.013 19.9089 229.248 21.0275 229.248 22.3485V32.7676H225.391V22.9451C225.391 21.8443 225.107 20.9885 224.539 20.3777C223.978 19.7598 223.19 19.4508 222.174 19.4508C221.492 19.4508 220.881 19.6 220.342 19.8983C219.809 20.1895 219.39 20.612 219.085 21.166C218.786 21.72 218.637 22.3912 218.637 23.1795Z" fill="#A6A6A6"/>
<rect x="16.0574" y="0.848145" width="17.517" height="13.1378" fill="#A6A6A6"/>
<rect y="34.4224" width="49.6316" height="13.1378" fill="#A6A6A6"/>
<rect x="35.0342" y="21.2847" width="14.5975" height="26.2755" fill="#A6A6A6"/>
<rect y="21.2847" width="14.5975" height="26.2755" fill="#A6A6A6"/>
</svg>
