<svg width="287" height="53" viewBox="0 0 287 53" fill="none" xmlns="http://www.w3.org/2000/svg">
<circle cx="22.4778" cy="26.5835" r="21.8963" fill="#A6A6A6"/>
<path d="M31.2362 26.5835C31.2362 32.2269 26.6613 36.8018 21.0179 36.8018C15.3746 36.8018 10.7997 32.2269 10.7997 26.5835C10.7997 20.9401 15.3746 16.3652 21.0179 16.3652C23.8771 16.3652 26.4621 17.5396 28.3167 19.4322" stroke="white" stroke-width="2"/>
<path d="M25.3972 29.5028L31.2362 26.5833L34.8856 31.6924" stroke="white" stroke-width="2"/>
<path d="M68.0694 35.7851C66.6845 35.7851 65.4949 35.5969 64.5006 35.2205C63.5062 34.8512 62.7072 34.354 62.1035 33.729C61.4998 33.104 61.0808 32.4116 60.8464 31.6516L64.3194 30.81C64.4757 31.1296 64.703 31.4456 65.0013 31.7581C65.2996 32.0777 65.7008 32.3405 66.2051 32.5465C66.7165 32.7596 67.3592 32.8661 68.1334 32.8661C69.2271 32.8661 70.1327 32.5998 70.85 32.0671C71.5673 31.5415 71.926 30.675 71.926 29.4677V26.3675H71.7342C71.5354 26.7652 71.2442 27.1736 70.8606 27.5927C70.4842 28.0117 69.9835 28.3633 69.3585 28.6473C68.7406 28.9314 67.9629 29.0735 67.0254 29.0735C65.7683 29.0735 64.6284 28.7787 63.6057 28.1893C62.59 27.5927 61.7804 26.7049 61.1767 25.5259C60.5801 24.3398 60.2818 22.8554 60.2818 21.0728C60.2818 19.2759 60.5801 17.7596 61.1767 16.5238C61.7804 15.2809 62.5936 14.3398 63.6163 13.7006C64.639 13.0543 65.779 12.7312 67.0361 12.7312C67.9949 12.7312 68.7832 12.8945 69.4011 13.2212C70.0261 13.5408 70.5233 13.9279 70.8926 14.3824C71.2619 14.8299 71.5425 15.2525 71.7342 15.6502H71.9473V12.9442H75.7506V29.5742C75.7506 30.9733 75.4167 32.131 74.7491 33.0472C74.0815 33.9634 73.1689 34.6488 72.0112 35.1033C70.8535 35.5579 69.5396 35.7851 68.0694 35.7851ZM68.1014 26.0479C68.9182 26.0479 69.6142 25.8491 70.1895 25.4513C70.7648 25.0536 71.2015 24.4819 71.4998 23.7361C71.7981 22.9904 71.9473 22.0955 71.9473 21.0515C71.9473 20.0216 71.7981 19.1197 71.4998 18.3455C71.2087 17.5714 70.7754 16.9712 70.2001 16.5451C69.6319 16.1118 68.9324 15.8952 68.1014 15.8952C67.242 15.8952 66.5247 16.1189 65.9494 16.5664C65.3741 17.0138 64.9409 17.6282 64.6497 18.4094C64.3585 19.1836 64.2129 20.0643 64.2129 21.0515C64.2129 22.0529 64.3585 22.93 64.6497 23.6829C64.948 24.4286 65.3848 25.011 65.9601 25.43C66.5425 25.842 67.2562 26.0479 68.1014 26.0479ZM79.703 29.3079V12.9442H83.4423V15.6715H83.6128C83.9111 14.7269 84.4224 13.9989 85.1469 13.4875C85.8784 12.9691 86.7129 12.7098 87.6504 12.7098C87.8635 12.7098 88.1014 12.7205 88.3642 12.7418C88.6341 12.756 88.8578 12.7809 89.0354 12.8164V16.364C88.872 16.3072 88.6128 16.2574 88.2577 16.2148C87.9096 16.1651 87.5723 16.1402 87.2456 16.1402C86.5425 16.1402 85.9104 16.2929 85.3493 16.5983C84.7953 16.8966 84.3585 17.3121 84.0389 17.8448C83.7193 18.3775 83.5595 18.9918 83.5595 19.6878V29.3079H79.703ZM96.0133 29.6381C94.9764 29.6381 94.0425 29.4535 93.2115 29.0841C92.3876 28.7077 91.7342 28.1537 91.2513 27.4222C90.7754 26.6907 90.5375 25.7887 90.5375 24.7162C90.5375 23.7929 90.7079 23.0295 91.0489 22.4258C91.3898 21.8221 91.855 21.3391 92.4444 20.9769C93.0339 20.6147 93.698 20.3412 94.4366 20.1566C95.1824 19.9648 95.953 19.8263 96.7484 19.7411C97.7072 19.6417 98.4849 19.5529 99.0815 19.4748C99.6781 19.3895 100.111 19.2617 100.381 19.0912C100.658 18.9137 100.797 18.6402 100.797 18.2709V18.207C100.797 17.4045 100.559 16.783 100.083 16.3427C99.6071 15.9023 98.9217 15.6822 98.0268 15.6822C97.0822 15.6822 96.3329 15.8881 95.779 16.3C95.2321 16.712 94.8628 17.1985 94.671 17.7596L91.0702 17.2482C91.3542 16.2539 91.823 15.4229 92.4764 14.7553C93.1298 14.0806 93.9288 13.5763 94.8734 13.2425C95.818 12.9016 96.8621 12.7312 98.0055 12.7312C98.7939 12.7312 99.5787 12.8235 100.36 13.0081C101.141 13.1928 101.855 13.4982 102.501 13.9243C103.148 14.3434 103.666 14.9151 104.057 15.6395C104.454 16.364 104.653 17.2695 104.653 18.3562V29.3079H100.946V27.06H100.818C100.584 27.5145 100.253 27.9407 99.8273 28.3384C99.4082 28.729 98.8791 29.0451 98.2399 29.2866C97.6078 29.5209 96.8656 29.6381 96.0133 29.6381ZM97.0148 26.8043C97.7889 26.8043 98.4601 26.6516 99.0283 26.3462C99.5964 26.0337 100.033 25.6218 100.339 25.1104C100.651 24.5991 100.807 24.0415 100.807 23.4378V21.5096C100.687 21.609 100.481 21.7013 100.189 21.7866C99.9054 21.8718 99.5858 21.9464 99.2307 22.0103C98.8756 22.0742 98.524 22.131 98.176 22.1807C97.828 22.2304 97.5261 22.2731 97.2704 22.3086C96.6952 22.3867 96.1802 22.5145 95.7257 22.6921C95.2712 22.8697 94.9125 23.1182 94.6497 23.4378C94.3869 23.7503 94.2555 24.1552 94.2555 24.6523C94.2555 25.3625 94.5148 25.8988 95.0332 26.261C95.5517 26.6232 96.2122 26.8043 97.0148 26.8043ZM108.531 29.3079V12.9442H112.217V15.7248H112.409C112.75 14.7873 113.314 14.0557 114.103 13.5302C114.891 12.9975 115.832 12.7312 116.926 12.7312C118.034 12.7312 118.968 13.001 119.728 13.5408C120.495 14.0735 121.035 14.8015 121.347 15.7248H121.518C121.88 14.8157 122.491 14.0912 123.35 13.5515C124.216 13.0046 125.243 12.7312 126.429 12.7312C127.935 12.7312 129.163 13.207 130.115 14.1587C131.067 15.1104 131.542 16.4989 131.542 18.3242V29.3079H127.675V18.9208C127.675 17.9052 127.405 17.163 126.866 16.6942C126.326 16.2184 125.665 15.9804 124.884 15.9804C123.954 15.9804 123.226 16.2716 122.7 16.854C122.182 17.4293 121.922 18.1786 121.922 19.1019V29.3079H118.14V18.761C118.14 17.9158 117.885 17.2411 117.373 16.7368C116.869 16.2326 116.209 15.9804 115.392 15.9804C114.838 15.9804 114.334 16.1225 113.879 16.4066C113.425 16.6836 113.062 17.0777 112.792 17.5891C112.523 18.0934 112.388 18.6829 112.388 19.3576V29.3079H108.531ZM135.455 29.3079V12.9442H139.141V15.7248H139.333C139.674 14.7873 140.238 14.0557 141.027 13.5302C141.815 12.9975 142.756 12.7312 143.85 12.7312C144.958 12.7312 145.892 13.001 146.652 13.5408C147.419 14.0735 147.958 14.8015 148.271 15.7248H148.441C148.804 14.8157 149.414 14.0912 150.274 13.5515C151.14 13.0046 152.167 12.7312 153.353 12.7312C154.858 12.7312 156.087 13.207 157.039 14.1587C157.99 15.1104 158.466 16.4989 158.466 18.3242V29.3079H154.599V18.9208C154.599 17.9052 154.329 17.163 153.789 16.6942C153.25 16.2184 152.589 15.9804 151.808 15.9804C150.878 15.9804 150.15 16.2716 149.624 16.854C149.105 17.4293 148.846 18.1786 148.846 19.1019V29.3079H145.064V18.761C145.064 17.9158 144.809 17.2411 144.297 16.7368C143.793 16.2326 143.132 15.9804 142.316 15.9804C141.762 15.9804 141.257 16.1225 140.803 16.4066C140.348 16.6836 139.986 17.0777 139.716 17.5891C139.446 18.0934 139.311 18.6829 139.311 19.3576V29.3079H135.455ZM167.088 29.6381C166.051 29.6381 165.117 29.4535 164.286 29.0841C163.462 28.7077 162.808 28.1537 162.325 27.4222C161.85 26.6907 161.612 25.7887 161.612 24.7162C161.612 23.7929 161.782 23.0295 162.123 22.4258C162.464 21.8221 162.929 21.3391 163.519 20.9769C164.108 20.6147 164.772 20.3412 165.511 20.1566C166.257 19.9648 167.027 19.8263 167.823 19.7411C168.781 19.6417 169.559 19.5529 170.156 19.4748C170.752 19.3895 171.186 19.2617 171.455 19.0912C171.732 18.9137 171.871 18.6402 171.871 18.2709V18.207C171.871 17.4045 171.633 16.783 171.157 16.3427C170.681 15.9023 169.996 15.6822 169.101 15.6822C168.156 15.6822 167.407 15.8881 166.853 16.3C166.306 16.712 165.937 17.1985 165.745 17.7596L162.144 17.2482C162.428 16.2539 162.897 15.4229 163.551 14.7553C164.204 14.0806 165.003 13.5763 165.948 13.2425C166.892 12.9016 167.936 12.7312 169.08 12.7312C169.868 12.7312 170.653 12.8235 171.434 13.0081C172.215 13.1928 172.929 13.4982 173.575 13.9243C174.222 14.3434 174.74 14.9151 175.131 15.6395C175.529 16.364 175.727 17.2695 175.727 18.3562V29.3079H172.02V27.06H171.892C171.658 27.5145 171.328 27.9407 170.901 28.3384C170.482 28.729 169.953 29.0451 169.314 29.2866C168.682 29.5209 167.94 29.6381 167.088 29.6381ZM168.089 26.8043C168.863 26.8043 169.534 26.6516 170.102 26.3462C170.671 26.0337 171.107 25.6218 171.413 25.1104C171.725 24.5991 171.882 24.0415 171.882 23.4378V21.5096C171.761 21.609 171.555 21.7013 171.264 21.7866C170.98 21.8718 170.66 21.9464 170.305 22.0103C169.95 22.0742 169.598 22.131 169.25 22.1807C168.902 22.2304 168.6 22.2731 168.345 22.3086C167.769 22.3867 167.254 22.5145 166.8 22.6921C166.345 22.8697 165.987 23.1182 165.724 23.4378C165.461 23.7503 165.33 24.1552 165.33 24.6523C165.33 25.3625 165.589 25.8988 166.107 26.261C166.626 26.6232 167.286 26.8043 168.089 26.8043ZM179.605 29.3079V12.9442H183.345V15.6715H183.515C183.813 14.7269 184.325 13.9989 185.049 13.4875C185.781 12.9691 186.615 12.7098 187.553 12.7098C187.766 12.7098 188.004 12.7205 188.267 12.7418C188.536 12.756 188.76 12.7809 188.938 12.8164V16.364C188.774 16.3072 188.515 16.2574 188.16 16.2148C187.812 16.1651 187.475 16.1402 187.148 16.1402C186.445 16.1402 185.813 16.2929 185.252 16.5983C184.698 16.8966 184.261 17.3121 183.941 17.8448C183.622 18.3775 183.462 18.9918 183.462 19.6878V29.3079H179.605ZM195.356 7.48968V29.3079H191.5V7.48968H195.356ZM201.719 35.4442C201.194 35.4442 200.707 35.4016 200.26 35.3164C199.819 35.2383 199.468 35.1459 199.205 35.0394L200.1 32.0351C200.661 32.1985 201.162 32.2766 201.602 32.2695C202.042 32.2624 202.429 32.1239 202.763 31.854C203.104 31.5912 203.392 31.1509 203.626 30.533L203.956 29.6488L198.022 12.9442H202.113L205.885 25.3022H206.055L209.837 12.9442H213.939L207.387 31.2894C207.081 32.1559 206.677 32.8981 206.172 33.516C205.668 34.141 205.05 34.6168 204.319 34.9435C203.594 35.2773 202.728 35.4442 201.719 35.4442Z" fill="#A6A6A6"/>
</svg>
