<svg width="294" height="53" viewBox="0 0 294 53" fill="none" xmlns="http://www.w3.org/2000/svg">
<path d="M64.8888 7.48968V29.3079H60.9364V7.48968H64.8888ZM87.0985 7.48968V29.3079H83.5829L73.3024 14.4464H73.1212V29.3079H69.1688V7.48968H72.7058L82.9757 22.3618H83.1674V7.48968H87.0985ZM90.4464 10.8029V7.48968H107.854V10.8029H101.11V29.3079H97.19V10.8029H90.4464ZM111.21 29.3079V7.48968H125.4V10.8029H115.162V16.7262H124.665V20.0394H115.162V25.9947H125.485V29.3079H111.21ZM129.433 29.3079V7.48968H137.614C139.29 7.48968 140.697 7.78087 141.833 8.36326C142.977 8.94564 143.839 9.76241 144.422 10.8135C145.011 11.8576 145.306 13.0756 145.306 14.4677C145.306 15.8668 145.008 17.0813 144.411 18.1111C143.822 19.1339 142.952 19.9258 141.801 20.4868C140.651 21.0408 139.237 21.3178 137.561 21.3178H131.734V18.0366H137.028C138.009 18.0366 138.811 17.9016 139.436 17.6317C140.061 17.3547 140.523 16.9535 140.821 16.4279C141.126 15.8952 141.279 15.2418 141.279 14.4677C141.279 13.6935 141.126 13.033 140.821 12.4861C140.516 11.9322 140.05 11.5131 139.425 11.229C138.8 10.9378 137.994 10.7922 137.007 10.7922H133.385V29.3079H129.433ZM140.704 19.4215L146.105 29.3079H141.695L136.389 19.4215H140.704ZM167.62 14.8512H163.635C163.522 14.1978 163.312 13.6189 163.007 13.1147C162.701 12.6033 162.321 12.1701 161.867 11.815C161.412 11.4598 160.894 11.1935 160.311 11.016C159.736 10.8313 159.115 10.739 158.447 10.739C157.261 10.739 156.21 11.0373 155.294 11.6339C154.377 12.2233 153.66 13.0898 153.142 14.2333C152.623 15.3697 152.364 16.7581 152.364 18.3988C152.364 20.0678 152.623 21.4741 153.142 22.6175C153.667 23.7539 154.385 24.6133 155.294 25.1956C156.21 25.7709 157.257 26.0586 158.436 26.0586C159.09 26.0586 159.701 25.9733 160.269 25.8029C160.844 25.6253 161.359 25.3661 161.814 25.0252C162.275 24.6843 162.662 24.2652 162.975 23.7681C163.294 23.2709 163.515 22.7027 163.635 22.0635L167.62 22.0848C167.471 23.1218 167.147 24.0948 166.65 25.0039C166.16 25.913 165.517 26.7155 164.722 27.4116C163.926 28.1005 162.996 28.6402 161.931 29.0309C160.865 29.4144 159.683 29.6062 158.383 29.6062C156.466 29.6062 154.754 29.1623 153.248 28.2745C151.743 27.3867 150.556 26.1047 149.69 24.4286C148.823 22.7525 148.39 20.7425 148.39 18.3988C148.39 16.0479 148.827 14.038 149.701 12.3689C150.574 10.6928 151.764 9.41084 153.27 8.52306C154.775 7.63528 156.48 7.19138 158.383 7.19138C159.598 7.19138 160.727 7.36184 161.771 7.70275C162.815 8.04366 163.745 8.54437 164.562 9.20488C165.379 9.85829 166.05 10.6608 166.576 11.6125C167.108 12.5572 167.456 13.6367 167.62 14.8512ZM190.735 18.3988C190.735 20.7496 190.295 22.7631 189.414 24.4393C188.54 26.1083 187.347 27.3867 185.834 28.2745C184.329 29.1623 182.621 29.6062 180.71 29.6062C178.8 29.6062 177.088 29.1623 175.575 28.2745C174.069 27.3796 172.876 26.0976 171.996 24.4286C171.122 22.7525 170.685 20.7425 170.685 18.3988C170.685 16.0479 171.122 14.038 171.996 12.3689C172.876 10.6928 174.069 9.41084 175.575 8.52306C177.088 7.63528 178.8 7.19138 180.71 7.19138C182.621 7.19138 184.329 7.63528 185.834 8.52306C187.347 9.41084 188.54 10.6928 189.414 12.3689C190.295 14.038 190.735 16.0479 190.735 18.3988ZM186.761 18.3988C186.761 16.7439 186.502 15.3483 185.983 14.212C185.472 13.0685 184.762 12.2056 183.853 11.6232C182.944 11.0337 181.896 10.739 180.71 10.739C179.524 10.739 178.476 11.0337 177.567 11.6232C176.658 12.2056 175.944 13.0685 175.426 14.212C174.915 15.3483 174.659 16.7439 174.659 18.3988C174.659 20.0536 174.915 21.4527 175.426 22.5962C175.944 23.7326 176.658 24.5955 177.567 25.185C178.476 25.7674 179.524 26.0586 180.71 26.0586C181.896 26.0586 182.944 25.7674 183.853 25.185C184.762 24.5955 185.472 23.7326 185.983 22.5962C186.502 21.4527 186.761 20.0536 186.761 18.3988ZM194.472 7.48968H199.308L205.785 23.2993H206.041L212.518 7.48968H217.355V29.3079H213.562V14.3185H213.36L207.33 29.2439H204.496L198.467 14.2866H198.264V29.3079H194.472V7.48968Z" fill="#A6A6A6"/>
<rect x="0.394531" y="4.68726" width="43.7925" height="43.7925" rx="3" fill="#A6A6A6"/>
<rect x="6.23364" y="14.9053" width="2.9195" height="17.517" fill="white"/>
<rect x="13.5322" y="10.5261" width="2.9195" height="26.2755" fill="white"/>
<rect x="20.8311" y="10.5261" width="2.9195" height="26.2755" fill="white"/>
<rect x="28.1296" y="10.5261" width="2.9195" height="26.2755" fill="white"/>
<path d="M7.69336 39.7209C11.8293 43.0256 23.7506 47.6522 38.3481 39.7209" stroke="white" stroke-width="2" stroke-linecap="round"/>
<rect x="35.4285" y="14.9053" width="2.9195" height="17.517" fill="white"/>
</svg>
