<svg width="213" height="53" viewBox="0 0 213 53" fill="none" xmlns="http://www.w3.org/2000/svg">
<path d="M90.8927 7.48968V29.3079H87.3771L77.0965 14.4464H76.9154V29.3079H72.963V7.48968H76.5L86.7698 22.3618H86.9616V7.48968H90.8927ZM102.167 29.6275C100.569 29.6275 99.1837 29.2759 98.0119 28.5728C96.84 27.8697 95.9309 26.886 95.2846 25.6218C94.6454 24.3576 94.3258 22.8803 94.3258 21.19C94.3258 19.4996 94.6454 18.0188 95.2846 16.7475C95.9309 15.4762 96.84 14.489 98.0119 13.7858C99.1837 13.0827 100.569 12.7312 102.167 12.7312C103.765 12.7312 105.15 13.0827 106.322 13.7858C107.493 14.489 108.399 15.4762 109.038 16.7475C109.684 18.0188 110.008 19.4996 110.008 21.19C110.008 22.8803 109.684 24.3576 109.038 25.6218C108.399 26.886 107.493 27.8697 106.322 28.5728C105.15 29.2759 103.765 29.6275 102.167 29.6275ZM102.188 26.538C103.054 26.538 103.779 26.3 104.361 25.8242C104.944 25.3412 105.377 24.6949 105.661 23.8853C105.952 23.0756 106.098 22.1736 106.098 21.1793C106.098 20.1779 105.952 19.2723 105.661 18.4627C105.377 17.6459 104.944 16.9961 104.361 16.5131C103.779 16.0302 103.054 15.7887 102.188 15.7887C101.3 15.7887 100.562 16.0302 99.9721 16.5131C99.3897 16.9961 98.9529 17.6459 98.6617 18.4627C98.3776 19.2723 98.2356 20.1779 98.2356 21.1793C98.2356 22.1736 98.3776 23.0756 98.6617 23.8853C98.9529 24.6949 99.3897 25.3412 99.9721 25.8242C100.562 26.3 101.3 26.538 102.188 26.538ZM121.452 12.9442V15.9272H112.045V12.9442H121.452ZM114.367 9.02377H118.224V24.386C118.224 24.9045 118.302 25.3022 118.458 25.5792C118.622 25.8491 118.835 26.0337 119.098 26.1331C119.36 26.2326 119.652 26.2823 119.971 26.2823C120.213 26.2823 120.433 26.2645 120.632 26.229C120.838 26.1935 120.994 26.1616 121.1 26.1331L121.75 29.1481C121.544 29.2191 121.25 29.2972 120.866 29.3824C120.49 29.4677 120.028 29.5174 119.481 29.5316C118.515 29.56 117.645 29.4144 116.871 29.0948C116.097 28.7681 115.483 28.2638 115.028 27.582C114.581 26.9002 114.36 26.0479 114.367 25.0252V9.02377ZM124.677 29.3079V12.9442H128.534V29.3079H124.677ZM126.616 10.6218C126.005 10.6218 125.48 10.4194 125.04 10.0145C124.599 9.6026 124.379 9.109 124.379 8.53371C124.379 7.95133 124.599 7.45772 125.04 7.05289C125.48 6.64096 126.005 6.43499 126.616 6.43499C127.234 6.43499 127.76 6.64096 128.193 7.05289C128.633 7.45772 128.853 7.95133 128.853 8.53371C128.853 9.109 128.633 9.6026 128.193 10.0145C127.76 10.4194 127.234 10.6218 126.616 10.6218ZM139.637 29.6275C138.039 29.6275 136.654 29.2759 135.483 28.5728C134.311 27.8697 133.402 26.886 132.755 25.6218C132.116 24.3576 131.796 22.8803 131.796 21.19C131.796 19.4996 132.116 18.0188 132.755 16.7475C133.402 15.4762 134.311 14.489 135.483 13.7858C136.654 13.0827 138.039 12.7312 139.637 12.7312C141.235 12.7312 142.62 13.0827 143.792 13.7858C144.964 14.489 145.87 15.4762 146.509 16.7475C147.155 18.0188 147.478 19.4996 147.478 21.19C147.478 22.8803 147.155 24.3576 146.509 25.6218C145.87 26.886 144.964 27.8697 143.792 28.5728C142.62 29.2759 141.235 29.6275 139.637 29.6275ZM139.659 26.538C140.525 26.538 141.25 26.3 141.832 25.8242C142.414 25.3412 142.848 24.6949 143.132 23.8853C143.423 23.0756 143.568 22.1736 143.568 21.1793C143.568 20.1779 143.423 19.2723 143.132 18.4627C142.848 17.6459 142.414 16.9961 141.832 16.5131C141.25 16.0302 140.525 15.7887 139.659 15.7887C138.771 15.7887 138.032 16.0302 137.443 16.5131C136.86 16.9961 136.424 17.6459 136.132 18.4627C135.848 19.2723 135.706 20.1779 135.706 21.1793C135.706 22.1736 135.848 23.0756 136.132 23.8853C136.424 24.6949 136.86 25.3412 137.443 25.8242C138.032 26.3 138.771 26.538 139.659 26.538ZM154.608 19.7198V29.3079H150.752V12.9442H154.438V15.7248H154.629C155.006 14.8086 155.606 14.0806 156.43 13.5408C157.261 13.001 158.287 12.7312 159.509 12.7312C160.638 12.7312 161.622 12.9726 162.46 13.4556C163.305 13.9385 163.958 14.6381 164.42 15.5543C164.889 16.4705 165.119 17.582 165.112 18.8888V29.3079H161.256V19.4854C161.256 18.3917 160.972 17.5358 160.404 16.9179C159.842 16.3 159.065 15.9911 158.07 15.9911C157.396 15.9911 156.796 16.1402 156.27 16.4385C155.752 16.7297 155.343 17.1523 155.045 17.7063C154.754 18.2603 154.608 18.9314 154.608 19.7198Z" fill="#A6A6A6"/>
<path d="M36.0269 19.3598V33.9053H33.6832L26.8295 23.9976H26.7088V33.9053H24.0738V19.3598H26.4318L33.2784 29.2746H33.4062V19.3598H36.0269Z" fill="#A6A6A6"/>
<rect x="13.4209" y="12.9858" width="41.7925" height="38.873" stroke="#A6A6A6" stroke-width="2"/>
<path d="M3.40437 2.76758L12.7967 10.9858H53.552L44.1597 2.76758H3.40437Z" stroke="#A6A6A6" stroke-width="2"/>
<path d="M12.4209 11.9858L0.742886 1.76758V42.6406L12.4209 52.8589V11.9858Z" fill="#A6A6A6"/>
</svg>
