<svg width="42" height="50" viewBox="0 0 42 50" fill="none" xmlns="http://www.w3.org/2000/svg">
<g clip-path="url(#clip0_53_738)">
<path d="M24.1149 11.9257C24.1563 10.6677 24.3568 9.92628 24.5543 9.51798V11.9771C25.0647 12.1058 25.4981 12.4655 25.7149 12.9663C26.0951 13.8432 25.6975 14.8698 24.8283 15.2541C24.7385 15.2936 24.6462 15.3322 24.5543 15.3711V19.2433C24.5543 19.6862 24.9099 20.045 25.3483 20.045C25.7869 20.045 26.1426 19.6862 26.1426 19.2433V13.3908H26.4403V19.2433C26.4403 19.6862 26.7959 20.045 27.2343 20.045C27.6728 20.045 28.0286 19.6862 28.0286 19.2433V9.52124C28.0665 9.60005 28.1048 9.69043 28.1427 9.79594C28.3237 10.3025 28.476 11.1334 28.4754 12.4306C28.4755 12.7881 28.4641 13.1809 28.4392 13.6121C28.4227 13.8981 28.6389 14.1435 28.9222 14.1602C28.9324 14.1608 28.9425 14.1611 28.9526 14.1611C29.2228 14.1611 29.4492 13.9481 29.4653 13.6724C29.4913 13.223 29.503 12.8102 29.5032 12.4306C29.5004 10.4739 29.1908 9.3909 28.7688 8.73959C28.5576 8.41636 28.3108 8.20891 28.083 8.09415C27.8639 7.98262 27.6712 7.95733 27.5553 7.95594C27.5475 7.95549 27.5399 7.95471 27.5321 7.95471H25.0507C25.0424 7.95471 25.0344 7.95549 25.026 7.95594C24.9102 7.95749 24.718 7.98286 24.4995 8.09399C24.154 8.26705 23.7816 8.64542 23.5211 9.31578C23.2697 9.95682 23.0973 10.8714 23.0808 12.2268C23.204 12.1757 23.327 12.1244 23.4475 12.0709C23.6603 11.9769 23.8844 11.9288 24.1149 11.9257Z" fill="#FABD13"/>
<path d="M24.8462 6.12659C24.8462 6.93206 25.4933 7.58529 26.2914 7.58529C27.0897 7.58529 27.7366 6.93206 27.7366 6.12659C27.7366 5.32081 27.0897 4.66772 26.2914 4.66772C25.4933 4.66772 24.8462 5.32081 24.8462 6.12659Z" fill="#FABD13"/>
<path d="M4.93187 33.0987C5.70476 32.45 6.69725 32.0593 7.77851 32.0593C8.13044 32.0593 8.47258 32.1021 8.80127 32.1801V28.2199H9.52648V32.42C11.1191 33.1076 12.2381 34.7047 12.2381 36.5608C12.2381 37.9767 11.5865 39.2412 10.5709 40.0669H10.8014C10.8335 40.0669 10.8649 40.0681 10.8963 40.0701C11.2882 40.0786 11.8884 40.1631 12.5663 40.5089C12.8539 40.6536 13.1312 40.8376 13.3959 41.0531V17.4133C14.1515 17.3424 15.2183 17.2235 16.453 17.0315C18.8883 16.6504 21.966 15.9973 24.64 14.8202C25.2729 14.5403 25.562 13.7951 25.2846 13.1557C25.0078 12.5164 24.2697 12.225 23.6363 12.505C21.3031 13.5383 18.3828 14.1767 16.0719 14.5338C14.9153 14.7139 13.9089 14.8265 13.1957 14.8941C12.8392 14.9277 12.5561 14.9502 12.3634 14.964C12.2903 14.9692 12.2316 14.9732 12.1867 14.9762H12.1866H6.14119C6.12499 14.9762 6.10925 14.978 6.0932 14.9786C5.81189 14.981 5.33756 15.0409 4.79816 15.3157C3.9565 15.7371 3.04943 16.6585 2.41465 18.2914C1.77181 19.931 1.34026 22.301 1.33813 25.8801C1.33859 26.8053 1.36777 27.8111 1.43135 28.9064C1.47047 29.5778 2.0221 30.0959 2.67994 30.0959C2.7047 30.0959 2.72959 30.0952 2.7545 30.0936C3.44475 30.0528 3.97132 29.4548 3.93082 28.7585C3.86954 27.7082 3.84204 26.7511 3.84204 25.8801C3.83654 22.0545 4.38909 19.9057 4.93187 18.7846V33.0987Z" fill="#FABD13"/>
<path d="M9.16376 14.0761C11.1082 14.0761 12.6845 12.485 12.6845 10.5223C12.6845 8.55961 11.1082 6.96851 9.16376 6.96851C7.21933 6.96851 5.64307 8.55961 5.64307 10.5223C5.64307 12.485 7.21933 14.0761 9.16376 14.0761Z" fill="#FABD13"/>
<path d="M15.6103 23.135H39.8128V0H5.54468V5.79123H6.17088V0.631633H39.1865V22.5026L15.6103 22.5031V23.135Z" fill="#FABD13"/>
<path d="M7.20426 40.0669H8.35277C10.024 39.79 11.2992 38.3259 11.2992 36.5609C11.2992 34.598 9.72315 33.0071 7.77851 33.0071C5.83419 33.0071 4.25781 34.598 4.25781 36.5609C4.25781 38.3259 5.53315 39.79 7.20426 40.0669Z" fill="#FABD13"/>
<path d="M24.5214 36.5609C24.5214 34.598 22.9453 33.0071 21.0007 33.0071C19.0564 33.0071 17.48 34.598 17.48 36.5609C17.48 38.3259 18.7553 39.79 20.4264 40.0669H21.5749C23.2462 39.79 24.5214 38.3259 24.5214 36.5609Z" fill="#FABD13"/>
<path d="M3.54667 44.8238V50H12.0107V44.8312C12.1035 45.0231 12.1971 45.2433 12.2894 45.5003C12.6335 46.4631 12.9341 47.9104 13.0492 50H15.7279C15.8738 47.3489 16.3245 45.7415 16.7688 44.8238V50H25.2329V44.8309C25.3256 45.0231 25.4193 45.2433 25.5116 45.5003C25.8557 46.4631 26.1563 47.9104 26.2713 50H28.9501C29.096 47.3489 29.5466 45.7415 29.991 44.8238V50H38.455V44.8309C38.5478 45.0231 38.6414 45.2433 38.7337 45.5003C39.0779 46.4631 39.3784 47.9104 39.4935 50H42C41.8192 46.4191 41.1397 44.2862 40.2584 42.9269C39.7444 42.1393 39.1433 41.6343 38.5875 41.3545C38.053 41.0821 37.5828 41.021 37.3007 41.0173C37.2824 41.0167 37.2643 41.0145 37.2457 41.0145H34.8665C34.6562 41.0454 34.4415 41.062 34.2228 41.062C34.0042 41.062 33.7895 41.0454 33.5792 41.0145H31.2003C31.1794 41.0145 31.1591 41.0167 31.1383 41.0176C30.8556 41.0219 30.3886 41.0842 29.8579 41.3545C29.0744 41.7463 28.2349 42.5721 27.6104 44.0004C27.4322 43.5963 27.2397 43.2406 27.0363 42.9269C26.5223 42.1393 25.9211 41.6343 25.3652 41.3545C24.8308 41.0821 24.3606 41.021 24.0786 41.0173C24.0602 41.0167 24.0422 41.0145 24.0235 41.0145H17.9781C17.9572 41.0145 17.9369 41.0167 17.9161 41.0176C17.6334 41.0219 17.1664 41.0842 16.6357 41.3545C15.8523 41.7463 15.0128 42.5721 14.3882 44.0004C14.2101 43.5963 14.0175 43.2406 13.8141 42.9269C13.3001 42.1393 12.699 41.6343 12.143 41.3545C11.6087 41.0821 11.1385 41.021 10.8564 41.0173C10.8381 41.0167 10.82 41.0145 10.8014 41.0145H4.75599C4.73491 41.0145 4.71443 41.0167 4.6938 41.0176C4.4111 41.0219 3.94427 41.0842 3.41357 41.3545C2.57161 41.7756 1.66438 42.697 1.02931 44.3305C0.509155 45.6572 0.127746 47.4629 0 50H2.50575C2.65168 47.3489 3.10231 45.7417 3.54667 44.8238Z" fill="#FABD13"/>
<path d="M34.2228 40.1147C36.1673 40.1147 37.7435 38.5236 37.7435 36.5609C37.7435 34.5982 36.1673 33.0071 34.2228 33.0071C32.2784 33.0071 30.7021 34.5982 30.7021 36.5609C30.7021 38.5236 32.2784 40.1147 34.2228 40.1147Z" fill="#FABD13"/>
<path d="M20.3045 5.5072H16.7056V6.13899H20.3045V5.5072Z" fill="#FABD13"/>
<path d="M33.6691 3.49341H30.0702V4.1252H33.6691V3.49341Z" fill="#FABD13"/>
<path d="M14.7356 2.10217H7.85071V2.73396H14.7356V2.10217Z" fill="#FABD13"/>
<path d="M12.0896 3.60278H7.85071V4.23457H12.0896V3.60278Z" fill="#FABD13"/>
<path d="M22.6516 9.08747V8.77141H19.5711L18.5696 6.49597L18.2839 6.62424H18.2836L19.3677 9.08747H22.6516Z" fill="#FABD13"/>
<path d="M28.6226 6.37577H31.0194L32.043 4.64012L31.7745 4.47877L31.7741 4.47839L30.8416 6.05988H28.6226V6.37577Z" fill="#FABD13"/>
<path d="M36.5257 8.07385H32.9268V8.70564H36.5257V8.07385Z" fill="#FABD13"/>
<path d="M34.8997 9.22068L34.6309 9.05934V9.05896L33.698 10.6404H30.3439V10.9563H33.876L34.8997 9.22068Z" fill="#FABD13"/>
<path d="M35.5347 17.0636H31.9358V17.6954H35.5347V17.0636Z" fill="#FABD13"/>
<path d="M29.3529 15.1286H32.7073L33.6401 16.7099L33.9087 16.5484L32.8852 14.8126H29.3529V15.1286Z" fill="#FABD13"/>
<path d="M21.164 20.1567H17.5651V20.7885H21.164V20.1567Z" fill="#FABD13"/>
<path d="M20.3921 18.2219H23.747V17.9059H20.2145L19.1912 19.6416L19.4596 19.8033V19.803L20.3921 18.2219Z" fill="#FABD13"/>
</g>
<defs>
<clipPath id="clip0_53_738">
<rect width="42" height="50" fill="white"/>
</clipPath>
</defs>
</svg>
