<svg width="389" height="308" viewBox="0 0 389 308" fill="none" xmlns="http://www.w3.org/2000/svg">
<path d="M236.228 274.203L118.913 274.377C118.149 274.377 117.53 275.338 117.53 276.521C117.53 277.704 118.151 278.663 118.916 278.661L236.231 278.487C244.838 278.475 251.834 268.266 251.826 255.731C251.818 243.195 244.81 233.008 236.202 233.022L118.887 233.195C118.123 233.195 117.504 234.155 117.505 235.34C117.506 236.524 118.125 237.48 118.889 237.479L236.205 237.305C243.287 237.294 249.053 245.562 249.06 255.736C249.066 265.909 243.309 274.192 236.228 274.203Z" fill="#FC4963"/>
<path d="M194.111 276.353H234.271L246.054 273.39L250.155 259.653L249.556 246.736L244.361 237.844C244.361 237.844 229.576 234.286 229.277 234.286L193.4 234.414L202.821 250.373L202.436 266.52L194.111 276.353Z" fill="#FC4963"/>
<path d="M183.977 276.353L193.997 274.929L202.823 266.443L202.816 253.478L200.353 242.763L192.333 236.287L74.4561 236.461C74.4561 236.461 80.1175 258.455 75.3916 275.104L183.977 276.353Z" fill="white"/>
<path d="M189.064 274.203L71.7489 274.377C70.9848 274.377 70.3659 275.338 70.3672 276.521C70.3685 277.704 70.9874 278.663 71.7515 278.661L189.068 278.487C197.675 278.475 204.671 268.266 204.663 255.731C204.655 243.195 197.646 233.008 189.039 233.022L71.724 233.195C70.9599 233.195 70.3411 234.155 70.3411 235.34C70.3411 236.524 70.9626 237.48 71.7267 237.479L189.042 237.305C196.123 237.294 201.889 245.562 201.896 255.736C201.902 265.909 196.144 274.192 189.064 274.203Z" fill="#FC4963"/>
<path d="M133.635 256.313C133.805 256.313 133.943 256.099 133.941 255.836C133.94 255.572 133.804 255.36 133.634 255.361L76.0641 255.446C75.894 255.446 75.7566 255.66 75.7566 255.922C75.7566 256.184 75.8874 256.398 76.0641 256.398L133.635 256.313Z" fill="#AAC9F8"/>
<path d="M197.675 256.218C197.845 256.218 197.982 256.005 197.982 255.742C197.982 255.478 197.844 255.266 197.675 255.266L141.742 255.349C141.572 255.349 141.435 255.561 141.435 255.825C141.435 256.088 141.565 256.301 141.742 256.301L197.675 256.218Z" fill="#AAC9F8"/>
<path d="M196.177 264.748C196.347 264.748 196.484 264.535 196.484 264.272C196.484 264.008 196.346 263.796 196.177 263.796L167.478 263.839C167.308 263.839 167.171 264.051 167.172 264.315C167.173 264.578 167.303 264.791 167.48 264.791L196.177 264.748Z" fill="#AAC9F8"/>
<path d="M163.269 264.797C163.439 264.797 163.577 264.583 163.577 264.319C163.577 264.056 163.438 263.845 163.268 263.845L76.068 263.975C75.8979 263.975 75.7605 264.187 75.7605 264.45C75.7605 264.714 75.8979 264.926 76.068 264.926L163.269 264.797Z" fill="#AAC9F8"/>
<path d="M71.7475 274.853C71.9176 274.853 72.055 274.641 72.0537 274.377C72.0524 274.114 71.9163 273.901 71.7462 273.901C70.8133 273.901 70.0558 275.078 70.0571 276.519C70.0584 277.961 70.8173 279.137 71.7502 279.137L189.065 278.963C197.842 278.951 204.976 268.528 204.968 255.731C204.96 242.933 197.813 232.54 189.037 232.54L71.7214 232.714C70.7885 232.714 70.0309 233.891 70.0322 235.332C70.0335 236.773 70.7911 237.95 71.724 237.95C71.8941 237.95 72.0315 237.738 72.0315 237.474C72.0315 237.211 71.9006 236.998 71.724 236.998C71.13 236.998 70.6472 236.253 70.6459 235.334C70.6446 234.414 71.1287 233.667 71.7214 233.666L189.037 233.493C197.475 233.479 204.345 243.454 204.353 255.726C204.361 267.999 197.502 277.995 189.064 278.007L71.7489 278.181C71.1561 278.181 70.672 277.436 70.672 276.516C70.672 275.597 71.1535 274.855 71.7475 274.853Z" fill="#21111D"/>
<path d="M111.828 272.078C111.828 272.078 114.107 248.644 118.55 247.326L107.071 247.342C107.071 247.342 103.383 261.6 105.52 272.087L108.518 264.9C108.518 264.9 110.569 268.705 111.828 272.078Z" fill="#4CB7D8"/>
<path d="M196.166 247.687C196.337 247.687 196.474 247.473 196.474 247.21C196.474 246.947 196.335 246.734 196.166 246.736L76.055 246.913C75.8849 246.913 75.7476 247.127 75.7476 247.39C75.7476 247.654 75.8784 247.865 76.055 247.865L196.166 247.687Z" fill="#AAC9F8"/>
<path d="M236.77 232.508H188.218V233.552H236.77V232.508Z" fill="#1D1D1B"/>
<path d="M240.672 277C239.249 277.619 237.747 277.945 236.231 277.965L188.213 278.036V279.08L236.231 279.01C237.812 278.995 239.378 278.654 240.859 278.002C246.806 275.538 249.566 269.602 250.834 265.066C251.675 262.048 252.124 258.898 252.163 255.722L251.49 255.743C251.44 258.784 251.006 261.8 250.203 264.691C248.445 270.96 245.238 275.101 240.672 277Z" fill="#1D1D1B"/>
<path d="M80.018 192.143L197.333 192.317C198.097 192.317 198.718 191.359 198.719 190.176C198.72 188.993 198.1 188.034 197.336 188.032L80.0206 187.858C71.4139 187.846 64.4048 198.033 64.397 210.567C64.3891 223.101 71.3852 233.312 79.9931 233.324L197.308 233.498C198.073 233.498 198.693 232.542 198.693 231.359C198.693 230.176 198.075 229.215 197.311 229.215L79.9958 229.041C72.9134 229.03 67.1577 220.745 67.1643 210.572C67.1708 200.399 72.9369 192.132 80.018 192.143Z" fill="#4CB7D8"/>
<path d="M86.9474 189.124C86.6478 189.124 71.8628 192.682 71.8628 192.682L66.6672 201.572L66.0745 214.49L70.1698 228.228L81.9519 231.189H122.112L113.785 221.357L113.401 205.21L122.821 189.251L86.9474 189.124Z" fill="#4CB7D8"/>
<path d="M123.89 191.123L115.87 197.591L113.408 208.307L113.401 221.272L122.227 229.757L132.247 231.182L240.833 229.933C236.105 213.284 241.767 191.291 241.767 191.291L123.89 191.123Z" fill="white"/>
<path d="M127.185 192.143L244.5 192.317C245.264 192.317 245.884 191.359 245.884 190.176C245.884 188.993 245.267 188.034 244.503 188.032L127.187 187.858C118.579 187.846 111.572 198.033 111.564 210.567C111.556 223.101 118.552 233.31 127.159 233.324L244.474 233.498C245.238 233.498 245.858 232.542 245.86 231.359C245.861 230.176 245.241 229.215 244.477 229.215L127.161 229.041C120.08 229.03 114.324 220.745 114.33 210.572C114.335 200.399 120.102 192.132 127.185 192.143Z" fill="#4CB7D8"/>
<path d="M240.161 211.236C240.33 211.236 240.469 211.023 240.469 210.76C240.469 210.496 240.331 210.284 240.161 210.282L182.592 210.198C182.422 210.198 182.284 210.41 182.284 210.674C182.284 210.937 182.415 211.149 182.592 211.149L240.161 211.236Z" fill="#AAC9F8"/>
<path d="M174.481 211.134C174.651 211.134 174.788 210.921 174.788 210.66C174.788 210.398 174.657 210.182 174.482 210.182L118.549 210.099C118.379 210.099 118.242 210.312 118.242 210.575C118.242 210.838 118.373 211.051 118.549 211.052L174.481 211.134Z" fill="#AAC9F8"/>
<path d="M148.745 219.627C148.915 219.627 149.052 219.415 149.052 219.151C149.052 218.888 148.921 218.675 148.745 218.675L120.047 218.632C119.877 218.632 119.74 218.845 119.74 219.108C119.74 219.372 119.877 219.584 120.047 219.586L148.745 219.627Z" fill="#AAC9F8"/>
<path d="M240.156 219.758C240.325 219.758 240.464 219.546 240.464 219.282C240.464 219.019 240.333 218.806 240.156 218.806L152.952 218.68C152.782 218.68 152.645 218.893 152.645 219.156C152.645 219.419 152.776 219.632 152.952 219.632L240.156 219.758Z" fill="#AAC9F8"/>
<path d="M244.5 191.839C244.33 191.839 244.192 192.052 244.192 192.315C244.192 192.579 244.33 192.791 244.499 192.793C245.432 192.793 246.19 191.619 246.192 190.175C246.193 188.73 245.435 187.557 244.503 187.557L127.187 187.383C118.41 187.369 111.264 197.77 111.256 210.567C111.248 223.365 118.382 233.787 127.158 233.8L244.474 233.974C245.407 233.974 246.166 232.802 246.167 231.356C246.168 229.91 245.409 228.738 244.476 228.738C244.308 228.738 244.169 228.95 244.169 229.214C244.169 229.477 244.3 229.689 244.476 229.691C245.069 229.691 245.552 230.439 245.552 231.357C245.552 232.275 245.068 233.024 244.474 233.022L127.158 232.848C118.721 232.836 111.863 222.838 111.871 210.569C111.879 198.3 118.748 188.322 127.186 188.342L244.503 188.516C245.095 188.516 245.578 189.264 245.577 190.184C245.575 191.103 245.093 191.841 244.5 191.839Z" fill="#21111D"/>
<path d="M207.706 219.736L210.704 226.924C212.841 216.436 209.154 202.18 209.154 202.18L197.674 202.164C202.122 203.482 204.395 226.914 204.395 226.914C205.654 223.542 207.706 219.736 207.706 219.736Z" fill="#FEC786"/>
<path d="M240.167 202.702C240.335 202.702 240.474 202.49 240.474 202.227C240.474 201.963 240.337 201.751 240.167 201.749L120.055 201.572C119.885 201.572 119.748 201.785 119.748 202.048C119.748 202.311 119.879 202.524 120.055 202.524L240.167 202.702Z" fill="#AAC9F8"/>
<path d="M128.006 187.344H79.4541V188.388H128.006V187.344Z" fill="#1D1D1B"/>
<path d="M64.0608 210.558C64.1 213.734 64.5482 216.885 65.3901 219.903C66.6567 224.44 69.4187 230.375 75.3641 232.839C76.8448 233.49 78.4111 233.831 79.9919 233.846L128.01 233.918V232.874L79.9919 232.802C78.473 232.782 76.9683 232.456 75.5433 231.836C70.9783 229.937 67.7714 225.796 66.0116 219.526C65.2096 216.634 64.7766 213.619 64.7268 210.578L64.0608 210.558Z" fill="#1D1D1B"/>
<path d="M80.018 101.401L197.333 101.575C198.097 101.575 198.718 100.617 198.719 99.4347C198.72 98.252 198.1 97.2926 197.336 97.291L80.0206 97.117C71.4139 97.1047 64.4048 107.292 64.397 119.826C64.3891 132.36 71.3852 142.57 79.9931 142.582L197.307 142.758C198.071 142.758 198.691 141.802 198.691 140.619C198.691 139.436 198.074 138.475 197.31 138.475L79.9958 138.3C72.9134 138.289 67.1577 130.004 67.1643 119.83C67.1708 109.657 72.9369 101.391 80.018 101.401Z" fill="#7FC6A6"/>
<path d="M86.9474 98.3829C86.6478 98.3829 71.8628 101.94 71.8628 101.94L66.6672 110.831L66.0745 123.748L70.1763 137.487L81.9519 140.448H122.112L113.785 130.615L113.401 114.468L122.821 98.5092L86.9474 98.3829Z" fill="#7FC6A6"/>
<path d="M123.89 100.382L115.87 106.85L113.408 117.565L113.401 130.53L122.227 139.016L132.247 140.44L240.833 139.191C236.105 122.55 241.767 100.562 241.767 100.562L123.89 100.382Z" fill="white"/>
<path d="M127.185 101.401L244.5 101.575C245.264 101.575 245.884 100.617 245.884 99.4347C245.884 98.252 245.267 97.2926 244.503 97.291L127.187 97.117C118.579 97.1047 111.572 107.292 111.564 119.826C111.556 132.36 118.552 142.57 127.159 142.582L244.474 142.758C245.238 142.758 245.858 141.802 245.86 140.619C245.861 139.436 245.241 138.475 244.477 138.475L127.161 138.301C120.08 138.29 114.324 130.005 114.33 119.832C114.335 109.659 120.102 101.391 127.185 101.401Z" fill="#7FC6A6"/>
<path d="M240.161 120.494C240.33 120.494 240.469 120.282 240.469 120.018C240.469 119.755 240.331 119.543 240.161 119.541L182.592 119.456C182.422 119.456 182.284 119.669 182.284 119.932C182.284 120.195 182.415 120.408 182.592 120.408L240.161 120.494Z" fill="#AAC9F8"/>
<path d="M174.481 120.396C174.651 120.396 174.788 120.183 174.788 119.921C174.788 119.66 174.657 119.444 174.482 119.444L118.549 119.361C118.379 119.361 118.242 119.573 118.242 119.837C118.242 120.1 118.373 120.312 118.549 120.312L174.481 120.396Z" fill="#AAC9F8"/>
<path d="M148.745 128.886C148.915 128.886 149.052 128.673 149.052 128.41C149.052 128.147 148.921 127.934 148.745 127.934L120.047 127.891C119.877 127.891 119.74 128.103 119.74 128.367C119.74 128.63 119.877 128.843 120.047 128.844L148.745 128.886Z" fill="#AAC9F8"/>
<path d="M240.156 129.021C240.325 129.021 240.464 128.809 240.464 128.545C240.464 128.282 240.333 128.069 240.156 128.069L152.952 127.94C152.782 127.94 152.645 128.153 152.645 128.416C152.645 128.679 152.776 128.892 152.952 128.892L240.156 129.021Z" fill="#AAC9F8"/>
<path d="M244.5 101.098C244.33 101.098 244.192 101.31 244.192 101.574C244.192 101.837 244.33 102.05 244.499 102.051C245.432 102.051 246.19 100.878 246.192 99.4332C246.193 97.9887 245.435 96.8152 244.503 96.8152L127.187 96.6412C118.41 96.6273 111.264 107.03 111.256 119.826C111.248 132.622 118.382 143.046 127.158 143.066L244.474 143.24C245.407 143.24 246.166 142.068 246.167 140.622C246.168 139.176 245.409 138.004 244.476 138.004C244.308 138.004 244.169 138.217 244.169 138.48C244.169 138.743 244.3 138.956 244.476 138.957C245.069 138.957 245.552 139.706 245.552 140.624C245.552 141.541 245.068 142.29 244.474 142.288L127.158 142.114C118.721 142.102 111.863 132.104 111.871 119.835C111.879 107.566 118.748 97.5883 127.186 97.6006L244.503 97.7746C245.095 97.7746 245.578 98.5231 245.577 99.4424C245.575 100.362 245.093 101.099 244.5 101.098Z" fill="#21111D"/>
<path d="M219.575 128.995L222.573 136.182C224.709 125.695 221.022 111.439 221.022 111.439L209.542 111.422C213.991 112.74 216.264 136.173 216.264 136.173C217.523 132.8 219.575 128.995 219.575 128.995Z" fill="#FEC786"/>
<path d="M240.167 111.958C240.335 111.958 240.474 111.745 240.474 111.482C240.474 111.219 240.337 111.006 240.167 111.005L120.055 110.828C119.885 110.828 119.748 111.04 119.748 111.304C119.748 111.567 119.879 111.779 120.055 111.779L240.167 111.958Z" fill="#AAC9F8"/>
<path d="M128.006 96.6027H79.4541V97.6468H128.006V96.6027Z" fill="#1D1D1B"/>
<path d="M64.0608 119.812C64.1 122.988 64.5482 126.139 65.3901 129.157C66.6567 133.694 69.4187 139.621 75.3641 142.093C76.8448 142.744 78.4111 143.085 79.9919 143.1L128.01 143.172V142.128L79.9919 142.056C78.473 142.036 76.9683 141.71 75.5433 141.09C70.9862 139.196 67.7753 135.058 66.0195 128.784C65.2175 125.893 64.7845 122.878 64.7346 119.837L64.0608 119.812Z" fill="#1D1D1B"/>
<path d="M240.125 183.876L122.809 184.05C122.045 184.05 121.426 185.011 121.428 186.194C121.429 187.376 122.048 188.334 122.812 188.334L240.127 188.16C248.735 188.146 255.731 177.939 255.724 165.404C255.716 152.868 248.707 142.681 240.1 142.693L122.785 142.867C122.02 142.867 121.402 143.828 121.402 145.011C121.402 146.194 122.023 147.153 122.787 147.152L240.103 146.978C247.184 146.967 252.95 155.235 252.956 165.407C252.963 175.578 247.207 183.867 240.125 183.876Z" fill="#FFB357"/>
<path d="M198.009 186.032H238.169L249.944 183.069L254.046 169.331L253.447 156.413L248.252 147.523C248.252 147.523 233.468 143.965 233.167 143.965L197.292 144.093L206.712 160.051L206.335 176.195L198.009 186.032Z" fill="#FFB357"/>
<path d="M187.875 186.032L197.895 184.606L206.721 176.121L206.712 163.155L204.251 152.442L196.23 145.966L78.3538 146.14C78.3538 146.14 84.0152 168.133 79.288 184.783L187.875 186.032Z" fill="white"/>
<path d="M192.96 183.876L75.6442 184.05C74.8801 184.05 74.2612 185.011 74.2612 186.194C74.2612 187.376 74.8827 188.334 75.6468 188.334L192.962 188.16C201.569 188.146 208.565 177.939 208.558 165.404C208.552 152.868 201.541 142.681 192.935 142.693L75.618 142.867C74.8539 142.867 74.235 143.828 74.2363 145.011C74.2376 146.194 74.8565 147.153 75.6206 147.152L192.937 146.978C200.018 146.967 205.784 155.235 205.791 165.407C205.798 175.578 200.041 183.867 192.96 183.876Z" fill="#FFB357"/>
<path d="M137.532 165.986C137.702 165.986 137.839 165.773 137.839 165.51C137.839 165.247 137.708 165.034 137.532 165.034L79.9618 165.12C79.7917 165.12 79.6543 165.333 79.6543 165.596C79.6543 165.86 79.793 166.072 79.9631 166.072L137.532 165.986Z" fill="#AAC9F8"/>
<path d="M201.571 165.892C201.741 165.892 201.879 165.678 201.879 165.416C201.879 165.154 201.748 164.94 201.571 164.94L145.638 165.023C145.47 165.023 145.332 165.236 145.332 165.499C145.332 165.763 145.463 165.975 145.64 165.975L201.571 165.892Z" fill="#AAC9F8"/>
<path d="M200.075 174.422C200.243 174.422 200.381 174.208 200.381 173.946C200.381 173.684 200.25 173.47 200.073 173.47L171.376 173.512C171.206 173.512 171.069 173.726 171.069 173.989C171.069 174.253 171.199 174.465 171.376 174.465L200.075 174.422Z" fill="#AAC9F8"/>
<path d="M167.166 174.471C167.336 174.471 167.473 174.257 167.473 173.994C167.473 173.731 167.342 173.518 167.166 173.518L79.9645 173.647C79.7944 173.647 79.657 173.861 79.657 174.125C79.657 174.388 79.7957 174.601 79.9658 174.601L167.166 174.471Z" fill="#AAC9F8"/>
<path d="M75.644 184.527C75.8141 184.527 75.9515 184.313 75.9515 184.052C75.9515 183.79 75.8207 183.576 75.644 183.576C74.7111 183.576 73.9536 184.752 73.9549 186.194C73.9562 187.635 74.7137 188.812 75.6466 188.812L192.962 188.638C201.739 188.624 208.873 178.203 208.866 165.404C208.858 152.605 201.71 142.207 192.933 142.219L75.6179 142.393C74.685 142.393 73.9274 143.57 73.9287 145.011C73.93 146.452 74.6889 147.629 75.6218 147.629C75.7919 147.629 75.9293 147.415 75.9279 147.153C75.9266 146.891 75.7971 146.677 75.6205 146.677C75.0278 146.677 74.545 145.93 74.5437 145.013C74.5423 144.095 75.0252 143.346 75.6192 143.345L192.934 143.171C201.372 143.158 208.243 153.133 208.251 165.405C208.259 177.678 201.4 187.672 192.962 187.686L75.6466 187.86C75.0526 187.86 74.5698 187.113 74.5698 186.195C74.5698 185.277 75.0513 184.529 75.644 184.527Z" fill="#21111D"/>
<path d="M122.949 181.752C122.949 181.752 125.227 158.312 129.671 157L118.191 157.017C118.191 157.017 114.505 171.273 116.64 181.762L119.639 174.574C119.639 174.574 121.691 178.378 122.949 181.752Z" fill="#FFB357"/>
<path d="M200.063 157.36C200.233 157.36 200.37 157.148 200.37 156.884C200.37 156.621 200.233 156.409 200.063 156.409L79.9513 156.587C79.7812 156.587 79.6438 156.8 79.6438 157.063C79.6438 157.326 79.7825 157.539 79.9526 157.539L200.063 157.36Z" fill="#AAC9F8"/>
<path d="M240.666 142.181H192.114V143.225H240.666V142.181Z" fill="#1D1D1B"/>
<path d="M244.569 186.674C243.144 187.293 241.64 187.62 240.121 187.64L192.102 187.711V188.755L240.121 188.684C241.701 188.668 243.267 188.327 244.749 187.677C250.695 185.204 253.456 179.276 254.722 174.741C255.564 171.723 256.012 168.572 256.053 165.396L255.378 165.416C255.329 168.457 254.896 171.472 254.093 174.363C252.341 180.633 249.134 184.775 244.569 186.674Z" fill="#1D1D1B"/>
<path d="M274.426 162.749C274.033 158.478 298.737 151.31 300.88 147.874C302.244 145.689 322.494 145.282 325.966 139.482L325.659 138.899L328.863 134.644L329.435 133.684L329.485 133.817L329.547 133.734L350.825 136.264C353.165 136.543 355.356 137.75 357.037 139.688C358.718 141.626 359.789 144.178 360.075 146.927C360.57 151.682 360.356 165.396 360.15 171.042C360.043 173.824 359.132 176.48 357.568 178.57C356.003 180.66 353.879 182.057 351.547 182.532C351.547 182.532 327.771 193.466 326.007 194.869C322.867 197.362 311.109 198.33 311.109 198.33C311.109 198.33 274.824 167.021 274.426 162.749Z" fill="#FE9F73"/>
<path d="M331.419 166.261C331.446 166.212 331.461 166.153 331.462 166.094C331.462 166.011 331.435 165.931 331.386 165.871C331.337 165.811 331.271 165.777 331.2 165.775C331.17 165.775 328.098 165.721 323.331 163.754C318.932 161.939 312.148 158.075 304.815 149.978C304.763 149.92 304.693 149.889 304.622 149.892C304.551 149.895 304.483 149.931 304.435 149.992C304.386 150.053 304.36 150.135 304.362 150.219C304.365 150.303 304.395 150.382 304.447 150.44C311.861 158.625 318.727 162.53 323.183 164.364C328.025 166.357 331.069 166.408 331.196 166.408C331.241 166.408 331.285 166.394 331.323 166.369C331.362 166.343 331.395 166.306 331.419 166.261Z" fill="black"/>
<path d="M351.727 182.721C351.742 182.673 351.745 182.621 351.735 182.572C351.726 182.522 351.704 182.477 351.673 182.441C351.641 182.406 351.602 182.382 351.56 182.372C351.517 182.363 351.473 182.368 351.433 182.387L326.585 194.18C326.557 194.192 326.532 194.211 326.51 194.235C326.488 194.259 326.471 194.288 326.458 194.321C326.446 194.353 326.44 194.388 326.439 194.423C326.439 194.458 326.445 194.493 326.456 194.526C326.467 194.558 326.484 194.588 326.505 194.613C326.526 194.638 326.551 194.657 326.579 194.671C326.606 194.684 326.636 194.691 326.666 194.69C326.696 194.69 326.725 194.682 326.753 194.668L351.601 182.875C351.63 182.861 351.656 182.84 351.678 182.814C351.7 182.787 351.717 182.756 351.727 182.721Z" fill="black"/>
<path d="M267.596 160.436L271.74 153.016L272.012 152.529L276.157 145.11L351.06 194.673C351.559 195.003 351.994 195.45 352.34 195.986C352.685 196.523 352.933 197.137 353.068 197.791C353.203 198.445 353.222 199.125 353.124 199.788C353.026 200.451 352.814 201.084 352.5 201.646L341.954 220.528C341.64 221.09 341.23 221.571 340.752 221.939C340.273 222.307 339.735 222.556 339.171 222.669C338.608 222.782 338.03 222.758 337.475 222.597C336.919 222.437 336.398 222.143 335.943 221.735L267.596 160.436Z" fill="#4CB7D8"/>
<path d="M277.751 146.099L268.46 162.728C268.305 163.007 268.104 163.246 267.87 163.433C267.636 163.62 267.373 163.751 267.095 163.819C266.818 163.886 266.533 163.889 266.255 163.826C265.977 163.763 265.712 163.637 265.475 163.454L258.163 157.794L270.446 135.809L276.809 140.734C277.538 141.299 278.047 142.181 278.224 143.187C278.401 144.193 278.231 145.24 277.751 146.099Z" fill="#6B769C"/>
<path d="M271.258 158.558L277.944 146.59C278.511 145.573 278.711 144.333 278.502 143.143C278.293 141.952 277.692 140.908 276.829 140.239L270.664 135.465L270.256 136.196L276.421 140.97C277.119 141.512 277.606 142.357 277.775 143.32C277.944 144.284 277.781 145.287 277.323 146.109L270.637 158.078L271.258 158.558Z" fill="#21111D"/>
<g style="mix-blend-mode:multiply">
<g style="mix-blend-mode:multiply">
<path d="M207.064 159.838C228.497 176.734 258.495 166.588 268.229 136.41C270.922 128.018 271.533 118.899 269.991 110.114C268.449 101.329 264.817 93.2412 259.519 86.7929C240.416 63.6282 209.462 68.3129 195.474 93.8153C183.438 115.756 188.632 145.308 207.064 159.838Z" fill="#D4EEF4"/>
</g>
</g>
<path d="M205.559 140.002C209.523 139.039 211.347 130.337 209.633 120.567C207.918 110.796 203.314 103.657 199.35 104.621C195.386 105.585 193.562 114.286 195.276 124.057C196.991 133.827 201.594 140.966 205.559 140.002Z" fill="#F3FFFE"/>
<path d="M277.841 145.973L277.478 146.736L351.889 195.765L352.252 195.002L277.841 145.973Z" fill="#21111D"/>
<path d="M222.833 79.0651L222.777 78.1935C222.684 78.2012 213.407 79.1175 207.041 86.4864L207.564 87.1024C213.73 79.9676 222.743 79.0744 222.833 79.0651Z" fill="#21111D"/>
<path d="M225.374 84.3088L225.316 83.4372C225.223 83.4449 215.948 84.3612 209.58 91.7301L210.103 92.3538C216.271 85.2113 225.284 84.3181 225.374 84.3088Z" fill="#21111D"/>
<path d="M263.949 146.308C251.551 168.501 226.216 174.662 207.361 160.071C188.506 145.479 183.271 115.654 195.668 93.4657C208.065 71.2774 233.401 65.1112 252.26 79.7027C271.12 94.2942 276.347 124.115 263.949 146.308ZM255.827 73.3117C233.977 56.3979 204.608 63.5404 190.239 89.2615C175.87 114.983 181.937 149.546 203.79 166.459C225.643 183.371 255.009 176.23 269.378 150.509C283.747 124.788 277.68 90.2255 255.827 73.3132V73.3117Z" fill="#424960"/>
<path d="M269.69 150.751C284.147 124.868 278.021 89.9653 256.031 72.9467C234.041 55.9282 204.387 63.14 189.928 89.0228C183.163 101.089 180.63 115.771 182.863 129.987L183.593 129.833C181.399 115.838 183.894 101.388 190.555 89.511C204.789 64.0317 233.981 56.9323 255.628 73.6859C277.276 90.4396 283.307 124.799 269.073 150.278C262.507 162.066 252.351 170.444 240.695 173.686L240.867 174.536C252.706 171.24 263.022 162.728 269.69 150.751Z" fill="#21111D"/>
<path d="M296.317 146.687L311.709 151.904L335.736 134.365C335.736 134.365 314.919 126.049 310.903 126.931C306.886 127.814 299.05 130.302 294.849 130.344C290.647 130.386 286.883 134.93 282.533 137.989C278.182 141.047 272.892 137.85 272.782 142.422C272.672 146.995 279.133 153.161 285.333 150.892C291.532 148.624 296.317 146.687 296.317 146.687Z" fill="#FE9F73"/>
<path d="M336.894 134.866C336.912 134.799 336.908 134.727 336.881 134.665C336.854 134.602 336.808 134.555 336.752 134.533C336.664 134.499 327.793 131.036 319.7 128.373C312.568 126.029 310.666 126.577 307.514 127.483C307.027 127.623 306.525 127.768 305.966 127.912C303.83 128.464 301.387 128.847 299.032 129.217C296.836 129.56 294.762 129.887 293.226 130.31C290.07 131.18 283.587 137.026 283.314 137.274C283.289 137.294 283.268 137.32 283.252 137.351C283.236 137.381 283.225 137.415 283.22 137.45C283.216 137.485 283.217 137.521 283.225 137.555C283.232 137.59 283.246 137.622 283.264 137.651C283.282 137.679 283.306 137.702 283.332 137.72C283.358 137.737 283.387 137.748 283.418 137.752C283.448 137.756 283.478 137.753 283.507 137.742C283.536 137.732 283.563 137.714 283.586 137.691C283.653 137.631 290.267 131.667 293.328 130.823C294.843 130.404 296.907 130.081 299.085 129.745C301.455 129.374 303.905 128.989 306.06 128.433C306.626 128.287 307.129 128.142 307.619 128C310.699 127.115 312.559 126.579 319.579 128.886C327.661 131.541 336.521 134.999 336.61 135.033C336.638 135.045 336.668 135.049 336.697 135.047C336.727 135.045 336.756 135.035 336.782 135.02C336.809 135.004 336.832 134.982 336.851 134.956C336.871 134.929 336.885 134.899 336.894 134.866Z" fill="black"/>
<path d="M296.505 146.762C296.519 146.715 296.522 146.665 296.513 146.617C296.504 146.569 296.484 146.524 296.455 146.489C296.425 146.454 296.388 146.429 296.347 146.417C296.307 146.405 296.264 146.408 296.224 146.423L291.702 148.22C283.231 152.474 279.224 150.415 279.185 150.393C275.826 148.684 274.302 146.5 273.613 144.969C272.872 143.315 272.916 142.043 272.916 142.033C272.916 141.965 272.894 141.901 272.854 141.852C272.815 141.803 272.761 141.774 272.704 141.77C272.647 141.767 272.591 141.789 272.547 141.833C272.504 141.876 272.476 141.938 272.47 142.005C272.47 142.062 272.414 143.406 273.203 145.18C273.921 146.797 275.511 149.097 279.001 150.878C279.164 150.968 283.188 153.068 291.87 148.713L296.367 146.927C296.399 146.913 296.428 146.892 296.452 146.863C296.476 146.835 296.494 146.8 296.505 146.762Z" fill="black"/>
<path d="M274.12 143.446C273.91 142.392 273.779 141.319 273.727 140.239C275.267 139.184 278.437 140.04 281.42 138.631C281.42 138.631 281.647 140.491 281.159 142.074C280.671 143.657 279.993 143.973 279.993 143.973L275.862 144.694C275.054 144.835 274.288 144.289 274.12 143.446Z" fill="#F07162"/>
<path d="M335.549 143.066C335.561 143.027 335.564 142.984 335.558 142.943C335.552 142.902 335.537 142.863 335.515 142.83C333.915 140.52 330.064 139.145 329.901 139.088C329.85 139.075 329.797 139.085 329.752 139.115C329.707 139.146 329.674 139.196 329.659 139.255C329.644 139.313 329.649 139.376 329.672 139.431C329.695 139.486 329.734 139.529 329.783 139.55C329.822 139.564 333.677 140.949 335.197 143.137C335.214 143.161 335.235 143.182 335.259 143.197C335.283 143.212 335.309 143.221 335.336 143.224C335.363 143.227 335.39 143.224 335.416 143.215C335.441 143.206 335.465 143.191 335.486 143.171C335.515 143.143 335.537 143.107 335.549 143.066Z" fill="black"/>
<path d="M335.887 146.379C335.896 146.347 335.9 146.314 335.899 146.281C335.897 146.248 335.89 146.216 335.878 146.186C334.737 143.533 331.23 141.204 331.081 141.104C331.034 141.075 330.979 141.069 330.928 141.088C330.877 141.106 330.834 141.146 330.808 141.201C330.782 141.256 330.775 141.32 330.788 141.381C330.802 141.442 330.835 141.494 330.881 141.526C330.916 141.549 334.427 143.881 335.511 146.403C335.536 146.46 335.579 146.504 335.631 146.524C335.682 146.544 335.739 146.538 335.787 146.509C335.833 146.482 335.869 146.435 335.887 146.379Z" fill="black"/>
<path d="M292.942 138.455C292.957 138.406 292.959 138.352 292.949 138.301C292.432 135.794 292.721 132.72 292.724 132.689C292.73 132.62 292.713 132.55 292.676 132.496C292.639 132.441 292.585 132.406 292.526 132.398C292.467 132.391 292.408 132.411 292.362 132.454C292.315 132.498 292.286 132.562 292.279 132.631C292.267 132.76 291.979 135.828 292.514 138.426C292.526 138.481 292.552 138.53 292.589 138.566C292.626 138.603 292.672 138.624 292.72 138.627C292.768 138.63 292.815 138.615 292.855 138.584C292.895 138.553 292.926 138.507 292.942 138.454V138.455Z" fill="black"/>
<path d="M294.83 137.585C294.846 137.536 294.849 137.482 294.838 137.431C294.315 134.922 294.609 131.85 294.612 131.819C294.615 131.753 294.596 131.687 294.559 131.636C294.522 131.585 294.47 131.553 294.414 131.545C294.358 131.538 294.301 131.555 294.255 131.595C294.21 131.635 294.179 131.694 294.168 131.759C294.155 131.889 293.867 134.956 294.404 137.554C294.415 137.61 294.441 137.659 294.477 137.696C294.514 137.732 294.56 137.754 294.608 137.757C294.656 137.76 294.704 137.744 294.744 137.713C294.784 137.681 294.814 137.636 294.83 137.582V137.585Z" fill="black"/>
<path d="M277.905 188.625C280.421 191.859 284.031 192.611 285.77 190.718L303.826 171.534C305.982 169.243 306.248 165.157 304.248 162.251C302.058 159.067 298.243 158.538 295.918 161.009L278.261 179.769C276.131 182.031 275.887 185.906 277.773 188.451C277.82 188.51 277.863 188.567 277.905 188.625Z" fill="#FE9F73"/>
<path d="M287.849 196.097C290.316 199.378 293.953 200.135 294.537 199.541L314.089 179.629C316.286 177.391 316.618 173.315 314.663 170.372C312.521 167.138 308.709 166.522 306.34 168.943L287.63 188.676C287.168 189.166 286.646 190.145 286.525 190.865C286.315 192.109 286.339 194.095 287.849 196.097Z" fill="#FE9F73"/>
<path d="M299.449 200.662C301.383 203.289 303.98 204.098 306.122 202.09L320.416 187.905C322.177 186.157 322.474 182.934 320.94 180.577C319.265 177.996 316.242 177.468 314.343 179.353L298.849 195.138C298.58 195.408 298.396 195.776 298.325 196.184C298.171 197.12 298.13 198.877 299.449 200.662Z" fill="#FE9F73"/>
<path d="M272.03 177.842C274.108 180.51 276.356 181.474 277.59 180.565L293.432 163.731C295.212 161.84 295.431 158.466 293.781 156.067C291.971 153.438 288.822 153.001 286.903 155.041L272.242 170.617C271.443 171.461 270.944 172.63 270.847 173.889C270.75 175.148 271.061 176.404 271.719 177.403C271.81 177.55 271.916 177.696 272.03 177.842Z" fill="#FE9F73"/>
<path d="M314.884 170.544C314.915 170.489 314.93 170.424 314.927 170.359C314.925 170.293 314.905 170.23 314.871 170.178C314.327 169.347 313.646 168.654 312.868 168.14C312.091 167.627 311.233 167.304 310.347 167.19C309.598 167.092 308.84 167.176 308.12 167.437C307.4 167.697 306.733 168.128 306.16 168.704L291.365 184.403C291.334 184.429 291.308 184.462 291.289 184.501C291.27 184.539 291.258 184.582 291.254 184.627C291.25 184.671 291.254 184.716 291.266 184.759C291.278 184.801 291.297 184.84 291.323 184.873C291.348 184.906 291.38 184.932 291.415 184.95C291.449 184.967 291.487 184.976 291.525 184.975C291.563 184.974 291.6 184.964 291.635 184.945C291.669 184.926 291.7 184.899 291.724 184.865L306.516 169.169C307.033 168.651 307.636 168.263 308.286 168.03C308.936 167.797 309.619 167.722 310.294 167.812C311.108 167.917 311.896 168.214 312.61 168.686C313.323 169.158 313.949 169.795 314.447 170.56C314.469 170.592 314.496 170.62 314.527 170.64C314.557 170.66 314.591 170.674 314.626 170.679C314.661 170.684 314.697 170.68 314.731 170.669C314.765 170.658 314.796 170.639 314.824 170.614C314.847 170.594 314.868 170.571 314.884 170.544Z" fill="black"/>
<path d="M297.561 196.858C297.607 196.796 297.63 196.714 297.626 196.632C297.621 196.549 297.588 196.472 297.535 196.418C297.482 196.363 297.413 196.336 297.342 196.342C297.272 196.348 297.207 196.386 297.161 196.449L294.896 198.759C293.627 200.012 290.424 199.054 288.045 195.893C288.022 195.862 287.993 195.836 287.962 195.818C287.93 195.8 287.896 195.789 287.86 195.787C287.825 195.784 287.79 195.79 287.757 195.804C287.723 195.817 287.693 195.838 287.666 195.866C287.64 195.893 287.618 195.927 287.603 195.964C287.588 196.001 287.579 196.042 287.576 196.083C287.574 196.124 287.579 196.166 287.591 196.205C287.602 196.244 287.62 196.28 287.643 196.312C290.297 199.84 293.779 200.685 295.244 199.238L297.511 196.928C297.531 196.907 297.548 196.884 297.561 196.858Z" fill="black"/>
<path d="M321.169 180.754C321.199 180.7 321.214 180.636 321.212 180.571C321.21 180.506 321.19 180.443 321.155 180.393C320.726 179.72 320.185 179.158 319.565 178.738C318.946 178.318 318.26 178.05 317.551 177.95C316.95 177.863 316.34 177.921 315.759 178.122C315.178 178.323 314.638 178.661 314.172 179.117L298.676 194.905C298.622 194.96 298.589 195.038 298.584 195.121C298.579 195.205 298.602 195.287 298.648 195.351C298.695 195.414 298.761 195.453 298.832 195.459C298.903 195.465 298.973 195.438 299.026 195.383L314.521 179.598C314.93 179.198 315.406 178.902 315.917 178.726C316.428 178.551 316.964 178.501 317.492 178.578C318.129 178.669 318.745 178.911 319.301 179.288C319.857 179.666 320.343 180.172 320.729 180.776C320.75 180.809 320.777 180.837 320.808 180.858C320.838 180.878 320.872 180.892 320.907 180.897C320.942 180.903 320.978 180.9 321.012 180.889C321.046 180.878 321.078 180.86 321.106 180.835C321.131 180.812 321.152 180.785 321.169 180.754Z" fill="black"/>
<path d="M294.41 162.86C295.544 160.791 295.426 157.956 293.989 155.868C293.967 155.836 293.94 155.809 293.909 155.789C293.878 155.769 293.844 155.757 293.809 155.753C293.774 155.748 293.738 155.752 293.704 155.764C293.671 155.776 293.639 155.795 293.612 155.821C293.584 155.847 293.561 155.879 293.545 155.916C293.528 155.952 293.517 155.992 293.514 156.033C293.51 156.075 293.513 156.116 293.523 156.156C293.533 156.196 293.55 156.233 293.572 156.265C295.108 158.498 294.968 161.674 293.253 163.503L283.816 173.529C283.775 173.587 283.753 173.662 283.754 173.738C283.755 173.815 283.78 173.888 283.824 173.944C283.868 174.001 283.927 174.036 283.992 174.045C284.056 174.053 284.121 174.034 284.175 173.991L293.612 163.964C293.919 163.639 294.187 163.268 294.41 162.86Z" fill="black"/>
<path d="M277.815 180.736C277.848 180.676 277.862 180.604 277.856 180.532C277.85 180.461 277.823 180.394 277.78 180.343C277.737 180.292 277.681 180.259 277.62 180.251C277.56 180.243 277.499 180.259 277.447 180.297C276.269 181.163 274.126 180.066 272.228 177.628C272.178 177.574 272.113 177.543 272.045 177.543C271.977 177.542 271.912 177.573 271.862 177.627C271.812 177.681 271.782 177.756 271.777 177.835C271.772 177.915 271.793 177.994 271.835 178.056C273.944 180.764 276.315 181.879 277.733 180.828C277.766 180.805 277.794 180.773 277.815 180.736Z" fill="black"/>
<path d="M305.76 165.772C305.792 165.71 305.807 165.638 305.8 165.565C305.514 162.512 302.986 159.951 300.806 159.328C298.889 158.782 296.807 159.636 295.741 160.773C294.825 161.742 291.112 165.769 291.075 165.81C291.029 165.869 291.003 165.945 291.003 166.025C291.002 166.105 291.028 166.182 291.074 166.241C291.12 166.3 291.184 166.335 291.251 166.341C291.319 166.347 291.386 166.322 291.439 166.272C291.476 166.231 295.193 162.205 296.101 161.24C297.039 160.243 298.962 159.449 300.68 159.94C302.36 160.419 304.98 162.558 305.268 165.638C305.273 165.703 305.296 165.765 305.333 165.814C305.37 165.863 305.419 165.898 305.473 165.913C305.527 165.928 305.584 165.923 305.636 165.898C305.687 165.873 305.731 165.83 305.761 165.775L305.76 165.772Z" fill="black"/>
<path d="M286 190.889C286.035 190.825 286.05 190.749 286.041 190.673C286.032 190.598 286.001 190.529 285.952 190.478C285.903 190.428 285.841 190.401 285.776 190.401C285.711 190.401 285.648 190.428 285.6 190.478C283.729 192.363 280.655 190.94 279.046 189.528C279.018 189.503 278.985 189.485 278.951 189.475C278.917 189.465 278.882 189.463 278.847 189.469C278.812 189.475 278.778 189.489 278.748 189.51C278.718 189.531 278.691 189.559 278.67 189.593C278.649 189.626 278.634 189.664 278.625 189.704C278.617 189.744 278.615 189.786 278.62 189.827C278.625 189.868 278.637 189.907 278.655 189.943C278.673 189.979 278.697 190.01 278.725 190.035C280.472 191.575 283.839 193.085 285.949 190.959C285.968 190.938 285.986 190.915 286 190.889Z" fill="black"/>
<path d="M290.114 164.859L293.385 161.173C294.039 160.445 293.853 157.915 292.692 156.47C291.532 155.026 289.397 154.662 288.742 155.392L285.471 159.077C284.992 159.61 285.486 161.46 286.603 162.881C287.779 164.375 289.61 165.419 290.114 164.859Z" fill="#F07162"/>
<path d="M300.879 170.912L303.967 167.897C304.621 167.17 304.264 164.426 302.931 162.767C301.597 161.109 299.292 160.531 298.638 161.26L295.774 164.494C294.989 165.197 295.541 167.512 296.82 169.141C298.185 170.863 299.942 171.556 300.879 170.912Z" fill="#F07162"/>
<path d="M311.37 179.673L314.632 175.977C315.286 175.249 314.929 172.506 313.597 170.846C312.265 169.186 309.958 168.612 309.304 169.338L306.042 173.034C305.563 173.567 306.207 175.605 307.492 177.234C308.843 178.948 310.866 180.234 311.37 179.673Z" fill="#F07162"/>
<path d="M318.098 188.581L320.947 185.488C321.519 184.872 321.254 182.521 320.137 181.072C319.021 179.623 317.054 179.08 316.482 179.686L313.632 182.78C313.213 183.225 313.734 184.983 314.81 186.406C315.944 187.909 317.658 189.05 318.098 188.581Z" fill="#F07162"/>
</svg>
