<svg width="125" height="84" viewBox="0 0 125 84" fill="none" xmlns="http://www.w3.org/2000/svg">
<g clip-path="url(#clip0_58_1912)">
<path d="M51.6205 62.1548C52.2038 62.9637 53.1205 63.3705 54.3802 63.3705C55.64 63.3705 56.5272 62.9637 57.1252 62.1548C57.7183 61.3459 58.0173 60.3529 58.0173 59.1807C58.0173 58.5946 57.9438 58.0424 57.8017 57.5242C57.6595 57.0107 57.4389 56.5603 57.1448 56.1873C56.8507 55.8143 56.4684 55.514 56.0076 55.2912C55.5469 55.0684 55.0028 54.957 54.3851 54.957C53.1254 54.957 52.2088 55.3687 51.6254 56.1873C51.0421 57.0059 50.7529 58.0037 50.7529 59.1807C50.7529 60.3577 51.0421 61.3459 51.6254 62.1548H51.6205ZM46.2237 63.1235V62.983C45.7237 62.4212 45.3316 61.8206 45.0473 61.186C44.763 60.5515 44.6208 59.8831 44.6208 59.1807C44.6208 57.7712 44.8708 56.536 45.3708 55.4656C45.8708 54.4 46.5521 53.4942 47.4197 52.7531C48.2873 52.012 49.3118 51.455 50.498 51.082C51.6843 50.7042 52.9783 50.5201 54.3802 50.5201C55.7821 50.5201 57.0517 50.6945 58.2624 51.0481C59.4732 51.4017 60.5222 51.9393 61.4143 52.6659C62.3064 53.3925 63.0073 54.2982 63.5171 55.3735C64.0269 56.4537 64.2818 57.7179 64.2818 59.1759C64.2818 60.6338 64.0171 61.8981 63.4828 62.9782C62.9485 64.0584 62.228 64.9544 61.3309 65.6713C60.429 66.3882 59.38 66.921 58.1791 67.2746C56.9782 67.6282 55.7135 67.8026 54.3851 67.8026L36.1359 67.8316V68.2724C36.1359 70.7911 34.9447 72.8497 32.5625 74.453C30.5086 75.8577 28.0283 76.56 25.1167 76.56C21.9403 76.56 19.3081 75.7753 17.2199 74.206C15.1024 72.6027 14.0436 70.4133 14.0436 67.633V58.2749H18.7591V66.8483C18.7591 68.6793 19.5532 70.021 21.1413 70.8735C22.2344 71.4935 23.5432 71.8035 25.0628 71.8035C26.6852 71.8035 28.0724 71.4596 29.2342 70.7718C30.4253 70.0501 31.1213 69.0716 31.3174 67.8268H27.9891V63.1187H46.2237V63.1235Z" fill="#1A2E45"/>
<path d="M22.5628 84C21.9599 84 21.4403 83.782 20.9991 83.3509C20.5629 82.9198 20.3423 82.4016 20.3423 81.8058C20.3423 81.21 20.5629 80.7014 20.9991 80.2849C21.4354 79.8683 21.9599 79.66 22.5628 79.66C23.1657 79.66 23.6804 79.8683 24.1019 80.2849C24.2735 80.4544 24.4108 80.6384 24.5137 80.8419C24.6166 80.6433 24.7588 80.4592 24.9401 80.2849C25.3764 79.8683 25.9009 79.66 26.5038 79.66C27.1067 79.66 27.6214 79.8683 28.043 80.2849C28.4645 80.7014 28.6753 81.21 28.6753 81.8058C28.6753 82.4016 28.4645 82.9198 28.043 83.3509C27.6214 83.782 27.1067 84 26.5038 84C25.9009 84 25.3813 83.782 24.9401 83.3509C24.7637 83.1766 24.6215 82.9877 24.5137 82.7842C24.4108 82.9877 24.2735 83.1766 24.1019 83.3509C23.6804 83.782 23.1657 84 22.5628 84Z" fill="#FABD12"/>
<path d="M112.334 62.1548C112.917 62.9637 113.834 63.3705 115.094 63.3705C116.353 63.3705 117.241 62.9637 117.834 62.1548C118.427 61.3459 118.726 60.3529 118.726 59.1807C118.726 58.5946 118.657 58.0424 118.515 57.5242C118.373 57.0107 118.152 56.5603 117.853 56.1873C117.559 55.8143 117.177 55.514 116.716 55.2912C116.255 55.0684 115.711 54.957 115.094 54.957C113.834 54.957 112.917 55.3687 112.334 56.1873C111.751 57.0059 111.461 58.0037 111.461 59.1807C111.461 60.3577 111.751 61.3459 112.334 62.1548ZM95.5404 57.5435C94.4817 55.9499 93.1435 55.1507 91.5308 55.1507C90.0014 55.1507 88.6436 55.9499 87.4574 57.5435C88.7711 58.3815 90.1338 59.5973 91.5308 61.1909C92.7611 59.7232 94.0993 58.5074 95.5404 57.5435ZM72.9237 63.1381H87.129C85.6536 61.4185 84.2909 60.1398 83.0458 59.297V58.7642C83.0458 56.4295 84.0458 54.5501 86.0457 53.1261C87.6192 51.9926 89.423 51.4259 91.4573 51.4259C93.8199 51.4259 95.8345 52.1718 97.506 53.6637C99.0795 55.0878 99.8687 56.8412 99.8687 58.9143V59.3018C98.5256 60.1446 97.1629 61.4234 95.7855 63.1429H106.937V62.9879C106.437 62.426 106.045 61.8254 105.761 61.1909C105.476 60.5563 105.334 59.8879 105.334 59.1856C105.334 57.776 105.584 56.5409 106.084 55.4704C106.584 54.4048 107.265 53.499 108.133 52.7579C109.001 52.0168 110.025 51.4598 111.216 51.0868C112.407 50.7139 113.697 50.525 115.098 50.525C116.5 50.525 117.77 50.6993 118.981 51.0529C120.191 51.4065 121.24 51.9442 122.133 52.6707C123.025 53.3973 123.726 54.3031 124.235 55.3784C124.745 56.4585 125 57.7228 125 59.1807C125 60.6387 124.735 61.9029 124.201 62.983C123.667 64.0632 122.946 64.9593 122.044 65.6762C121.142 66.393 120.093 66.9258 118.892 67.2794C117.692 67.633 116.432 67.8074 115.098 67.8074H72.9286C72.9286 67.8074 72.8109 70.3552 72.5707 71.4596C72.3355 72.5639 71.9335 73.4988 71.3796 74.2738C70.8208 75.0488 70.0806 75.6397 69.1542 76.0514C68.2278 76.4632 67.0857 76.6666 65.7328 76.6666H39.5671V71.9585H64.5907C65.4926 71.9585 66.1004 71.5904 66.4092 70.8493C66.718 70.1082 66.87 68.9069 66.87 67.2407V52.8112H72.9237V63.1381Z" fill="#1A2E45"/>
<path d="M34.3958 21.8404L42.5425 19.249L50.2138 14.3665L43.2778 11.1648L35.5771 10.8693L34.2683 16.1926L34.3958 21.8404Z" fill="#31AEDF"/>
<path d="M22.3177 40.4742L26.5774 45.6183L30.2537 48.0837L35.7535 44.882L30.288 41.9855L22.3177 40.4742Z" fill="#60C0E7"/>
<path d="M21.3177 58.1199L26.3715 57.4709L29.3714 52.5496L23.7 55.4268L21.3177 58.1199Z" fill="#6DC6E9"/>
<path d="M21.4109 53.0921L21.3177 58.1199L29.3714 52.5496L21.4109 53.0921Z" fill="#60C0E7"/>
<path d="M22.3177 40.4742L25.3519 47.6429L29.3714 52.5496L30.2537 48.0837L22.3177 40.4742Z" fill="#45B6E2"/>
<path d="M21.411 53.3246L29.3714 52.5496L22.3178 40.4742L20.6953 47.2215L21.411 53.3246Z" fill="#50BAE4"/>
<path d="M15.7151 53.5184L21.4109 53.3246L22.3178 40.4742L16.5288 47.4347L15.7151 53.5184Z" fill="#45B6E2"/>
<path d="M5.18604 47.58L15.715 53.5184L22.3177 40.4742L13.1906 43.2836L5.18604 47.58Z" fill="#41B4E2"/>
<path d="M5.18604 47.58L22.3177 40.4742L11.5975 39.3795L6.08796 39.8349L5.18604 47.58Z" fill="#31AEDF"/>
<path d="M6.08795 39.8348L22.3177 40.4742L10.4946 37.2919L1.27441 36.1439L6.08795 39.8348Z" fill="#2BABDE"/>
<path d="M1.27441 36.1439L22.3177 40.4742L21.3717 31.9929L19.1757 26.1077L10.4015 29.8132L1.27441 36.1439Z" fill="#43B5E2"/>
<path d="M1.27446 36.1439L19.1757 26.1077L9.08788 23.9087L0 23.9135L1.27446 36.1439Z" fill="#50BAE4"/>
<path d="M19.1757 26.1077L22.3177 40.4742L28.8468 32.206L34.3956 21.8404L27.2538 23.3032L19.1757 26.1077Z" fill="#50BAE4"/>
<path d="M35.7535 44.882L46.1845 45.037L43.214 37.9894L38.8171 31.9347L36.381 38.8952L35.7535 44.882Z" fill="#9CD8F0"/>
<path d="M38.8171 31.9347L45.4492 36.3522L52.6646 39.6992L52.4343 31.8718L49.7187 24.1654L43.2777 27.6335L38.8171 31.9347Z" fill="#C3E8F6"/>
<path d="M34.3958 21.8404L35.9545 27.0571L38.8171 31.9347L49.7187 24.1654L34.3958 21.8404Z" fill="#B8E3F4"/>
<path d="M49.7186 24.1654L58.1644 31.5085L66.8895 36.9238L71.3109 26.7277L62.6397 23.6665L49.7186 24.1654Z" fill="#ABDEF2"/>
<path d="M49.7186 24.1654L59.331 22.0341L69.1492 16.8271L56.4193 13.6157L50.2137 14.3665L49.1892 19.4621L49.7186 24.1654Z" fill="#81CDEC"/>
<path d="M35.577 10.8693L50.2137 14.3665L53.4489 10.1379L54.9831 3.20171L43.8561 6.22904L35.577 10.8693Z" fill="#43B5E2"/>
<path d="M24.95 1.10437L29.9498 6.62623L35.577 10.8693L37.974 5.32326L38.9935 0L24.95 1.10437Z" fill="#3FB3E1"/>
<path d="M17.9943 16.5946L17.8473 20.3388L19.1757 26.1077L27.8665 19.0988L35.577 10.8693L24.896 13.1314L17.9943 16.5946Z" fill="#2DACDF"/>
<path d="M19.1757 26.1077L34.3956 21.8404L35.577 10.8693L19.1757 26.1077Z" fill="#22A8DD"/>
<path d="M8.05359 9.06746L12.7299 13.3154L17.9944 16.5946L22.5677 9.83278L24.95 1.10437L8.05359 9.06746Z" fill="#53BBE4"/>
<path d="M0 23.9135L19.1757 26.1077L14.1122 17.1613L8.05361 9.06747L0 23.9135Z" fill="#4EB9E4"/>
<path d="M8.05359 9.06747L19.1757 26.1077L17.9944 16.5946L8.05359 9.06747Z" fill="#4CB9E3"/>
<path d="M17.9944 16.5946L35.577 10.8693L24.95 1.10437L17.9944 16.5946Z" fill="#3DB2E1"/>
<path d="M35.577 10.8693L54.9831 3.20171L38.9936 0L35.577 10.8693Z" fill="#3DB2E1"/>
<path d="M34.3958 21.8404L49.7187 24.1654L50.2138 14.3665L34.3958 21.8404Z" fill="#69C4E8"/>
<path d="M50.2137 14.3665L69.1493 16.8271L54.9832 3.20171L50.2137 14.3665Z" fill="#59BEE6"/>
<path d="M38.8171 31.9347L46.1845 45.037L52.6646 39.6992L38.8171 31.9347Z" fill="#ADDFF2"/>
<path d="M22.3177 40.4742L35.7535 44.882L38.8171 31.9347L30.6213 35.2042L22.3177 40.4742Z" fill="#76C9EA"/>
<path d="M22.3177 40.4742L38.8171 31.9347L34.3957 21.8404L22.3177 40.4742Z" fill="#60C0E7"/>
<path d="M49.7186 24.1654L71.3109 26.7277L69.1492 16.8271L49.7186 24.1654Z" fill="#99D7EF"/>
<path d="M49.7186 24.1654L52.6646 39.6992L66.8895 36.9238L49.7186 24.1654Z" fill="#C3E8F6"/>
<path d="M54.5664 48.6359C53.9635 48.6359 53.4439 48.4179 53.0028 47.9869C52.5665 47.5558 52.3459 47.0423 52.3459 46.4417C52.3459 45.8411 52.5665 45.3373 53.0028 44.9208C53.439 44.5042 53.9635 44.2959 54.5664 44.2959C55.1694 44.2959 55.6841 44.5042 56.1056 44.9208C56.5272 45.3373 56.7379 45.8459 56.7379 46.4417C56.7379 47.0375 56.5272 47.5558 56.1056 47.9869C55.6841 48.4179 55.1694 48.6359 54.5664 48.6359Z" fill="#008CCC"/>
<path d="M81.3938 77.1316H83.0261L82.5801 69.2993H80.4527L79.6782 71.973C79.5557 72.4283 79.4331 72.8982 79.3204 73.3729C79.2076 73.8475 79.0998 74.3125 79.0067 74.763H78.9724C78.889 74.3077 78.791 73.8475 78.6783 73.3777C78.5655 72.9079 78.4479 72.4477 78.3253 71.9827L77.595 69.2993H75.4431L74.9137 77.1316H76.4676L76.6195 74.235C76.6391 73.77 76.6587 73.2663 76.6832 72.7335C76.7077 72.1958 76.7224 71.6775 76.7372 71.169H76.7715C76.8548 71.663 76.9528 72.1619 77.0705 72.6608C77.1832 73.1597 77.3009 73.6247 77.4185 74.051L78.2077 77.0057H79.5116L80.3939 74.0316C80.5262 73.6054 80.6586 73.1452 80.7958 72.6463C80.9331 72.1474 81.0556 71.6582 81.1684 71.1738H81.1929C81.1929 71.7066 81.2027 72.2346 81.2125 72.7577C81.2272 73.2808 81.2419 73.7652 81.2615 74.2205L81.3889 77.1364L81.3938 77.1316Z" fill="#1A2E45"/>
<path fill-rule="evenodd" clip-rule="evenodd" d="M88.0014 75.1893L88.5308 77.1316H90.3298L88.1436 69.2993H85.9574L83.7467 77.1316H85.4868L85.9819 75.1893H88.0063H88.0014ZM86.2123 73.9105L86.6338 72.2491C86.6878 72.0118 86.7417 71.7502 86.8005 71.4596C86.8593 71.169 86.9132 70.9025 86.9672 70.6555H87.0015C87.0554 70.9025 87.1142 71.169 87.173 71.4547C87.2319 71.7454 87.2956 72.0069 87.3544 72.2491L87.776 73.9105H86.2123Z" fill="#1A2E45"/>
<path fill-rule="evenodd" clip-rule="evenodd" d="M95.0158 75.1893L95.5452 77.1316H97.3442L95.158 69.2993H92.9718L90.7611 77.1316H92.5012L92.9963 75.1893H95.0207H95.0158ZM93.2267 73.9105L93.6482 72.2491C93.7022 72.0118 93.7561 71.7502 93.8149 71.4596C93.8737 71.169 93.9276 70.9025 93.9816 70.6555H94.0159C94.0698 70.9025 94.1286 71.169 94.1874 71.4547C94.2463 71.7454 94.31 72.0069 94.3688 72.2491L94.7904 73.9105H93.2267Z" fill="#1A2E45"/>
<path fill-rule="evenodd" clip-rule="evenodd" d="M98.3491 77.1316H100.055V74.051H100.501C100.825 74.0413 101.079 74.1285 101.261 74.3077C101.442 74.4869 101.574 74.8211 101.668 75.3007C101.771 75.7705 101.864 76.1628 101.952 76.4825C102.04 76.8022 102.114 77.0202 102.173 77.1316H103.937C103.859 76.9621 103.77 76.6763 103.663 76.2597C103.56 75.848 103.452 75.4121 103.334 74.9519C103.241 74.5741 103.119 74.2593 102.952 74.0122C102.79 73.7604 102.57 73.5811 102.3 73.4697V73.4358C102.672 73.2905 102.991 73.0532 103.251 72.7189C103.506 72.3847 103.643 71.9779 103.653 71.4983C103.653 71.1399 103.594 70.825 103.481 70.549C103.369 70.2729 103.187 70.0355 102.947 69.8418C102.677 69.6238 102.339 69.4688 101.932 69.3768C101.53 69.2847 101.06 69.2363 100.521 69.2411C100.094 69.2411 99.6922 69.2557 99.3246 69.2896C98.952 69.3186 98.6285 69.3574 98.3491 69.4058V77.1364V77.1316ZM100.055 70.5732C100.114 70.5538 100.197 70.5441 100.305 70.5296C100.413 70.5199 100.555 70.515 100.726 70.515C101.124 70.5199 101.423 70.6216 101.628 70.8154C101.834 71.0043 101.937 71.2804 101.937 71.6388C101.937 71.9875 101.82 72.2685 101.594 72.4816C101.369 72.6947 101.045 72.8013 100.633 72.8061H100.055V70.5732Z" fill="#1A2E45"/>
<path fill-rule="evenodd" clip-rule="evenodd" d="M108.633 75.1893L109.162 77.1316H110.961L108.775 69.2993H106.589L104.378 77.1316H106.118L106.614 75.1893H108.638H108.633ZM106.844 73.9105L107.265 72.2491C107.319 72.0118 107.373 71.7502 107.432 71.4596C107.491 71.169 107.545 70.9025 107.599 70.6555H107.633C107.687 70.9025 107.746 71.169 107.805 71.4547C107.863 71.7454 107.927 72.0069 107.986 72.2491L108.408 73.9105H106.844Z" fill="#1A2E45"/>
<path d="M111.961 77.1316H113.682V73.9541H116.211V72.5736H113.682V70.704H116.383V69.2944H111.961V77.1316Z" fill="#1A2E45"/>
<path d="M117.701 69.2944V77.1316H119.422V69.2944H117.701Z" fill="#1A2E45"/>
<path d="M84.2222 41.5689L84.5457 43.1625C83.9281 43.4386 83.1144 43.5742 82.1096 43.5742C80.5802 43.5742 79.3793 43.1625 78.5068 42.3391C77.6343 41.5156 77.198 40.4258 77.198 39.0647C77.198 37.631 77.6735 36.4781 78.6244 35.616C79.5754 34.7538 80.8008 34.3178 82.2958 34.3178C83.3056 34.3178 84.0899 34.4535 84.6487 34.7296L84.2173 36.3522C83.6585 36.1149 83.0458 35.9938 82.389 35.9938C81.4772 35.9938 80.7518 36.2553 80.2077 36.7785C79.6636 37.3016 79.3891 38.0233 79.3891 38.9436C79.3891 39.8639 79.6587 40.5566 80.193 41.0797C80.7273 41.6028 81.4674 41.8692 82.4037 41.8692C83.0801 41.8692 83.6879 41.7675 84.2173 41.5641L84.2222 41.5689Z" fill="#1A2E45"/>
<path d="M85.9476 43.4337V34.5794C86.8055 34.4535 87.7662 34.3953 88.825 34.3953C90.1534 34.3953 91.1141 34.6617 91.717 35.1946C92.3199 35.7274 92.619 36.4006 92.619 37.2144C92.619 38.2122 92.2758 38.9727 91.5847 39.5055C90.8984 40.0334 89.9475 40.2998 88.7417 40.2998C88.5015 40.2998 88.2564 40.2805 88.0015 40.2466V43.4386H85.9427L85.9476 43.4337ZM88.0064 36.018V38.6627C88.1534 38.6966 88.3985 38.716 88.7319 38.716C89.2956 38.716 89.7416 38.5852 90.07 38.3284C90.3985 38.0717 90.5602 37.7181 90.5602 37.2628C90.5602 36.8463 90.4132 36.5217 90.124 36.2941C89.8348 36.0616 89.423 35.9502 88.8936 35.9502C88.4721 35.9502 88.178 35.9744 88.0064 36.018Z" fill="#1A2E45"/>
<path d="M95.7954 43.4337V36.1875H93.2513V34.4728H100.462V36.1875H97.8786V43.4337H95.7954Z" fill="#1A2E45"/>
<path d="M101.565 34.4728H103.648V43.4337H101.565V34.4728Z" fill="#1A2E45"/>
<path d="M107.295 43.4337V36.1875H104.751V34.4728H111.961V36.1875H109.378V43.4337H107.295Z" fill="#1A2E45"/>
</g>
<defs>
<clipPath id="clip0_58_1912">
<rect width="125" height="84" fill="white"/>
</clipPath>
</defs>
</svg>
