<svg width="534" height="471" viewBox="0 0 534 471" fill="none" xmlns="http://www.w3.org/2000/svg">
<circle cx="323.518" cy="266.35" r="203.985" fill="#DBF1FD" fill-opacity="0.22"/>
<circle cx="323.518" cy="266.35" r="203.985" fill="#DBF1FD" fill-opacity="0.22"/>
<g clip-path="url(#clip0_53_1504)">
<path d="M51.9976 114.095C51.9161 113.03 50.7014 112.852 48.9755 113.629C47.0867 114.48 46.0942 116.811 46.2423 118.498C46.2423 118.498 46.3831 122.035 46.3016 124.995H46.3164C44.8424 127.215 43.4276 128.776 42.798 128.569C41.3314 128.088 38.7464 123.256 38.7464 123.256C37.7316 118.557 38.4501 113.592 38.4501 113.592C38.4501 113.592 40.2278 109.026 40.9241 109.063C42.0277 109.123 44.6128 109.019 44.8572 109.522C45.2424 110.307 46.0942 115.612 51.1236 112.652C51.6643 112.334 50.3606 110.921 49.6644 109.108C49.094 107.635 48.4793 105.867 48.22 105.497C47.6348 104.675 42.6943 102.47 38.739 103.077C37.3687 103.292 33.9022 108.131 32.0874 110.928C32.0874 110.928 31.169 111.794 30.4209 111.957C30.0135 112.046 29.2876 111.172 29.058 110.492L23.9323 83.7714C23.599 82.1139 22.0138 80.93 20.3547 81.2629C18.6955 81.5959 17.6289 83.1499 17.9622 84.8074L22.7768 112.475C22.9842 113.274 22.0064 113.955 21.5694 113.111L13.8365 89.1806C13.5254 87.6118 11.9995 86.5907 10.4292 86.9089C8.85892 87.2197 7.83675 88.744 8.15525 90.3127L15.3845 117.196C15.666 118.372 14.6735 118.705 14.4068 117.943L5.04429 101.057C4.05174 99.4587 2.96291 98.3857 1.4815 99.0591C0.0223056 99.7251 -0.370268 100.865 0.318588 102.374L9.02928 122.612C13.2513 144.796 20.3473 151.856 20.3473 151.856C35.1317 164.694 40.4204 148.94 40.4204 148.94C40.4204 148.94 45.2646 144.7 48.6126 137.463C49.457 135.628 51.2125 131.462 53.0716 127.4C53.5383 126.364 52.9902 125.084 52.9902 125.084C52.5976 122.56 52.242 120.037 52.0495 117.987C51.8717 116.034 51.9828 114.103 51.9828 114.103L51.9976 114.095Z" fill="#EA997D"/>
<path d="M75.4631 155.726C75.4631 155.726 62.5526 165.434 54.3382 185.102C45.9682 205.148 20.5694 257.574 27.1099 269.288C33.6503 281.002 38.8945 281.631 46.0867 281.009C53.279 280.388 73.1151 255.421 78.9889 240.392C84.8701 225.356 88.381 176.859 75.4557 155.733L75.4631 155.726Z" fill="#E8E8EF"/>
<path d="M14.8883 149.621L15.8586 164.08C15.7623 167.498 9.54037 172.219 10.7699 178.998C13.0735 191.636 15.1994 211.941 16.0512 231.187C17.2733 258.618 20.5621 281.853 39.4501 281.845C63.8341 281.838 58.701 254.77 54.5678 225.46C51.9606 206.953 49.1311 192.517 51.3532 175.549C52.2865 168.394 46.1683 166.648 45.709 163.488L44.5091 148.415L14.8809 149.621H14.8883Z" fill="#E8E8EF"/>
<path d="M53.8418 225.601C54.0418 227.036 54.2492 228.472 54.4566 229.892C56.1677 241.858 57.8194 253.416 57.1602 262.495C57.6417 262.614 58.1231 262.725 58.6046 262.828C59.3453 253.542 57.6639 241.843 55.9232 229.685C55.7232 228.264 55.5158 226.829 55.3158 225.393C54.9751 222.974 54.627 220.621 54.2937 218.327C52.8789 208.678 51.6123 199.865 51.3827 190.918C50.9012 191.089 50.405 191.244 49.9087 191.37C50.1679 200.249 51.4271 208.988 52.8345 218.541C53.1678 220.835 53.5159 223.181 53.8567 225.601H53.8418Z" fill="#D1D1DB"/>
<path d="M119.683 31.7593C119.683 31.7593 102.21 127.259 104.802 173.137C104.802 173.137 111.513 195.343 125.379 205.333C139.245 215.322 142.727 229.167 151.726 240.378C151.726 240.378 161.096 225.319 163.318 219.4C165.54 213.48 181.599 187.936 195.235 173.137C195.235 173.137 200.546 73.9373 186.561 31.7593H119.683Z" fill="#D1D1DB"/>
<path d="M132.12 86.5167C132.12 86.5167 133.401 116.707 132.12 121.606C130.838 126.504 118.854 134.533 106.573 140.29C106.573 140.29 122.372 161.875 153.245 161.231C184.117 160.595 191.961 147.823 196.865 140.793C196.865 140.793 173.31 132.476 172.747 122.472C172.184 112.467 172.747 86.5167 172.747 86.5167H132.112H132.12Z" fill="#EA997D"/>
<path d="M152.156 115.176C161.926 115.176 168.711 108.568 172.525 103.314C172.585 94.4343 172.755 86.5167 172.755 86.5167H132.12C132.12 86.5167 132.461 94.427 132.616 102.907C135.883 108.213 142.134 115.176 152.156 115.176Z" fill="#D87E66"/>
<path d="M125.312 57.2437C125.312 57.2437 123.631 52.3082 117.017 52.8853C110.617 53.4477 112.787 69.8601 118.424 72.561C124.053 75.2619 125.912 67.1075 125.912 67.1075L125.32 57.2363L125.312 57.2437Z" fill="#EA997D"/>
<path d="M181.317 57.2437C181.317 57.2437 182.999 52.3082 189.613 52.8853C196.006 53.4477 193.843 69.8601 188.213 72.561C182.584 75.2619 180.725 67.1075 180.725 67.1075L181.317 57.2363V57.2437Z" fill="#EA997D"/>
<path d="M186.776 55.9562C183.954 91.0601 174.103 107.917 153.319 107.917C132.534 107.917 122.55 93.9978 119.861 55.9562C117.876 27.8671 132.609 10.4853 153.319 10.4853C174.029 10.4853 189.117 26.7867 186.776 55.9562Z" fill="#EA997D"/>
<path d="M135.979 61.6095C135.979 63.378 135.046 64.8135 133.89 64.8135C132.735 64.8135 131.801 63.378 131.801 61.6095C131.801 59.8409 132.735 58.398 133.89 58.398C135.046 58.398 135.979 59.8335 135.979 61.6095Z" fill="#23242B"/>
<path d="M174.058 61.6095C174.058 63.378 173.125 64.8135 171.97 64.8135C170.814 64.8135 169.881 63.378 169.881 61.6095C169.881 59.8409 170.814 58.398 171.97 58.398C173.125 58.398 174.058 59.8335 174.058 61.6095Z" fill="#23242B"/>
<path d="M126.594 53.9582C126.298 53.9582 125.95 53.7806 125.713 53.566C125.201 53.1073 125.313 52.3969 125.772 51.8863C127.72 49.7256 135.045 46.677 139.467 49.7404C140.038 50.1326 140.327 50.806 140.016 51.4201C139.704 52.0343 139.023 52.0491 138.334 51.9677C133.157 51.3092 127.683 53.529 127.631 53.5586C127.209 53.7806 126.935 53.9656 126.594 53.9656V53.9582Z" fill="#30323D"/>
<path d="M179.665 53.9582C179.962 53.9582 180.31 53.7806 180.547 53.566C181.058 53.1073 180.947 52.3969 180.488 51.8863C178.54 49.7256 171.214 46.677 166.792 49.7404C166.222 50.1326 165.933 50.806 166.244 51.4201C166.555 52.0343 167.236 52.0491 167.925 51.9677C173.103 51.3092 178.577 53.529 178.628 53.5586C179.051 53.7806 179.325 53.9656 179.665 53.9656V53.9582Z" fill="#30323D"/>
<path d="M152.808 81.8697C151.052 81.8105 149.66 81.3369 149.008 80.042C146.971 76.0092 150.837 69.4975 151.193 68.6983C151.445 68.1433 151.815 67.8178 152.371 68.0694C152.926 68.3209 152.719 69.0535 152.467 69.6085C151.282 72.228 150.548 77.0821 151.637 78.932C151.815 79.2428 152.134 79.6054 152.993 79.6794C153.6 79.7312 154.022 80.264 154 80.8708C153.956 81.9289 152.837 81.8771 152.808 81.8771V81.8697Z" fill="#D87E66"/>
<path d="M118.024 52.8483L119.261 58.176L121.942 59.2046C121.942 59.2046 123.513 50.14 124.202 43.8725C125.372 33.2022 125.913 24.6408 152.445 24.3892C180.029 24.1228 179.992 32.9802 182.473 43.3841C184.265 50.8874 184.317 59.3822 184.317 59.3822L187.139 58.1834L188.895 52.9001C188.895 52.9001 188.769 43.9983 188.895 35.6145C188.895 35.6145 187.636 16.5234 178.251 14.4589C178.251 14.4589 172.451 2.80444 155.008 2.80444C132.809 2.80444 132.127 8.34678 131.512 9.70832C131.512 9.70832 127.298 10.7073 124.705 14.4071C122.113 18.1069 121.498 18.7359 118.535 27.3639C118.535 27.3639 117.757 31.0933 118.039 34.0162C118.217 35.8291 116.683 46.1812 118.039 52.8631L118.024 52.8483Z" fill="#30323D"/>
<path d="M119.254 57.6581C119.254 57.6581 121.231 78.1995 124.068 86.9607C126.905 95.7145 131.149 109.071 152.978 109.071C174.807 109.071 180.051 92.6436 181.94 86.9533C184.317 79.7904 186.48 67.2776 187.125 57.6581H184.436C184.436 57.6581 181.984 81.7735 176.532 91.7705C171.088 101.76 155.637 101.671 153.185 101.671C150.734 101.671 133.386 101.227 129.498 91.7483C126.061 83.3645 123.187 73.9373 121.846 57.6581H119.254Z" fill="#30323D"/>
<path d="M152.437 82.7133C152.437 82.7133 138.149 81.7365 136.668 87.8931C135.186 94.0496 132.594 97.3868 132.594 97.3868L139.63 101.101C139.63 101.101 139.112 88.4258 143.015 87.4861C146.919 86.5389 160.222 86.3835 163.015 87.5675C165.807 88.7514 165.681 101.101 165.681 101.101L173.029 97.2018C173.029 97.2018 168.933 91.0231 167.94 87.8635C166.488 83.2387 160.689 82.0991 152.445 82.7133H152.437Z" fill="#30323D"/>
<path d="M143.793 87.2567H161.289C161.289 87.2567 159.733 92.0738 151.719 92.0664C149.223 92.0664 144.423 89.4765 143.786 87.2567H143.793Z" fill="white"/>
<path d="M121.194 51.0724L123.224 38.3894C123.224 38.3894 112.765 43.3472 121.194 51.0724Z" fill="#D1D1DB"/>
<path d="M153.171 32.1885C153.171 32.1885 151.297 31.8185 148.423 33.9126C145.541 36.0067 135.838 39.3366 125.379 40.6981C114.928 42.0522 121.594 47.9719 121.224 51.0576C120.854 54.1433 111.099 118.024 104.803 173.152C104.803 173.152 99.2472 162.237 98.8769 154.468C98.8769 154.468 92.892 148.422 93.8179 137.878C94.7437 127.333 91.0032 116.545 94.7956 94.7155C98.588 72.8866 115.861 45.1379 117.461 29.5986C119.061 14.0593 128.194 0 153.348 0C178.503 0 188.147 19.6091 188.88 28.6737C189.613 37.7382 208.612 77.4522 209.353 98.0454C210.094 118.639 212.812 116.67 208.738 126.778C204.664 136.886 209.36 151.441 202.694 157.361C202.694 157.361 198.635 170.185 195.235 173.144C195.235 173.144 192.124 93.724 185.68 51.2944C185.68 51.2944 183.932 40.3207 177.881 39.2108C171.829 38.1008 162.074 37.5088 156.896 33.5352C156.896 33.5352 155.03 31.9517 153.171 32.1811V32.1885Z" fill="#E8E8EF"/>
<path d="M118.55 26.3575C117.483 26.3575 116.461 25.7878 115.928 24.7814C115.165 23.3385 115.713 21.5478 117.158 20.7856C118.387 20.1344 147.778 4.95774 188.695 20.3712C190.228 20.9484 190.998 22.6577 190.421 24.182C189.843 25.7138 188.132 26.4833 186.606 25.9062C148.312 11.4768 120.209 25.8618 119.935 26.0098C119.498 26.2391 119.024 26.3501 118.557 26.3501L118.55 26.3575Z" fill="#272A33"/>
<path d="M189.013 32.5585C188.628 32.5585 188.235 32.4845 187.858 32.3217C149.037 15.9314 119.187 32.0183 118.891 32.1811C117.461 32.9728 115.654 32.4549 114.861 31.0267C114.069 29.5986 114.587 27.7931 116.017 27.0013C117.335 26.2762 148.711 9.36054 190.161 26.8607C191.665 27.4971 192.376 29.236 191.739 30.7381C191.258 31.8703 190.161 32.5437 189.006 32.5437L189.013 32.5585Z" fill="#30323D"/>
<path d="M100.358 152.433C100.358 152.433 109.936 89.2546 113.106 73.116C113.106 73.116 93.8772 141.518 100.358 152.433Z" fill="#D1D1DB"/>
<path d="M188.828 45.1526C188.828 45.1526 201.057 92.392 208.131 101.101L188.828 45.1526Z" fill="#D1D1DB"/>
<path d="M119.891 42.178C119.891 42.178 121.928 37.5089 123.224 33.0173C123.224 33.0173 120.305 37.6421 119.891 42.178Z" fill="#D1D1DB"/>
<path d="M130.727 113.2C130.727 113.2 149.985 117.41 174.429 113.096L175.54 126.356C175.54 126.356 205.02 142.739 228.182 155.733C228.182 155.733 225.663 272.566 224.182 324.852C224.182 324.852 233.315 716.679 235.537 744.975C235.537 744.975 229.241 752.737 218.13 751.627C207.02 750.517 207.109 750.687 189.798 753.292C170.11 756.252 164.34 750.192 146.282 749.836C128.646 749.489 109.535 752.833 105.684 753.292C83.7218 755.882 80.8627 749.918 69.9891 751.627C53.701 754.187 53.3232 748.667 53.3232 748.667C53.3232 748.667 80.6108 387.505 82.033 324.356C82.033 324.356 77.1147 183.193 75.4703 155.726C75.4703 155.726 107.491 137.36 129.527 124.78L130.727 113.2Z" fill="#E8E8EF"/>
<path d="M151.208 254.489C150.8 254.489 150.467 254.326 150.467 253.919L150.978 116.337C150.978 115.93 151.304 115.612 151.719 115.642C152.126 115.642 152.459 115.997 152.459 116.404L151.948 253.912C151.948 254.319 151.615 254.489 151.208 254.489Z" fill="#D1D1DB"/>
<path d="M151.378 313.745C151.178 313.745 150.978 313.664 150.83 313.508C150.556 313.205 150.571 312.739 150.874 312.465C189.828 276.747 218.982 192.717 219.278 191.873C219.412 191.488 219.834 191.281 220.219 191.414C220.604 191.547 220.812 191.969 220.678 192.354C220.389 193.205 192.82 276.754 151.882 313.553C151.741 313.679 151.556 313.745 151.378 313.745Z" fill="#D1D1DB"/>
<path d="M181.48 296.726C181.191 296.726 180.917 296.556 180.799 296.275C180.636 295.897 180.814 295.461 181.184 295.305C203.664 285.678 217.012 266.114 217.138 265.914C217.367 265.574 217.827 265.485 218.167 265.714C218.508 265.944 218.597 266.402 218.367 266.743C218.234 266.942 203.435 289.511 181.762 296.667C181.665 296.696 181.569 296.726 181.473 296.726H181.48Z" fill="#D1D1DB"/>
<path d="M138.89 423.889C138.504 423.889 138.186 423.593 138.149 423.208C135.312 388.208 122.705 353.822 122.579 353.481C122.438 353.097 122.631 352.675 123.016 352.534C123.401 352.394 123.824 352.586 123.972 352.971C124.098 353.319 136.779 387.882 139.63 423.09C139.66 423.497 139.356 423.852 138.949 423.889C138.927 423.889 138.912 423.889 138.89 423.889Z" fill="#D1D1DB"/>
<path d="M78.8999 238.95C78.5073 238.95 78.174 238.513 78.1592 238.113L75.7149 176.4C75.7 175.993 76.0185 175.616 76.4259 175.601C76.8259 175.586 77.1814 175.89 77.1963 176.297L79.6406 238.069C79.6554 238.476 79.3369 238.957 78.9295 238.957H78.8999V238.95Z" fill="#D1D1DB"/>
<path d="M237.737 338.645C236.744 333.236 233.07 330.779 233.255 330.912C233.07 330.787 213.856 320.094 213.642 320.005C210.405 318.599 201.027 319.48 198.146 320.131C196.731 320.449 190.213 324.43 188.732 325.407C188.006 325.888 183.443 330.935 183.273 331.112C181.976 332.518 183.747 334.723 186.228 333.821C188.302 333.066 190.932 330.639 191.591 330.21C192.435 329.655 196.961 326.776 198.664 326.473C200.857 326.088 203.494 326.095 206.22 325.947C203.346 326.613 200.264 327.842 197.879 329.003C195.005 330.402 192.954 331.808 190.976 333.273C187.902 335.559 185.117 338.808 184.902 339.097C183.036 341.657 187.576 342.7 189.206 341.672C190.065 341.131 191.487 339.822 193.265 338.505C193.361 338.438 197.657 335.367 200.375 334.546C202.598 333.872 206.257 333.021 209.197 332.378C206.509 333.451 203.124 334.22 200.82 335.567C197.805 337.321 196.983 337.698 194.672 339.422C191.635 341.679 189.65 344.069 189.435 344.328C187.287 346.992 191.917 348.413 193.583 347.096C196.65 344.661 197.472 343.936 198.435 343.27C200.457 341.886 202.99 340.673 204.538 340.014C206.79 339.052 208.871 338.919 212.227 338.379C210.205 339.681 209.308 340.858 207.723 342.397C205.886 344.187 203.938 346.622 202.724 348.235C200.694 350.936 199.457 352.904 199.316 353.178C198.457 354.799 201.82 355.975 203.286 354.873C204.842 353.703 205.057 352.682 206.086 351.506C208.123 349.175 209.923 347.621 211.042 346.859C213.456 345.209 214.116 344.454 216.604 343.507C217.804 345.756 218.952 348.013 219.826 350.174C223.967 360.356 239.803 346.526 239.803 346.526C242.448 341.953 237.752 338.653 237.752 338.653L237.737 338.645Z" fill="#EA997D"/>
<path d="M228.182 155.726C228.182 155.726 243.892 164.701 271.068 191.71C271.068 191.71 317.237 224.727 316.933 250.634C316.725 267.978 286.179 307.922 266.306 331.319C262.447 335.863 256.928 333.539 254.603 335.915C249.269 341.353 243.647 345.497 243.647 345.497C243.647 345.497 238.44 343.581 227.352 326.872C227.352 326.872 228.693 325.444 232.966 319.251C234.692 316.75 229.263 311.77 233.241 307.086C248.795 288.771 272.765 259.121 273.239 256.627C273.965 252.831 226.13 220.103 226.13 220.103C226.13 220.103 213.175 189.157 228.174 155.726H228.182Z" fill="#E8E8EF"/>
<path d="M226.819 218.971H226.797C226.389 218.971 226.063 218.423 226.078 218.009L227.1 181.055C227.115 180.648 227.456 180.263 227.863 180.285C228.271 180.3 228.597 180.611 228.582 181.018L227.56 218.06C227.545 218.46 227.219 218.963 226.819 218.963V218.971Z" fill="#D1D1DB"/>
</g>
<g clip-path="url(#clip1_53_1504)">
<path d="M470.382 201.127H244.263V427.999H470.382V201.127Z" fill="white"/>
<path d="M470.382 165.441V201.127H244.263V165.441C244.263 158.347 250.012 152.607 257.095 152.607H457.55C464.643 152.607 470.382 158.357 470.382 165.441Z" fill="#3E82FC"/>
<path d="M435.343 185.408C441.219 185.408 445.982 180.644 445.982 174.767C445.982 168.891 441.219 164.127 435.343 164.127C429.467 164.127 424.704 168.891 424.704 174.767C424.704 180.644 429.467 185.408 435.343 185.408Z" fill="#2B4183"/>
<path d="M435.343 178.759C438.712 178.759 441.438 176.032 441.438 172.663V145.118C441.438 141.749 438.712 139.022 435.343 139.022C431.975 139.022 429.248 141.749 429.248 145.118V172.663C429.248 176.032 431.975 178.759 435.343 178.759Z" fill="#FFCB2D"/>
<path d="M360.266 185.408C366.142 185.408 370.906 180.644 370.906 174.767C370.906 168.891 366.142 164.127 360.266 164.127C354.391 164.127 349.627 168.891 349.627 174.767C349.627 180.644 354.391 185.408 360.266 185.408Z" fill="#2B4183"/>
<path d="M360.266 178.759C363.635 178.759 366.361 176.032 366.361 172.663V145.118C366.361 141.749 363.635 139.022 360.266 139.022C356.898 139.022 354.171 141.749 354.171 145.118V172.663C354.171 176.032 356.898 178.759 360.266 178.759Z" fill="#FFCB2D"/>
<path d="M285.189 185.408C291.065 185.408 295.829 180.644 295.829 174.767C295.829 168.891 291.065 164.127 285.189 164.127C279.314 164.127 274.55 168.891 274.55 174.767C274.55 180.644 279.314 185.408 285.189 185.408Z" fill="#2B4183"/>
<path d="M285.19 178.759C288.558 178.759 291.285 176.032 291.285 172.663V145.118C291.285 141.749 288.558 139.022 285.19 139.022C281.821 139.022 279.094 141.749 279.094 145.118V172.663C279.094 176.032 281.821 178.759 285.19 178.759Z" fill="#FFCB2D"/>
<path d="M393.982 280.591H436.973V237.594H393.982V280.591Z" stroke="#F0E0DF" stroke-width="2.21" stroke-miterlimit="10"/>
<path d="M336.775 280.591H379.766V237.594H336.775V280.591Z" stroke="#F0E0DF" stroke-width="2.21" stroke-miterlimit="10"/>
<path d="M279.578 280.591H322.57V237.594H279.578V280.591Z" stroke="#F0E0DF" stroke-width="2.21" stroke-miterlimit="10"/>
<path d="M393.982 335.178H436.973V292.18H393.982V335.178Z" stroke="#F0E0DF" stroke-width="2.21" stroke-miterlimit="10"/>
<path d="M336.775 335.178H379.766V292.18H336.775V335.178Z" stroke="#F0E0DF" stroke-width="2.21" stroke-miterlimit="10"/>
<path d="M279.578 335.178H322.57V292.18H279.578V335.178Z" fill="#2FC9BF"/>
<path d="M393.982 389.754H436.973V346.757H393.982V389.754Z" stroke="#F0E0DF" stroke-width="2.21" stroke-miterlimit="10"/>
<path d="M336.775 389.754H379.766V346.757H336.775V389.754Z" stroke="#F0E0DF" stroke-width="2.21" stroke-miterlimit="10"/>
<path d="M279.578 389.754H322.57V346.757H279.578V389.754Z" stroke="#F0E0DF" stroke-width="2.21" stroke-miterlimit="10"/>
<path d="M466.51 278.506H445.587V292.289H466.51V278.506Z" fill="#FFA80A"/>
<path d="M469.73 282.083H442.357C439.245 282.083 436.716 279.554 436.716 276.441C436.716 273.329 439.245 270.8 442.357 270.8H469.73C472.842 270.8 475.371 273.329 475.371 276.441C475.371 279.554 472.842 282.083 469.73 282.083Z" fill="#FFCB2D"/>
<path d="M405.315 299.415L393.517 311.214L401.837 319.535L413.635 307.735L405.315 299.415Z" fill="#FFA80A"/>
<path d="M409.027 298.928L392.549 315.408C390.89 317.068 388.193 317.068 386.533 315.408C384.874 313.748 384.874 311.051 386.533 309.391L403.011 292.911C404.67 291.251 407.367 291.251 409.027 292.911C410.686 294.571 410.686 297.268 409.027 298.928Z" fill="#FFCB2D"/>
<path d="M455.801 427.811C494.859 427.811 526.522 396.144 526.522 357.081C526.522 318.018 494.859 286.351 455.801 286.351C416.744 286.351 385.081 318.018 385.081 357.081C385.081 396.144 416.744 427.811 455.801 427.811Z" fill="#2FC9BF"/>
<path d="M455.801 424.008C492.759 424.008 522.719 394.044 522.719 357.081C522.719 320.119 492.759 290.155 455.801 290.155C418.844 290.155 388.884 320.119 388.884 357.081C388.884 394.044 418.844 424.008 455.801 424.008Z" fill="#2FC9BF"/>
<path d="M455.801 416.45C488.585 416.45 515.162 389.87 515.162 357.081C515.162 324.293 488.585 297.713 455.801 297.713C423.018 297.713 396.441 324.293 396.441 357.081C396.441 389.87 423.018 416.45 455.801 416.45Z" fill="#F6F6F6"/>
<g opacity="0.71">
<path d="M390.86 310.112L480.824 449.547L521.474 414.592L432.458 289.789L390.86 310.112Z" fill="white"/>
<path d="M438.8 276.52L528.774 415.956L534 398.478L444.984 273.675L438.8 276.52Z" fill="white"/>
</g>
<path d="M456.098 311.09C455.278 311.09 454.606 310.418 454.606 309.598V306.091C454.606 305.261 455.278 304.599 456.098 304.599C456.918 304.599 457.59 305.271 457.59 306.091V309.598C457.59 310.418 456.918 311.09 456.098 311.09Z" fill="#3E82FC"/>
<path d="M456.098 410.285C455.278 410.285 454.606 409.613 454.606 408.793V405.285C454.606 404.455 455.278 403.793 456.098 403.793C456.918 403.793 457.59 404.465 457.59 405.285V408.793C457.59 409.623 456.918 410.285 456.098 410.285Z" fill="#3E82FC"/>
<path d="M422.264 325.1C421.879 325.1 421.503 324.952 421.207 324.665L418.727 322.185C418.145 321.602 418.145 320.654 418.727 320.071C419.31 319.488 420.259 319.488 420.841 320.071L423.321 322.551C423.904 323.134 423.904 324.082 423.321 324.665C423.025 324.962 422.649 325.1 422.264 325.1Z" fill="#3E82FC"/>
<path d="M492.401 395.237C492.016 395.237 491.641 395.089 491.344 394.803L488.865 392.323C488.282 391.74 488.282 390.791 488.865 390.209C489.448 389.626 490.396 389.626 490.979 390.209L493.458 392.688C494.041 393.271 494.041 394.22 493.458 394.803C493.162 395.099 492.787 395.237 492.401 395.237Z" fill="#3E82FC"/>
<path d="M419.794 395.237C419.409 395.237 419.034 395.089 418.737 394.803C418.154 394.22 418.154 393.271 418.737 392.688L421.217 390.209C421.8 389.626 422.748 389.626 423.331 390.209C423.914 390.791 423.914 391.74 423.331 392.323L420.851 394.803C420.555 395.099 420.179 395.237 419.794 395.237Z" fill="#3E82FC"/>
<path d="M489.922 325.1C489.537 325.1 489.161 324.952 488.865 324.665C488.282 324.082 488.282 323.134 488.865 322.551L491.344 320.071C491.927 319.488 492.876 319.488 493.458 320.071C494.041 320.654 494.041 321.602 493.458 322.185L490.979 324.665C490.683 324.962 490.307 325.1 489.922 325.1Z" fill="#3E82FC"/>
<path d="M408.256 358.929H404.749C403.929 358.929 403.258 358.257 403.258 357.437C403.258 356.617 403.929 355.945 404.749 355.945H408.256C409.076 355.945 409.748 356.617 409.748 357.437C409.748 358.257 409.076 358.929 408.256 358.929Z" fill="#3E82FC"/>
<path d="M507.437 358.929H503.93C503.11 358.929 502.438 358.257 502.438 357.437C502.438 356.617 503.11 355.945 503.93 355.945H507.437C508.256 355.945 508.928 356.617 508.928 357.437C508.928 358.257 508.256 358.929 507.437 358.929Z" fill="#3E82FC"/>
<path d="M459.664 356.874H452.532V325.94C452.532 323.974 454.132 322.373 456.098 322.373C458.064 322.373 459.664 323.974 459.664 325.94V356.874Z" fill="#3E82FC"/>
<path d="M456.098 365.054C460.615 365.054 464.277 361.392 464.277 356.874C464.277 352.356 460.615 348.693 456.098 348.693C451.581 348.693 447.918 352.356 447.918 356.874C447.918 361.392 451.581 365.054 456.098 365.054Z" fill="#2B4183"/>
</g>
<defs>
<clipPath id="clip0_53_1504">
<rect width="317.022" height="427.46" fill="white"/>
</clipPath>
<clipPath id="clip1_53_1504">
<rect width="289.737" height="310.526" fill="white" transform="translate(244.263 139.022)"/>
</clipPath>
</defs>
</svg>
