<svg width="580" height="368" viewBox="0 0 580 368" fill="none" xmlns="http://www.w3.org/2000/svg">
<path d="M293.119 124.581L290.536 125.372L288.801 121.363L284.882 122.056L283.092 119.267L281.677 120.172L284.071 123.902L287.786 123.245L289.59 127.416L293.479 126.224L293.119 124.581Z" fill="#50BFA5"/>
<path d="M458.776 268.784L456.192 269.575L454.458 265.565L450.538 266.259L448.749 263.47L447.335 264.375L449.727 268.105L453.442 267.448L455.247 271.619L459.135 270.427L458.776 268.784Z" fill="#50BFA5"/>
<path d="M277.203 316.25C277.203 316.25 263.418 269.602 262.312 259.313C261.207 249.024 268.915 252.211 268.915 252.211C268.915 252.211 262.43 232.604 267.119 227.95C271.807 223.297 276.038 231.971 276.038 231.971C276.038 231.971 277.457 208.168 282.457 208.161C291.767 208.144 291.584 234.118 291.584 234.118C291.584 234.118 293.96 223.95 298.956 226.738C306.475 230.942 295.692 251.32 295.692 251.32C295.692 251.32 305.275 251.32 308.638 256.152C314.668 264.805 277.203 316.25 277.203 316.25Z" fill="#50BFA5"/>
<path d="M281.708 310.077C281.708 310.077 241.971 303.442 233.328 296.411C224.685 289.38 233.239 286.212 233.239 286.212C233.239 286.212 213.277 275.994 213.508 269.047C213.738 262.099 223.656 265.632 223.656 265.632C223.656 265.632 206.837 246.481 210.819 242.843C218.235 236.07 237.681 255.977 237.681 255.977C237.681 255.977 231.907 246.51 237.988 245.011C247.158 242.753 253.925 266.095 253.925 266.095C253.925 266.095 252.206 256.877 258.533 258.106C269.875 260.308 281.708 310.077 281.708 310.077Z" fill="#50BFA5"/>
<path d="M258.529 258.106C252.191 256.961 253.922 266.095 253.922 266.095C253.922 266.095 247.155 242.753 237.985 245.011C231.903 246.51 237.677 255.977 237.677 255.977C237.677 255.977 218.235 236.072 210.823 242.843L281.589 310.088C280.315 303.664 269.157 260.023 258.529 258.106Z" fill="#3C8F7C"/>
<path d="M293.014 315.549C293.014 315.549 272.087 294.301 261.549 292.087C251.012 289.874 252.906 297.361 252.906 297.361C252.906 297.361 231.997 279.104 227.151 283.527C222.304 287.951 227.547 292.221 227.547 292.221C227.547 292.221 210.13 289.141 207.644 294.847C203.813 303.615 232.456 308.388 232.456 308.388C232.456 308.388 220.452 309.219 223.242 314.717C227.429 323.008 293.014 315.549 293.014 315.549Z" fill="#355389"/>
<path d="M207.638 294.847C210.13 289.143 227.541 292.221 227.541 292.221C227.541 292.221 222.3 287.951 227.145 283.527C231.99 279.104 252.25 294.878 252.25 294.878C252.25 294.878 247.474 285.761 258.013 287.975C268.552 290.188 293.014 315.549 293.014 315.549L207.638 294.847Z" fill="#466EB6"/>
<path d="M326.331 96.3994C319.286 97.555 317.194 106.786 323.051 110.915C324.099 111.666 324.84 112.769 325.141 114.021L326.206 118.314C326.348 118.884 326.699 119.381 327.191 119.704C327.683 120.028 328.279 120.155 328.86 120.06L331.528 119.62C332.109 119.525 332.633 119.215 332.995 118.752C333.357 118.288 333.531 117.705 333.482 117.12C333.113 112.685 332.654 111.079 334.097 109.101C338.319 103.318 333.373 95.2402 326.331 96.3994Z" fill="#F7CC7F"/>
<path d="M327.05 115.166C326.591 111.368 325.944 107.357 325.729 106.22C321.691 106.442 323.226 102.194 325.089 103.921C325.62 104.413 325.871 105.081 326.036 105.813C327.379 105.692 328.685 105.312 329.883 104.694C329.818 103.758 329.726 103.038 329.988 102.448C330.384 101.542 331.532 101.296 332 102.179C332.087 102.348 332.139 102.533 332.153 102.723C332.166 102.913 332.141 103.103 332.079 103.283C331.808 104.032 330.994 104.527 330.284 104.913C330.496 107.933 330.789 110.976 331.16 113.971L330.78 114.019C330.411 111.075 330.124 108.078 329.912 105.108C328.723 105.698 327.436 106.064 326.114 106.188C326.39 107.644 327 111.552 327.432 115.118L327.05 115.166ZM323.81 105.325C324.179 105.71 324.77 105.877 325.653 105.84C325.502 105.195 325.285 104.615 324.833 104.203C323.825 103.272 323.21 104.678 323.81 105.325ZM330.34 102.602C330.12 103.104 330.203 103.75 330.255 104.492C330.832 104.164 331.501 103.756 331.718 103.154C331.871 102.733 331.7 102.138 331.27 102.028C331.222 102.017 330.494 102.249 330.34 102.602Z" fill="#FAE0B2"/>
<path d="M325.109 113.914C325.109 113.949 325.132 113.984 325.141 114.021L326.206 118.314C326.348 118.885 326.7 119.381 327.191 119.705C327.683 120.028 328.279 120.155 328.86 120.06L331.528 119.62C332.109 119.525 332.633 119.215 332.995 118.752C333.357 118.288 333.531 117.705 333.482 117.12C333.318 115.147 333.135 113.734 333.113 112.601L325.109 113.914Z" fill="#96D9C9"/>
<path d="M321.109 93.1923L318.999 89.3541C318.911 89.1766 318.895 88.972 318.955 88.7832C319.014 88.5944 319.145 88.4359 319.319 88.3409C319.492 88.2458 319.697 88.2216 319.888 88.2733C320.079 88.3249 320.243 88.4485 320.346 88.6181L322.452 92.4563C322.55 92.6349 322.573 92.845 322.515 93.0403C322.458 93.2356 322.325 93.4001 322.146 93.4977C321.967 93.5953 321.757 93.618 321.561 93.5607C321.366 93.5034 321.201 93.3709 321.103 93.1923H321.109Z" fill="#FAE0B2"/>
<path d="M316.505 102.488L311.915 102.087C311.712 102.069 311.524 101.972 311.393 101.816C311.261 101.66 311.198 101.459 311.215 101.256C311.233 101.053 311.33 100.866 311.486 100.735C311.642 100.604 311.844 100.54 312.047 100.558L316.64 100.959C316.843 100.977 317.03 101.074 317.161 101.23C317.292 101.386 317.356 101.588 317.338 101.791C317.32 101.993 317.223 102.181 317.066 102.312C316.91 102.442 316.708 102.506 316.505 102.488Z" fill="#FAE0B2"/>
<path d="M311.953 116.533C311.882 116.462 311.825 116.377 311.787 116.284C311.748 116.191 311.728 116.092 311.728 115.991C311.728 115.89 311.748 115.79 311.787 115.698C311.825 115.605 311.882 115.52 311.953 115.449C313.084 114.333 314.318 113.327 315.639 112.444C315.808 112.34 316.012 112.305 316.206 112.348C316.4 112.39 316.571 112.506 316.681 112.671C316.792 112.836 316.834 113.038 316.799 113.233C316.763 113.429 316.654 113.603 316.492 113.719C315.251 114.548 314.092 115.493 313.03 116.54C312.885 116.68 312.691 116.758 312.49 116.757C312.289 116.755 312.096 116.675 311.953 116.533Z" fill="#FAE0B2"/>
<path d="M332.451 92.9844C332.353 92.9593 332.261 92.9151 332.18 92.8543C332.099 92.7935 332.031 92.7173 331.979 92.6301C331.928 92.5428 331.894 92.4463 331.881 92.3461C331.867 92.2459 331.873 92.1439 331.899 92.046C332.419 90.0985 332.736 88.1026 332.846 86.0899C332.857 85.8867 332.948 85.696 333.099 85.5599C333.251 85.4238 333.45 85.3533 333.654 85.364C333.857 85.3748 334.048 85.4658 334.185 85.6171C334.321 85.7684 334.392 85.9676 334.381 86.1709C334.266 88.2899 333.932 90.3913 333.384 92.4416C333.331 92.6363 333.204 92.8024 333.029 92.904C332.855 93.0056 332.647 93.0345 332.451 92.9844Z" fill="#FAE0B2"/>
<path d="M337.182 98.8779C337.153 98.7814 337.143 98.6801 337.153 98.5797C337.163 98.4794 337.193 98.382 337.24 98.2931C337.288 98.2042 337.353 98.1256 337.431 98.0618C337.509 97.998 337.599 97.9502 337.696 97.9211L342.469 96.4859C342.566 96.4568 342.668 96.447 342.768 96.4571C342.869 96.4672 342.966 96.497 343.056 96.5447C343.145 96.5925 343.223 96.6573 343.287 96.7354C343.351 96.8136 343.399 96.9035 343.428 97.0002C343.458 97.0969 343.467 97.1983 343.457 97.2987C343.447 97.3992 343.417 97.4966 343.37 97.5856C343.322 97.6745 343.257 97.7532 343.179 97.817C343.1 97.8809 343.01 97.9288 342.913 97.9579L338.14 99.395C337.945 99.4533 337.734 99.4315 337.554 99.3346C337.374 99.2376 337.24 99.0734 337.182 98.8779Z" fill="#FAE0B2"/>
<path d="M345.023 111.559C344.953 111.559 344.883 111.55 344.815 111.532C343.158 111.065 341.556 110.423 340.035 109.618C339.944 109.572 339.863 109.508 339.798 109.43C339.732 109.352 339.682 109.262 339.652 109.165C339.621 109.068 339.61 108.965 339.619 108.864C339.629 108.763 339.658 108.664 339.706 108.574C339.754 108.484 339.82 108.405 339.899 108.34C339.978 108.276 340.069 108.228 340.167 108.199C340.265 108.17 340.367 108.161 340.469 108.172C340.57 108.183 340.668 108.214 340.757 108.264C342.181 109.018 343.681 109.618 345.232 110.054C345.41 110.105 345.564 110.218 345.665 110.373C345.766 110.528 345.807 110.714 345.782 110.897C345.757 111.08 345.666 111.248 345.527 111.37C345.387 111.491 345.209 111.559 345.023 111.559Z" fill="#FAE0B2"/>
<path d="M414.94 145.47L412.531 139.783L406.475 138.541C406.32 138.509 406.177 138.434 406.062 138.326C405.947 138.217 405.865 138.078 405.824 137.925C405.784 137.771 405.788 137.61 405.835 137.459C405.882 137.308 405.97 137.173 406.09 137.069L410.762 133.021L410.073 126.886C410.055 126.728 410.082 126.568 410.15 126.425C410.219 126.281 410.327 126.16 410.461 126.074C410.596 125.989 410.751 125.943 410.911 125.941C411.07 125.94 411.227 125.983 411.363 126.066L416.657 129.253L422.289 126.702C422.433 126.637 422.593 126.613 422.75 126.634C422.908 126.655 423.056 126.719 423.179 126.82C423.301 126.92 423.393 127.053 423.444 127.203C423.495 127.353 423.503 127.514 423.466 127.668L422.068 133.682L426.236 138.241C426.343 138.358 426.415 138.502 426.444 138.658C426.473 138.813 426.458 138.973 426.4 139.121C426.343 139.268 426.245 139.397 426.119 139.491C425.992 139.586 425.841 139.644 425.683 139.658L419.523 140.188L416.469 145.555C416.391 145.695 416.276 145.809 416.136 145.886C415.996 145.964 415.837 146 415.678 145.991C415.518 145.982 415.364 145.929 415.234 145.837C415.103 145.744 415.001 145.618 414.94 145.47Z" fill="#F7CC7F"/>
<path d="M453.276 125.961L452.287 129.941L445.695 129.058L443.53 134.699L438.489 134.844L438.563 137.391L445.302 137.198L447.355 131.853L454.213 132.771L455.702 126.78L453.276 125.961Z" fill="#F48C7F"/>
<path d="M394.556 316.773H278.706C274.283 316.773 270.695 313.058 270.695 308.476V303.541C270.695 298.96 274.282 295.245 278.706 295.245H394.556C389.257 301.243 389.165 310.41 394.344 316.522L394.556 316.773Z" fill="#B75742"/>
<path d="M392.77 297.712H328.511C324.089 297.712 320.5 301.427 320.5 306.009C320.5 310.592 324.087 314.305 328.511 314.305H392.776C391.302 311.788 390.526 308.925 390.525 306.009C390.524 303.094 391.299 300.23 392.77 297.712Z" fill="#FAE0B2"/>
<path d="M353.858 280.293C353.894 280.216 353.908 280.132 353.901 280.048C353.894 279.964 353.864 279.884 353.816 279.815C353.768 279.746 353.702 279.691 353.626 279.655C353.549 279.62 353.465 279.605 353.381 279.612H292.08C287.274 279.612 283.38 283.108 283.38 287.43C283.38 291.747 287.274 295.248 292.08 295.248H353.397C353.482 295.255 353.566 295.24 353.643 295.204C353.719 295.168 353.785 295.113 353.834 295.043C353.882 294.974 353.911 294.893 353.918 294.809C353.926 294.725 353.911 294.64 353.875 294.564C352.683 292.374 352.058 289.922 352.055 287.43C352.052 284.938 352.672 282.485 353.858 280.293Z" fill="#86B1F2"/>
<path d="M353.471 281.067H323.09C317.451 281.067 312.88 284 312.88 287.618C312.88 291.235 317.451 294.17 323.09 294.17H353.67C352.643 292.144 352.091 289.912 352.057 287.642C352.022 285.371 352.506 283.123 353.471 281.067Z" fill="#F7CC7F"/>
<path d="M345.624 284.173H341.666C340.816 284.173 340.125 284.458 340.125 284.81V284.867H345.622L345.624 284.173Z" fill="#B75742"/>
<path d="M349 285.77C349 284.887 347.966 284.173 346.691 284.173H341.614C342.582 284.173 343.365 284.716 343.365 285.384L343.341 302.513L346.146 300.305L349.006 302.513L349 285.77Z" fill="#F47458"/>
<path d="M342.587 279.049H306.919C303.756 279.049 301.193 276.009 301.193 272.261C301.193 268.513 303.756 265.475 306.919 265.475H342.587C339.862 269.238 339.755 274.756 342.333 278.662L342.587 279.049Z" fill="#FAE0B2"/>
<path d="M301.197 272.261C301.197 268.513 303.821 265.475 307.059 265.475H343.267C343.354 265.468 343.436 265.427 343.493 265.36C343.55 265.294 343.578 265.207 343.571 265.12C343.576 265.034 343.547 264.949 343.49 264.884C343.433 264.819 343.353 264.779 343.267 264.772H285.827C282.254 264.772 279.357 268.125 279.357 272.261C279.357 276.399 282.254 279.752 285.827 279.752H343.267C343.353 279.745 343.433 279.704 343.49 279.64C343.547 279.575 343.576 279.49 343.571 279.404C343.575 279.361 343.57 279.317 343.556 279.276C343.543 279.235 343.521 279.196 343.493 279.163C343.465 279.13 343.43 279.103 343.392 279.084C343.353 279.064 343.31 279.052 343.267 279.049H307.059C303.821 279.049 301.197 276.009 301.197 272.261Z" fill="#466EB6"/>
<path d="M336.36 268.809H332.404C331.552 268.809 330.861 269.091 330.861 269.435V269.492H336.36V268.809Z" fill="#184655"/>
<path d="M339.734 270.377C339.734 269.512 338.701 268.809 337.427 268.809H332.348C333.316 268.809 334.099 269.343 334.099 269.998L334.075 286.795L336.882 284.635L339.74 286.795L339.734 270.377Z" fill="#3C8F7C"/>
<path d="M399.417 165.057L404.684 163.674L401.114 211.201L394.797 211.41L397.983 166.783C398.012 166.382 398.166 166 398.423 165.69C398.68 165.381 399.028 165.159 399.417 165.057Z" fill="#184655"/>
<path d="M401.586 212.555C401.464 212.568 401.34 212.568 401.218 212.555C400.173 212.432 399.399 211.394 399.489 210.237L402.991 165.547C403.081 164.389 404.002 163.55 405.049 163.674C406.096 163.797 406.868 164.836 406.778 165.994L403.276 210.684C403.202 211.699 402.48 212.474 401.586 212.555Z" fill="#F7CC7F"/>
<path d="M353.125 214.936C353.125 214.969 353.125 215 353.125 215.033C353.289 216.851 354.7 218.213 356.276 218.071L400.744 214.097C402.32 213.957 403.462 212.369 403.298 210.551C403.298 210.474 403.282 210.398 403.269 210.323L353.125 214.936Z" fill="#F7CC7F"/>
<path d="M384.09 262.936C381.178 264.548 372.277 261.722 372.277 261.464C372.15 263.893 362.311 287.666 362.311 287.666V294.98C362.311 294.98 382.583 295.944 382.293 294.155C382.004 292.367 380.911 293.53 376.868 290.151C376.499 289.852 370.831 288.536 372.366 285.183C375.469 278.425 382.041 267.157 384.09 262.936Z" fill="#F7A491"/>
<path d="M361.653 295.245H383.845C384.645 295.164 384.833 294.509 384.549 294.117C383.967 293.303 379.713 291.382 376.855 290.109C371.879 290.689 363.122 288.777 362.321 287.643C360.212 290.468 361.2 295.153 361.653 295.245Z" fill="#3C8F7C"/>
<path d="M356.777 245.87C356.477 244.97 375.884 236.747 376.752 237.688C378.289 239.344 366.248 270.544 366.248 270.544L380.069 274.764C380.069 274.764 394.443 238.723 393.844 232.131C393.245 225.538 386.044 218.049 370.44 222.842C354.837 227.636 356.777 245.87 356.777 245.87Z" fill="#355389"/>
<path d="M396.966 267.037C393.69 266.443 389.444 266.274 386.045 266.215C386.445 269.236 388.39 284.731 388.036 285.684C387.14 288.02 385.514 290.005 383.399 291.346C383.399 291.346 398.468 304.921 399.378 303.353C400.289 301.786 398.706 301.995 397.72 296.823C397.633 296.363 395.453 289.143 395.324 285.25C395.062 277.823 396.854 271.163 396.966 267.037Z" fill="#F7A491"/>
<path d="M392.131 216.345C390.028 215.227 384.575 215.186 378.571 215.574C366.871 216.35 355.318 218.614 344.192 222.312L336.745 224.774L336.769 217.151C336.769 217.151 313.077 213.193 312.259 219.056C311.019 227.888 312.56 245.809 320.453 249.809C344.972 262.237 379.332 230.013 379.457 234.228C379.623 239.89 384.405 260.96 385.627 270.184C389.025 270.243 394.865 270.241 397.399 269.659C397.884 251.589 398.116 219.534 392.131 216.345Z" fill="#466EB6"/>
<path d="M382.946 291.664L399.887 305.173C400.558 305.619 401.114 305.234 401.148 304.748C401.214 303.749 399.143 299.572 397.74 296.779C393.52 294.076 387.953 287.027 388.054 285.647C386.263 287.152 382.653 291.309 382.946 291.664Z" fill="#3C8F7C"/>
<path d="M344.596 142.655C344.028 137.461 343.429 132.248 339.117 128.441C335.627 125.361 331.193 124.838 326.803 126.487C314.373 131.157 320.777 142.179 304.928 153.292C300.002 156.746 294.575 159.108 290.867 163.758C285.678 170.268 287.637 178.095 292.366 183.323C315 208.332 340.267 174.557 342.082 166.448C343.431 160.417 344.963 145.998 344.596 142.655Z" fill="#13375B"/>
<path d="M340.007 171.856C338.863 169.758 337.611 167.721 336.255 165.753C334.337 162.349 329.383 160.628 329.383 160.628C329.383 160.628 327.725 160.661 325.823 160.755C325.754 160.992 325.627 161.208 325.454 161.385C324.739 161.92 320.641 161.23 317.994 163.024C309.121 170.618 311.576 207.427 312.281 219.052L339.303 219.308C339.303 219.308 335.896 194.284 341.386 187.866C345.204 183.395 342.744 176.909 340.007 171.856Z" fill="#50BFA5"/>
<path d="M327.82 148.179C327.82 148.179 326.335 158.77 325.298 161.344C324.26 163.918 331.01 169.423 336.611 171.096C342.211 172.769 334.897 165.41 335.137 162.658C335.376 159.905 336.39 146.88 336.39 146.88L327.82 148.179Z" fill="#F7A491"/>
<path d="M336.099 150.613C336.263 148.459 336.382 146.878 336.382 146.878L327.82 148.179C327.82 148.179 327.605 149.423 327.365 151.182C330.837 153.193 333.957 152.558 336.099 150.613Z" fill="#F47458"/>
<path d="M330.505 128.833C328.275 129.453 326.339 130.848 325.047 132.767C322.964 135.941 321.534 145.288 328.397 149.651C335.26 154.014 340.595 147.842 340.684 141.824C340.772 135.805 339.48 127.771 330.505 128.833Z" fill="#F7A491"/>
<path d="M342.255 139.939C341.669 141.391 340.508 142.293 339.661 141.952C338.813 141.612 338.601 140.158 339.187 138.707C339.773 137.255 340.934 136.353 341.78 136.694C342.626 137.034 342.84 138.488 342.255 139.939Z" fill="#F7A491"/>
<path d="M331.517 128.636C331.517 128.636 327.216 138.27 323.436 139.124C319.656 139.978 319.712 144.828 319.712 144.828C319.712 144.828 319.796 133.632 323.338 131.065C326.88 128.498 331.517 128.636 331.517 128.636Z" fill="#13375B"/>
<path d="M324.938 141.128C325.436 142.692 324.98 144.232 323.921 144.569C322.861 144.906 321.599 143.908 321.101 142.344C320.604 140.78 321.059 139.238 322.119 138.902C323.178 138.565 324.44 139.568 324.938 141.128Z" fill="#F7A491"/>
<path d="M373.271 210.689C371.651 210.104 369.237 210.03 369.277 209.817C369.439 208.952 376.603 211.727 375.635 210.465C375.097 209.762 369.738 207.272 368.433 207.683C367.167 208.082 358.867 210.408 358.867 210.408L336.18 205.099C336.18 205.099 330.454 192.107 329.894 180.944C325.161 181.584 321.938 182.751 317.825 185.03C319.808 195.702 324.63 213.009 329.962 216.257C332.203 217.622 358.979 214.621 358.979 214.621C358.979 214.621 364.877 214.205 365.844 213.836C366.581 213.554 368.459 212.496 369.482 212.205C371.811 211.548 375.958 213.201 375.971 212.744C375.98 212.413 374.927 211.287 373.271 210.689Z" fill="#F7A491"/>
<path d="M330.034 169.017C329.816 165.583 328.511 162.266 324.851 161.199C322.583 160.536 320.038 161.169 318.217 162.649C316.061 164.408 315.453 167.228 315.469 169.898C315.492 175.97 315.906 182.248 317.016 188.219C321.129 185.939 325.931 184.569 330.666 183.93C330.671 183.893 330.323 173.556 330.034 169.017Z" fill="#96D9C9"/>
<path d="M259.742 175.499L224.569 168.96C224.229 168.896 223.929 168.701 223.734 168.417C223.539 168.133 223.464 167.783 223.528 167.444L227.934 143.82C227.997 143.481 228.193 143.181 228.478 142.986C228.762 142.792 229.113 142.717 229.452 142.78L264.623 149.32C264.792 149.35 264.953 149.413 265.097 149.505C265.241 149.598 265.365 149.718 265.462 149.859C265.559 150 265.626 150.159 265.661 150.326C265.696 150.494 265.697 150.666 265.664 150.834L261.258 174.46C261.195 174.798 261 175.098 260.715 175.293C260.431 175.488 260.081 175.562 259.742 175.499Z" fill="#F7CC7F"/>
<path d="M242.999 148.488L232.292 146.497C232.124 146.466 231.964 146.402 231.821 146.308C231.678 146.215 231.554 146.095 231.458 145.954C231.361 145.813 231.294 145.655 231.258 145.488C231.223 145.321 231.221 145.149 231.253 144.981L231.922 141.387C231.985 141.049 232.181 140.749 232.466 140.554C232.75 140.359 233.101 140.285 233.44 140.348L244.145 142.339C244.314 142.369 244.475 142.432 244.619 142.524C244.763 142.617 244.887 142.737 244.984 142.878C245.081 143.019 245.149 143.178 245.183 143.345C245.218 143.513 245.219 143.685 245.187 143.853L244.516 147.448C244.453 147.787 244.257 148.087 243.973 148.282C243.689 148.477 243.338 148.551 242.999 148.488Z" fill="#F7CC7F"/>
<path d="M261.343 174.596C261.254 174.907 261.052 175.173 260.777 175.343C260.501 175.513 260.172 175.575 259.854 175.516L224.46 168.938C224.142 168.878 223.858 168.703 223.663 168.446C223.467 168.189 223.374 167.868 223.402 167.547L225.245 146.37C225.261 146.19 225.314 146.014 225.402 145.855C225.489 145.697 225.609 145.558 225.754 145.448C225.899 145.338 226.065 145.26 226.241 145.218C226.418 145.177 226.602 145.172 226.78 145.205L266.109 152.518C266.286 152.551 266.455 152.621 266.604 152.723C266.753 152.825 266.879 152.957 266.975 153.11C267.07 153.263 267.132 153.435 267.158 153.613C267.183 153.792 267.171 153.974 267.122 154.148L261.343 174.596Z" fill="#FAE0B2"/>
<path d="M422.667 97.2164L416.644 98.8595L415.347 91.5713L417.317 91.2217L418.231 96.3534L422.14 95.2881L422.667 97.2164Z" fill="#50BFA5"/>
<path d="M230.783 197.3C232.292 197.176 234.609 197.84 235.646 198.543C235.801 198.689 236.995 199.163 238.237 201.217L237.957 201.401C236.649 200.032 235.768 199.725 234.717 199.41C232.989 198.967 231.245 199.298 231.103 199.375L230.783 197.3Z" fill="#355389"/>
<path d="M238.097 201.313C238.097 201.313 228.907 202.843 229.764 210.012C230.621 217.181 240.316 222.756 248.97 218.323C260.61 212.36 256.012 197.196 247.726 196.024C239.441 194.852 238.097 201.313 238.097 201.313Z" fill="#F47458"/>
<path d="M241.997 198.157C241.997 198.157 244.392 195.699 249.646 197.934C254.9 200.17 255.28 210.597 250.595 209.992C245.911 209.386 238.25 199.66 241.997 198.157Z" fill="#F48C7F"/>
<path d="M305.216 102.928L267.419 116.389C266.834 116.597 266.19 116.565 265.629 116.3C265.067 116.034 264.635 115.556 264.426 114.972L257.447 95.4463C257.238 94.8622 257.271 94.2192 257.537 93.6588C257.803 93.0985 258.281 92.6666 258.866 92.4581L296.663 78.9949C297.248 78.7871 297.892 78.8195 298.453 79.0852C299.014 79.3508 299.447 79.8279 299.656 80.4117L306.631 99.9396C306.735 100.229 306.78 100.535 306.765 100.842C306.75 101.148 306.675 101.449 306.544 101.726C306.412 102.004 306.227 102.253 305.999 102.459C305.772 102.665 305.505 102.824 305.216 102.928Z" fill="#86B1F2"/>
<path d="M280.164 97.9082C280.662 99.3016 280.735 100.811 280.373 102.246C280.012 103.68 279.232 104.976 278.134 105.968C277.035 106.961 275.666 107.606 274.2 107.821C272.734 108.037 271.237 107.814 269.899 107.18C268.56 106.546 267.439 105.53 266.679 104.26C265.918 102.99 265.552 101.524 265.626 100.047C265.701 98.5691 266.212 97.1467 267.096 95.9594C267.98 94.7721 269.197 93.8732 270.592 93.3763C271.519 93.0462 272.501 92.9015 273.484 92.9506C274.466 92.9997 275.429 93.2416 276.318 93.6625C277.207 94.0833 278.004 94.6749 278.664 95.4034C279.324 96.1319 279.834 96.983 280.164 97.9082Z" fill="white"/>
<path d="M274.182 96.8613C274.33 97.2726 274.352 97.7185 274.246 98.1424C274.139 98.5663 273.909 98.9492 273.585 99.2426C273.261 99.536 272.856 99.7267 272.423 99.7906C271.991 99.8544 271.548 99.7885 271.153 99.6013C270.757 99.4141 270.426 99.1139 270.202 98.7388C269.977 98.3636 269.87 97.9304 269.892 97.494C269.914 97.0576 270.065 96.6375 270.327 96.2871C270.588 95.9367 270.948 95.6716 271.361 95.5254C271.912 95.33 272.519 95.3608 273.048 95.6112C273.577 95.8616 273.985 96.3111 274.182 96.8613Z" fill="#86B1F2"/>
<path d="M272.451 101.304L274.17 100.693C274.823 100.46 275.543 100.496 276.17 100.793C276.797 101.09 277.28 101.623 277.514 102.276L277.78 103.021L271.125 105.391L270.859 104.646C270.743 104.322 270.693 103.979 270.71 103.635C270.727 103.292 270.813 102.955 270.961 102.645C271.109 102.335 271.316 102.057 271.572 101.826C271.828 101.596 272.127 101.419 272.451 101.304Z" fill="#86B1F2"/>
<path d="M281.097 93.8271C280.872 93.8264 280.655 93.7467 280.483 93.602C280.311 93.4572 280.196 93.2568 280.157 93.0357C280.119 92.8146 280.16 92.5871 280.272 92.393C280.385 92.1989 280.563 92.0506 280.774 91.9742L297.297 86.0862C297.415 86.0442 297.54 86.0258 297.666 86.0321C297.791 86.0384 297.914 86.0692 298.027 86.1229C298.14 86.1765 298.242 86.2519 298.326 86.3448C298.41 86.4376 298.475 86.5461 298.517 86.664C298.559 86.7819 298.578 86.907 298.571 87.032C298.565 87.157 298.534 87.2796 298.48 87.3927C298.427 87.5058 298.351 87.6073 298.258 87.6912C298.165 87.7752 298.057 87.84 297.938 87.8821L281.417 93.7701C281.314 93.8071 281.206 93.8264 281.097 93.8271Z" fill="white"/>
<path d="M285.556 97.9395C285.33 97.9409 285.111 97.8622 284.938 97.7174C284.764 97.5725 284.648 97.371 284.61 97.1487C284.571 96.9264 284.613 96.6976 284.728 96.5031C284.842 96.3087 285.022 96.1611 285.236 96.0866L298.136 91.4866C298.374 91.4017 298.637 91.4149 298.865 91.5233C299.094 91.6316 299.27 91.8263 299.356 92.0644C299.441 92.3025 299.427 92.5647 299.319 92.7931C299.21 93.0215 299.015 93.1976 298.777 93.2825L285.877 97.8825C285.774 97.9197 285.666 97.939 285.556 97.9395Z" fill="white"/>
<path d="M363.944 250.216H272.678C271.317 250.217 270.013 250.757 269.05 251.718C268.088 252.679 267.548 253.982 267.548 255.34V259.65C267.548 261.009 268.088 262.312 269.05 263.273C270.013 264.234 271.317 264.774 272.678 264.774H363.944L363.896 264.724C362.018 262.772 360.973 260.168 360.982 257.461C360.991 254.754 362.053 252.156 363.944 250.216Z" fill="#F47458"/>
<path d="M362.33 252.371H313.54C312.179 252.371 310.873 252.911 309.911 253.872C308.948 254.833 308.408 256.136 308.408 257.495C308.408 258.854 308.948 260.158 309.911 261.119C310.873 262.08 312.179 262.62 313.54 262.62H362.328C361.446 261.055 360.984 259.29 360.984 257.495C360.984 255.7 361.448 253.935 362.33 252.371Z" fill="#FAE0B2"/>
<path d="M438.64 250.636L431.722 233.312C431.639 233.105 431.598 232.883 431.601 232.66C431.604 232.437 431.651 232.216 431.739 232.011C431.828 231.806 431.956 231.62 432.116 231.465C432.276 231.309 432.466 231.187 432.673 231.104L457.567 221.197C457.774 221.115 457.996 221.074 458.22 221.076C458.443 221.079 458.664 221.126 458.869 221.214C459.075 221.303 459.261 221.43 459.417 221.59C459.573 221.75 459.695 221.939 459.778 222.147L466.696 239.476C466.779 239.683 466.82 239.905 466.817 240.128C466.814 240.351 466.767 240.572 466.679 240.777C466.591 240.982 466.463 241.168 466.303 241.323C466.142 241.479 465.953 241.602 465.745 241.684L440.852 251.591C440.644 251.673 440.422 251.714 440.198 251.711C439.974 251.708 439.753 251.66 439.548 251.571C439.342 251.483 439.156 251.354 439.001 251.194C438.845 251.033 438.723 250.844 438.64 250.636Z" fill="#FAE0B2"/>
<path d="M462.124 240.615L455.908 225.043C455.884 224.984 455.872 224.92 455.873 224.856C455.873 224.792 455.887 224.729 455.912 224.67C455.937 224.612 455.974 224.558 456.02 224.514C456.065 224.469 456.12 224.434 456.179 224.41C456.3 224.362 456.434 224.364 456.553 224.415C456.672 224.466 456.767 224.562 456.815 224.682L463.031 240.254C463.079 240.374 463.077 240.508 463.026 240.627C462.974 240.746 462.878 240.839 462.758 240.887C462.638 240.935 462.504 240.933 462.385 240.882C462.266 240.831 462.172 240.735 462.124 240.615Z" fill="#466EB6"/>
<path d="M459.163 238.563L454.058 225.779C454.01 225.659 454.012 225.525 454.063 225.406C454.114 225.288 454.21 225.194 454.331 225.146C454.39 225.122 454.454 225.11 454.518 225.111C454.582 225.112 454.645 225.125 454.704 225.151C454.763 225.176 454.817 225.213 454.861 225.259C454.906 225.304 454.941 225.359 454.965 225.418L460.069 238.203C460.115 238.323 460.112 238.456 460.06 238.574C460.009 238.692 459.912 238.784 459.793 238.832C459.674 238.879 459.54 238.878 459.422 238.827C459.304 238.777 459.211 238.682 459.163 238.563Z" fill="#466EB6"/>
<path d="M458.425 242.087L452.208 226.515C452.184 226.456 452.172 226.392 452.173 226.328C452.174 226.264 452.187 226.2 452.213 226.141C452.238 226.083 452.275 226.029 452.322 225.985C452.368 225.94 452.422 225.905 452.482 225.882C452.542 225.858 452.605 225.846 452.669 225.847C452.734 225.848 452.797 225.861 452.856 225.887C452.915 225.912 452.968 225.949 453.013 225.995C453.057 226.04 453.093 226.095 453.116 226.154L459.332 241.726C459.38 241.846 459.378 241.98 459.327 242.099C459.276 242.218 459.18 242.311 459.059 242.359C458.939 242.407 458.805 242.405 458.686 242.354C458.567 242.303 458.473 242.207 458.425 242.087Z" fill="#466EB6"/>
<path d="M455.158 239.27L450.367 227.251C450.319 227.131 450.321 226.997 450.372 226.878C450.423 226.76 450.519 226.666 450.639 226.618C450.699 226.594 450.762 226.582 450.827 226.583C450.891 226.584 450.954 226.597 451.013 226.623C451.072 226.648 451.125 226.685 451.17 226.731C451.215 226.777 451.25 226.831 451.273 226.89L456.065 238.909C456.112 239.029 456.111 239.163 456.059 239.282C456.008 239.401 455.912 239.494 455.792 239.542C455.672 239.59 455.537 239.588 455.419 239.537C455.3 239.486 455.206 239.39 455.158 239.27Z" fill="#466EB6"/>
<path d="M461.956 223.376L461.831 223.063C461.821 223.036 461.806 223.011 461.787 222.99C461.768 222.969 461.744 222.952 461.718 222.94C461.692 222.927 461.664 222.921 461.635 222.919C461.607 222.918 461.578 222.923 461.551 222.933L459.188 223.873C459.135 223.896 459.093 223.939 459.072 223.993C459.05 224.047 459.051 224.107 459.074 224.16L459.199 224.474C459.22 224.528 459.26 224.572 459.313 224.597C459.365 224.621 459.425 224.624 459.48 224.605L461.844 223.665C461.897 223.641 461.938 223.598 461.959 223.543C461.98 223.489 461.979 223.429 461.956 223.376Z" fill="#355389"/>
<path d="M462.493 224.723L462.367 224.41C462.358 224.383 462.343 224.358 462.323 224.337C462.304 224.316 462.281 224.299 462.255 224.286C462.228 224.274 462.2 224.267 462.172 224.266C462.143 224.265 462.114 224.27 462.087 224.279L459.725 225.22C459.671 225.243 459.63 225.286 459.608 225.34C459.587 225.393 459.588 225.454 459.61 225.507L459.736 225.821C459.756 225.875 459.797 225.919 459.849 225.944C459.901 225.968 459.961 225.971 460.016 225.952L462.378 225.012C462.432 224.988 462.474 224.945 462.495 224.891C462.516 224.837 462.515 224.776 462.493 224.723Z" fill="#355389"/>
<path d="M463.027 226.064L462.902 225.751C462.892 225.724 462.877 225.7 462.858 225.678C462.838 225.657 462.815 225.64 462.789 225.628C462.763 225.616 462.735 225.609 462.706 225.608C462.677 225.606 462.649 225.611 462.622 225.621L460.259 226.561C460.233 226.572 460.209 226.589 460.188 226.609C460.168 226.63 460.153 226.654 460.142 226.681C460.132 226.708 460.127 226.736 460.128 226.765C460.128 226.794 460.135 226.822 460.147 226.848L460.27 227.163C460.29 227.217 460.331 227.261 460.384 227.286C460.437 227.31 460.497 227.313 460.552 227.293L462.915 226.351C462.941 226.34 462.965 226.323 462.985 226.303C463.005 226.282 463.02 226.258 463.031 226.231C463.041 226.204 463.046 226.176 463.046 226.147C463.045 226.119 463.039 226.09 463.027 226.064Z" fill="#355389"/>
<path d="M463.563 227.406L463.438 227.093C463.428 227.066 463.413 227.041 463.394 227.02C463.375 226.998 463.351 226.981 463.325 226.969C463.299 226.957 463.271 226.95 463.242 226.949C463.213 226.948 463.185 226.952 463.158 226.962L460.795 227.902C460.742 227.925 460.7 227.969 460.679 228.022C460.657 228.076 460.658 228.136 460.681 228.189L460.806 228.504C460.816 228.531 460.831 228.556 460.851 228.577C460.87 228.598 460.894 228.615 460.92 228.627C460.946 228.639 460.974 228.645 461.002 228.646C461.031 228.647 461.06 228.643 461.086 228.633L463.449 227.693C463.502 227.67 463.544 227.626 463.565 227.573C463.587 227.519 463.586 227.459 463.563 227.406Z" fill="#355389"/>
<path d="M464.098 228.747L463.972 228.434C463.963 228.407 463.948 228.382 463.928 228.361C463.909 228.34 463.886 228.323 463.86 228.311C463.834 228.298 463.805 228.291 463.777 228.29C463.748 228.289 463.719 228.294 463.692 228.304L461.33 229.244C461.277 229.267 461.235 229.31 461.213 229.364C461.192 229.418 461.193 229.478 461.215 229.531L461.341 229.844C461.351 229.871 461.366 229.896 461.385 229.917C461.405 229.938 461.428 229.955 461.455 229.967C461.481 229.98 461.509 229.986 461.538 229.988C461.567 229.989 461.596 229.984 461.623 229.974L463.985 229.034C464.012 229.023 464.035 229.006 464.055 228.986C464.075 228.965 464.091 228.941 464.101 228.914C464.112 228.887 464.117 228.859 464.116 228.83C464.116 228.801 464.109 228.773 464.098 228.747Z" fill="#355389"/>
<path d="M464.634 230.088L464.509 229.776C464.499 229.749 464.484 229.724 464.465 229.702C464.445 229.681 464.422 229.664 464.396 229.652C464.37 229.64 464.342 229.633 464.313 229.632C464.284 229.63 464.256 229.635 464.229 229.645L461.866 230.585C461.813 230.608 461.771 230.651 461.75 230.705C461.728 230.759 461.729 230.819 461.752 230.872L461.877 231.185C461.887 231.212 461.902 231.237 461.921 231.258C461.94 231.279 461.964 231.297 461.99 231.309C462.016 231.321 462.044 231.328 462.073 231.329C462.102 231.33 462.13 231.326 462.157 231.316L464.52 230.375C464.573 230.352 464.615 230.309 464.636 230.255C464.658 230.202 464.657 230.142 464.634 230.088Z" fill="#355389"/>
<path d="M465.168 231.43L465.043 231.117C465.034 231.09 465.019 231.065 464.999 231.044C464.98 231.023 464.956 231.005 464.93 230.993C464.904 230.981 464.876 230.974 464.847 230.973C464.819 230.972 464.79 230.976 464.763 230.986L462.401 231.927C462.374 231.938 462.35 231.954 462.33 231.975C462.311 231.996 462.295 232.02 462.284 232.047C462.274 232.073 462.269 232.102 462.27 232.13C462.27 232.159 462.277 232.187 462.288 232.214L462.413 232.526C462.423 232.553 462.438 232.578 462.457 232.599C462.477 232.621 462.5 232.638 462.526 232.65C462.552 232.662 462.58 232.669 462.609 232.67C462.638 232.671 462.667 232.667 462.694 232.657L465.056 231.717C465.082 231.705 465.106 231.689 465.126 231.668C465.146 231.648 465.162 231.623 465.172 231.597C465.183 231.57 465.188 231.541 465.187 231.513C465.186 231.484 465.18 231.456 465.168 231.43Z" fill="#355389"/>
<path d="M465.705 232.771L465.579 232.458C465.57 232.431 465.555 232.406 465.535 232.385C465.516 232.364 465.493 232.347 465.467 232.335C465.441 232.322 465.412 232.316 465.384 232.314C465.355 232.313 465.326 232.318 465.299 232.328L462.937 233.268C462.884 233.291 462.842 233.334 462.82 233.388C462.799 233.442 462.8 233.502 462.823 233.555L462.948 233.868C462.958 233.895 462.972 233.92 462.992 233.941C463.011 233.962 463.035 233.979 463.061 233.991C463.087 234.003 463.115 234.01 463.144 234.012C463.172 234.013 463.201 234.008 463.228 233.998L465.59 233.058C465.644 233.035 465.686 232.992 465.707 232.938C465.728 232.884 465.728 232.824 465.705 232.771Z" fill="#355389"/>
<path d="M466.243 234.112L466.118 233.8C466.108 233.773 466.093 233.748 466.074 233.727C466.054 233.705 466.031 233.688 466.005 233.676C465.979 233.664 465.951 233.657 465.922 233.656C465.893 233.655 465.864 233.659 465.838 233.669L463.475 234.609C463.449 234.621 463.425 234.637 463.405 234.658C463.385 234.678 463.369 234.703 463.359 234.729C463.348 234.756 463.343 234.785 463.344 234.813C463.345 234.842 463.351 234.87 463.363 234.896L463.488 235.209C463.498 235.236 463.512 235.261 463.532 235.282C463.551 235.303 463.575 235.321 463.601 235.333C463.627 235.345 463.655 235.352 463.684 235.353C463.712 235.354 463.741 235.35 463.768 235.34L466.131 234.399C466.157 234.388 466.181 234.372 466.201 234.351C466.221 234.33 466.236 234.306 466.247 234.279C466.257 234.253 466.262 234.224 466.261 234.195C466.261 234.167 466.255 234.139 466.243 234.112Z" fill="#355389"/>
<path d="M466.775 235.454L466.65 235.141C466.64 235.114 466.625 235.089 466.606 235.068C466.587 235.047 466.563 235.029 466.537 235.017C466.511 235.005 466.483 234.998 466.454 234.997C466.426 234.996 466.397 235 466.37 235.01L464.007 235.951C463.954 235.974 463.912 236.017 463.891 236.071C463.87 236.124 463.87 236.184 463.893 236.238L464.018 236.55C464.028 236.577 464.043 236.602 464.062 236.624C464.082 236.645 464.105 236.662 464.131 236.674C464.157 236.686 464.186 236.693 464.214 236.694C464.243 236.696 464.272 236.691 464.299 236.681L466.661 235.741C466.714 235.718 466.756 235.675 466.778 235.621C466.799 235.567 466.798 235.507 466.775 235.454Z" fill="#355389"/>
<path d="M467.31 236.795L467.186 236.48C467.166 236.426 467.125 236.382 467.072 236.358C467.019 236.334 466.959 236.331 466.904 236.352L464.542 237.29C464.489 237.314 464.447 237.357 464.426 237.412C464.405 237.466 464.406 237.526 464.429 237.579L464.555 237.892C464.564 237.919 464.579 237.944 464.599 237.965C464.618 237.986 464.642 238.003 464.668 238.015C464.694 238.028 464.722 238.034 464.751 238.036C464.779 238.037 464.808 238.032 464.835 238.022L467.197 237.082C467.224 237.071 467.248 237.054 467.267 237.034C467.287 237.013 467.303 236.989 467.314 236.962C467.324 236.935 467.329 236.907 467.328 236.878C467.328 236.85 467.321 236.821 467.31 236.795Z" fill="#355389"/>
<path d="M467.846 238.136L467.721 237.822C467.701 237.768 467.66 237.724 467.608 237.7C467.555 237.675 467.495 237.672 467.441 237.691L465.078 238.633C465.025 238.656 464.983 238.699 464.962 238.753C464.94 238.807 464.941 238.867 464.964 238.92L465.089 239.233C465.099 239.26 465.114 239.285 465.133 239.306C465.153 239.327 465.176 239.345 465.202 239.357C465.228 239.369 465.256 239.376 465.285 239.377C465.314 239.378 465.342 239.374 465.369 239.364L467.734 238.424C467.787 238.4 467.828 238.357 467.849 238.303C467.87 238.249 467.869 238.189 467.846 238.136Z" fill="#355389"/>
<path d="M474.374 236.756L464.494 250.803C464.471 250.834 464.454 250.869 464.442 250.906L463.434 253.992C463.41 254.07 463.41 254.154 463.436 254.232C463.462 254.31 463.513 254.377 463.579 254.425C463.646 254.473 463.727 254.498 463.809 254.497C463.891 254.496 463.971 254.469 464.037 254.42L466.681 252.43C466.713 252.405 466.741 252.376 466.764 252.343L476.67 238.26C476.701 238.217 476.723 238.168 476.734 238.117C476.745 238.065 476.746 238.012 476.736 237.96C476.725 237.908 476.705 237.859 476.675 237.816C476.645 237.772 476.606 237.736 476.561 237.708L474.902 236.646C474.817 236.592 474.714 236.574 474.616 236.595C474.517 236.615 474.43 236.673 474.374 236.756Z" fill="#B75742"/>
<path d="M466.753 252.358L466.729 252.393L464.177 254.314L463.482 253.848L464.437 250.923C465.183 251.331 466.079 251.751 466.753 252.358Z" fill="#F7CC7F"/>
<path d="M374.284 84.686C375.707 85.8194 378.182 89.47 381.337 92.0257C383.18 93.5235 384.606 93.1426 386.963 93.4278C398.146 94.7765 395.116 97.06 396.458 97.2918C396.076 98.1677 392.588 105.563 391.941 107.057C391.34 108.435 390.302 109.051 388.799 108.845C386.486 108.525 384.153 108.293 381.875 107.795C376.039 106.53 372.792 103.616 368.606 100.078C367.501 99.1373 367.224 97.9671 367.799 96.6386C370.473 90.4525 373.989 85.2545 374.284 84.686Z" fill="#466EB6"/>
<path d="M397.663 106.179C397.613 108.612 397.799 109.099 396.752 108.731C396.12 108.501 395.504 108.227 394.91 107.912C394.491 107.697 394.475 107.412 394.816 107.07C395.311 106.571 395.822 106.087 396.318 105.598C396.148 105.124 396.15 104.606 396.323 104.133C396.496 103.661 396.829 103.264 397.265 103.011C397.449 102.904 397.314 103.13 398.872 99.5514C393.721 98.9166 390.087 98.4915 383.804 97.7114C382.155 97.5162 380.599 96.8397 379.332 95.7665C374.845 92.019 370.361 88.2685 365.879 84.5149C365.271 84.0071 365.193 83.26 365.676 82.6859C366.045 82.248 366.535 82.2259 367.062 82.2922C368.496 82.4762 382.555 84.215 383.983 84.3824C385.818 84.5825 387.551 85.3265 388.959 86.5187C393.367 90.206 397.781 93.886 402.202 97.5587C402.808 98.0628 402.972 98.5265 402.755 99.0877C402.521 99.7041 402.017 99.9985 401.24 99.8237C400.687 99.7041 400.436 99.8715 400.245 100.387C399.378 102.712 398.77 103.228 398.982 104.078C399.15 104.759 398.369 105.894 397.663 106.179Z" fill="#86B1F2"/>
<path d="M420.988 271.472L423.549 273.912C429.61 279.683 434.552 286.52 438.128 294.082L438.521 294.911C438.521 294.911 445.231 295.504 446.167 289.447C440.343 282.912 435.391 275.651 431.437 267.845L430.224 265.013L420.988 271.472Z" fill="#466EB6"/>
<path d="M430.217 265.006C430.547 265.477 428.743 267.299 426.198 269.072C423.653 270.846 421.303 271.926 420.975 271.464C420.647 271.003 422.449 269.15 425.005 267.376C427.561 265.602 429.889 264.533 430.217 265.006Z" fill="#86B1F2"/>
<path d="M430.228 265.023C430.228 265.023 425.12 269.339 423.015 269.779L423.666 270.662C424.541 270.184 425.389 269.656 426.205 269.082C428.719 267.319 430.506 265.512 430.228 265.023Z" fill="#355389"/>
<path d="M437.052 277.555C437.061 278.291 436.775 281.511 431.424 282.85C431.775 283.329 432.121 283.812 432.461 284.3C435.85 283.299 437.373 281.564 438.058 280.241C438.165 280.033 438.296 279.752 438.384 279.535C437.931 278.88 437.487 278.22 437.052 277.555Z" fill="#B75742"/>
<path d="M431.905 281.901L424.028 281.619L425.895 283.202L424.78 285.222L432.235 283.325L431.905 281.901Z" fill="#B75742"/>
<path d="M432.622 283.73L429.824 288.597L431.793 287.848L432.55 289.395L433.864 284.276L432.622 283.73Z" fill="#B75742"/>
<path d="M433.691 285.049C433.18 285.099 432.667 284.996 432.216 284.753C431.765 284.51 431.396 284.138 431.157 283.686C430.918 283.233 430.82 282.719 430.875 282.21C430.93 281.701 431.135 281.22 431.465 280.828C431.794 280.437 432.233 280.152 432.726 280.01C433.219 279.868 433.742 279.876 434.23 280.033C434.718 280.19 435.148 280.488 435.466 280.89C435.783 281.292 435.974 281.779 436.013 282.289C436.042 282.623 436.005 282.959 435.904 283.278C435.803 283.597 435.64 283.894 435.425 284.15C435.209 284.406 434.945 284.618 434.647 284.772C434.35 284.926 434.025 285.02 433.691 285.049Z" fill="#F47458"/>
<path d="M450.409 174.616L433.823 159.839C432.745 158.878 433.193 156.895 434.68 156.063L447.917 148.578C448.765 148.1 449.72 148.144 450.333 148.692L466.919 163.469C467.997 164.43 467.549 166.413 466.062 167.245L452.825 174.728C451.977 175.21 451.023 175.168 450.409 174.616Z" fill="#9BC1F9"/>
<path d="M449.622 162.864L448.24 151.509C448.225 151.282 448.286 151.057 448.414 150.868C448.543 150.68 448.73 150.541 448.948 150.472C449.042 150.434 449.144 150.418 449.245 150.426C449.346 150.434 449.444 150.465 449.531 150.517C449.619 150.569 449.693 150.641 449.748 150.726C449.803 150.811 449.837 150.908 449.849 151.009L451.12 161.456L463.698 164.492C464.107 164.592 464.297 165.033 464.12 165.479C463.943 165.924 463.466 166.205 463.055 166.106L449.622 162.864Z" fill="white"/>
<path d="M233.039 110.858L234.752 114.246L238.626 114.12L240.279 118.051L244.363 116.649L246.429 121.011L250.348 120.181L253.022 124.056L251.556 125.067L249.554 122.17L245.417 123.046L243.432 118.851L239.28 120.277L237.456 115.94L233.674 116.062L232.084 112.923L229.618 113.522L229.196 111.791L233.039 110.858Z" fill="#F7CC7F"/>
<path d="M440.461 197.482L443.981 198.909L446.819 196.275L450.652 198.155L452.809 194.418L457.237 196.354L459.647 193.158L464.212 194.324L463.77 196.048L460.357 195.176L457.814 198.551L453.557 196.69L451.364 200.49L447.134 198.415L444.365 200.987L441.101 199.664L439.634 201.734L438.178 200.705L440.461 197.482Z" fill="#50BFA5"/>
</svg>
