<svg width="143" height="143" viewBox="0 0 143 143" fill="none" xmlns="http://www.w3.org/2000/svg">
<g clip-path="url(#clip0_53_948)">
<path d="M74.6877 14.3005C74.6877 10.5244 71.6157 7.45264 67.8396 7.45264C64.0635 7.45264 60.9915 10.5246 60.9915 14.3005C60.9915 18.0763 64.0635 21.1483 67.8396 21.1483C71.6157 21.1483 74.6877 18.0763 74.6877 14.3005ZM65.1812 14.3005C65.1812 12.8347 66.3738 11.6421 67.8398 11.6421C69.3059 11.6421 70.4985 12.8347 70.4985 14.3005C70.4985 15.7662 69.3059 16.9588 67.8398 16.9588C66.3738 16.9588 65.1812 15.7662 65.1812 14.3005Z" fill="#192E45"/>
<path d="M128.863 51.4814C128.863 37.9533 117.858 26.9475 104.33 26.9475C99.498 26.9475 94.9887 28.3521 91.1869 30.7736C87.2544 27.7944 82.7828 25.6069 78.0532 24.3101C80.6384 21.6808 82.1399 18.1187 82.1399 14.3001C82.1399 6.41495 75.7247 -0.000244141 67.8398 -0.000244141C59.9547 -0.000244141 53.5395 6.41495 53.5395 14.3001C53.5395 18.0681 55.0591 21.6473 57.622 24.2836C52.7312 25.6153 48.1421 27.9139 44.045 31.1163C43.1337 31.8288 42.9722 33.1454 43.6847 34.0568C44.3975 34.9687 45.7141 35.1296 46.6252 34.4174C52.7332 29.643 60.0692 27.1193 67.8398 27.1193C75.0714 27.1193 81.9002 29.3006 87.7272 33.4359C82.8546 37.9226 79.7963 44.3512 79.7963 51.4814C79.7963 56.7171 81.4458 61.5741 84.2511 65.5624H33.3588V61.6003C33.3588 53.8906 35.8479 46.5995 40.5572 40.5153C41.2652 39.6006 41.0979 38.2848 40.1829 37.5768C39.2685 36.869 37.9524 37.0358 37.2444 37.951C31.9618 44.776 29.1693 52.9538 29.1693 61.6003V67.6516C29.1693 67.6535 29.1691 67.6552 29.1691 67.6569C29.1691 67.6586 29.1693 67.6605 29.1693 67.6622V85.8202C29.1693 85.8222 29.1691 85.8238 29.1691 85.8255C29.1691 85.8272 29.1693 85.8291 29.1693 85.8308V98.5604C29.1693 101.904 27.9097 105.128 25.6228 107.639C23.9836 109.438 22.6949 111.563 21.8503 113.838H19.2126C16.4138 113.838 14.137 116.115 14.137 118.914V125.448C14.137 128.247 16.4138 130.524 19.2126 130.524H29.9447C31.1018 130.524 32.0394 129.586 32.0394 128.429C32.0394 127.272 31.1018 126.334 29.9447 126.334H19.2124C18.7236 126.334 18.3262 125.937 18.3262 125.448V118.914C18.3262 118.425 18.7236 118.028 19.2124 118.028H116.467C116.956 118.028 117.353 118.425 117.353 118.914V125.448C117.353 125.937 116.956 126.334 116.467 126.334H39.0663C37.9091 126.334 36.9715 127.272 36.9715 128.429C36.9715 129.586 37.9091 130.524 39.0663 130.524H49.4939C50.179 132.254 51.1021 133.878 52.2542 135.361C52.6672 135.893 53.285 136.171 53.9098 136.171C54.3589 136.171 54.8114 136.027 55.1935 135.731C56.1071 135.021 56.2724 133.705 55.5627 132.791C55.0058 132.074 54.5165 131.317 54.0964 130.524H81.5863C78.9282 135.561 73.6637 138.81 67.8395 138.81C65.8398 138.81 63.8878 138.432 62.038 137.687C60.9638 137.255 59.7444 137.775 59.312 138.847C58.8797 139.92 59.3994 141.141 60.4722 141.573C62.8222 142.52 65.301 143 67.8395 143C75.9618 143 83.2272 138.021 86.19 130.524H116.467C119.266 130.524 121.543 128.247 121.543 125.448V118.914C121.543 116.115 119.266 113.838 116.467 113.838H113.826C112.981 111.563 111.697 109.439 110.057 107.639C107.77 105.128 106.51 101.904 106.51 98.5607V85.8311C106.51 85.8291 106.511 85.8275 106.511 85.8258C106.511 85.8241 106.51 85.8222 106.51 85.8205V75.9171C119.02 74.8097 128.863 64.2743 128.863 51.4814ZM63.0881 23.2158C59.8212 21.4646 57.729 18.0139 57.729 14.3004C57.729 8.7253 62.2648 4.18951 67.8398 4.18951C73.4149 4.18951 77.9504 8.7253 77.9504 14.3004C77.9504 18.0544 75.8948 21.4574 72.5787 23.2248C71.0112 23.0301 69.4287 22.9296 67.8395 22.9296C66.2375 22.9298 64.6519 23.0262 63.0881 23.2158ZM104.33 31.137C115.548 31.137 124.674 40.2634 124.674 51.4814C124.674 62.6991 115.548 71.8254 104.33 71.8254C93.1118 71.8254 83.9855 62.6991 83.9855 51.4814C83.9855 40.2634 93.1118 31.137 104.33 31.137ZM87.9753 69.7516C91.8508 73.2244 96.8329 75.4851 102.321 75.9322V83.7311H33.3588V69.7516H87.9753ZM106.96 110.461C107.882 111.473 108.66 112.616 109.27 113.839H26.4074C27.0176 112.616 27.7977 111.472 28.7194 110.46C31.7112 107.176 33.3585 102.95 33.3585 98.5607V87.9205H102.321V98.5607C102.321 102.95 103.968 107.176 106.96 110.461Z" fill="#192E45"/>
<path d="M102.023 46.5659L102.309 46.4165V57.9065H101.203C100.046 57.9065 99.1087 58.8444 99.1087 60.0013C99.1087 61.1581 100.046 62.096 101.203 62.096H107.605C108.762 62.096 109.7 61.1581 109.7 60.0013C109.7 58.8444 108.762 57.9065 107.605 57.9065H106.499V42.961C106.499 42.2284 106.116 41.5494 105.49 41.1696C104.863 40.7898 104.085 40.7646 103.435 41.1037L100.085 42.8515C99.0598 43.3867 98.6621 44.6519 99.1972 45.6777C99.7321 46.7033 100.997 47.101 102.023 46.5659Z" fill="#192E45"/>
</g>
<defs>
<clipPath id="clip0_53_948">
<rect width="143" height="143" fill="white"/>
</clipPath>
</defs>
</svg>
