<svg width="150" height="150" viewBox="0 0 150 150" fill="none" xmlns="http://www.w3.org/2000/svg">
<path d="M75 76.9834C77.71 76.9834 80.3591 76.1798 82.6124 74.6742C84.8657 73.1686 86.6219 71.0286 87.659 68.5249C88.6961 66.0212 88.9674 63.2662 88.4387 60.6082C87.91 57.9503 86.605 55.5088 84.6888 53.5926C82.7725 51.6763 80.331 50.3713 77.6731 49.8426C75.0152 49.3139 72.2602 49.5853 69.7564 50.6224C67.2527 51.6594 65.1128 53.4156 63.6072 55.6689C62.1016 57.9222 61.298 60.5714 61.298 63.2814C61.3021 66.9141 62.747 70.3969 65.3157 72.9656C67.8844 75.5344 71.3672 76.9793 75 76.9834ZM75 54.2669C76.7829 54.2669 78.5257 54.7955 80.0082 55.7861C81.4906 56.7766 82.646 58.1845 83.3283 59.8317C84.0106 61.4788 84.1891 63.2914 83.8413 65.04C83.4934 66.7886 82.6349 68.3949 81.3742 69.6556C80.1135 70.9163 78.5073 71.7748 76.7586 72.1227C75.01 72.4705 73.1975 72.292 71.5503 71.6097C69.9031 70.9274 68.4952 69.772 67.5047 68.2896C66.5142 66.8071 65.9855 65.0643 65.9855 63.2814C65.9883 60.8914 66.939 58.6002 68.6289 56.9103C70.3188 55.2204 72.6101 54.2697 75 54.2669Z" fill="#192E45"/>
<path d="M55.5473 50.2064C55.2437 50.6574 55.1064 51.1999 55.1588 51.7411C55.2112 52.2822 55.4501 52.7883 55.8346 53.1727L56.6242 53.9635C56.1467 54.9023 55.7419 55.8764 55.4134 56.8771H54.3057C53.7619 56.877 53.235 57.066 52.8153 57.4118C52.3956 57.7575 52.1093 58.2385 52.0054 58.7723C51.4149 61.7493 51.4149 64.8132 52.0054 67.7902C52.1093 68.324 52.3956 68.805 52.8153 69.1507C53.235 69.4965 53.7619 69.6855 54.3057 69.6854H55.4146C55.7424 70.6862 56.1468 71.6603 56.6242 72.599L55.8346 73.3898C55.4501 73.7742 55.2112 74.2803 55.1588 74.8214C55.1064 75.3626 55.2437 75.9051 55.5473 76.3561C57.2407 78.8746 59.4067 81.0405 61.9251 82.7339C62.3761 83.0375 62.9187 83.1749 63.4598 83.1225C64.001 83.0701 64.507 82.8312 64.8914 82.4467L65.6822 81.657C66.621 82.1342 67.5951 82.5386 68.5959 82.8667V83.9756C68.5957 84.5194 68.7848 85.0463 69.1305 85.4659C69.4763 85.8856 69.9573 86.172 70.491 86.2759C73.468 86.8664 76.532 86.8664 79.509 86.2759C80.0427 86.172 80.5237 85.8856 80.8695 85.4659C81.2152 85.0463 81.4043 84.5194 81.4041 83.9756V82.8667C82.405 82.5388 83.3791 82.1344 84.3178 81.657L85.1086 82.4467C85.493 82.8312 85.999 83.0701 86.5402 83.1225C87.0813 83.1749 87.6239 83.0375 88.0749 82.7339C90.5933 81.0405 92.7593 78.8746 94.4527 76.3561C94.7563 75.9051 94.8936 75.3626 94.8412 74.8214C94.7888 74.2803 94.5499 73.7742 94.1654 73.3898L93.3758 72.599C93.8532 71.6603 94.2576 70.6862 94.5854 69.6854H95.6944C96.2381 69.6855 96.765 69.4965 97.1847 69.1507C97.6044 68.805 97.8907 68.324 97.9946 67.7902C98.5851 64.8132 98.5851 61.7493 97.9946 58.7723C97.8907 58.2385 97.6044 57.7575 97.1847 57.4118C96.765 57.066 96.2381 56.877 95.6944 56.8771H94.5866C94.2579 55.8765 93.8531 54.9024 93.3758 53.9635L94.1654 53.1727C94.5499 52.7883 94.7888 52.2822 94.8412 51.7411C94.8936 51.1999 94.7563 50.6574 94.4527 50.2064C92.7593 47.6879 90.5933 45.5219 88.0749 43.8286C87.6237 43.5255 87.0813 43.3885 86.5403 43.4409C85.9993 43.4933 85.4932 43.7318 85.1086 44.1158L84.3178 44.9055C83.379 44.4282 82.4049 44.0238 81.4041 43.6958V42.5869C81.4043 42.0431 81.2152 41.5162 80.8695 41.0966C80.5237 40.6769 80.0427 40.3905 79.509 40.2866C76.5318 39.6984 73.4682 39.6984 70.491 40.2866C69.9573 40.3905 69.4763 40.6769 69.1305 41.0966C68.7848 41.5162 68.5957 42.0431 68.5959 42.5869V43.6958C67.5951 44.0236 66.6209 44.4281 65.6822 44.9055L64.8914 44.1158C64.5068 43.7318 64.0007 43.4933 63.4597 43.4409C62.9187 43.3885 62.3763 43.5255 61.9251 43.8286C59.4067 45.5219 57.2407 47.6879 55.5473 50.2064ZM59.8263 58.4644C60.1006 57.604 60.4478 56.7686 60.8643 55.9673C61.2504 55.2425 61.4256 54.4239 61.3702 53.6045C61.3148 52.7851 61.0309 51.9976 60.5507 51.3314C61.3036 50.4217 62.1404 49.5849 63.0501 48.832C63.7167 49.312 64.5043 49.5957 65.3239 49.6511C66.1434 49.7065 66.9621 49.5314 67.6872 49.1456C68.488 48.7293 69.3231 48.3824 70.1832 48.1088C70.9661 47.8687 71.6663 47.4148 72.205 46.798C72.7437 46.1813 73.0993 45.4264 73.2319 44.6183C74.4077 44.5016 75.5923 44.5016 76.7681 44.6183C76.9006 45.4262 77.2561 46.181 77.7946 46.7977C78.333 47.4144 79.033 47.8685 79.8157 48.1088C80.6765 48.3824 81.5123 48.7293 82.3139 49.1456C83.0386 49.5322 83.8573 49.7078 84.6768 49.6524C85.4963 49.5969 86.2838 49.3127 86.9499 48.832C87.8595 49.5849 88.6963 50.4217 89.4492 51.3313C88.969 51.9978 88.6851 52.7855 88.6297 53.6051C88.5742 54.4247 88.7495 55.2434 89.1357 55.9685C89.5512 56.7689 89.8981 57.6031 90.1725 58.4622C90.4121 59.2456 90.8659 59.9463 91.4826 60.4855C92.0994 61.0246 92.8546 61.3806 93.6629 61.5132C93.7214 62.107 93.75 62.6977 93.75 63.2812C93.75 63.8648 93.7214 64.4555 93.663 65.0493C92.8551 65.1817 92.1001 65.5371 91.4834 66.0756C90.8667 66.6141 90.4127 67.3142 90.1726 68.0969C89.8989 68.9578 89.5521 69.7936 89.1357 70.5952C88.7496 71.32 88.5744 72.1386 88.6298 72.958C88.6852 73.7774 88.9691 74.5648 89.4493 75.2311C88.6964 76.1408 87.8596 76.9776 86.9499 77.7305C86.2832 77.2507 85.4956 76.9671 84.6761 76.9117C83.8566 76.8563 83.038 77.0313 82.3128 77.4169C81.512 77.8332 80.6769 78.1801 79.8168 78.4537C79.0339 78.6937 78.3337 79.1477 77.795 79.7644C77.2563 80.3812 76.9007 81.1361 76.7681 81.9442C75.5923 82.0609 74.4077 82.0609 73.2319 81.9442C73.0994 81.1363 72.7439 80.3814 72.2054 79.7647C71.667 79.148 70.967 78.694 70.1843 78.4537C69.3235 78.1801 68.4877 77.8332 67.6861 77.4169C66.9613 77.0305 66.1427 76.8551 65.3232 76.9105C64.5038 76.9659 63.7163 77.25 63.0501 77.7305C62.1405 76.9776 61.3037 76.1408 60.5508 75.2312C61.031 74.5647 61.3149 73.777 61.3703 72.9574C61.4258 72.1378 61.2505 71.3191 60.8644 70.594C60.4482 69.7935 60.1014 68.9589 59.8275 68.0992C59.5877 67.3161 59.1338 66.6156 58.5171 66.0767C57.9003 65.5378 57.1453 65.182 56.3371 65.0493C56.2786 64.4555 56.25 63.8648 56.25 63.2812C56.25 62.6977 56.2786 62.107 56.337 61.5131C57.1449 61.3805 57.8997 61.0248 58.5162 60.4861C59.1327 59.9474 59.5865 59.2472 59.8263 58.4644Z" fill="#192E45"/>
<path d="M75 21.0938C76.8542 21.0938 78.6668 20.5439 80.2085 19.5138C81.7502 18.4836 82.9518 17.0195 83.6614 15.3064C84.3709 13.5934 84.5566 11.7084 84.1949 9.88978C83.8331 8.07121 82.9402 6.40075 81.6291 5.08963C80.318 3.77851 78.6475 2.88563 76.829 2.52389C75.0104 2.16216 73.1254 2.34781 71.4123 3.05738C69.6993 3.76696 68.2351 4.96857 67.205 6.51028C66.1748 8.05199 65.625 9.86455 65.625 11.7188C65.6278 14.2043 66.6165 16.5872 68.374 18.3447C70.1316 20.1023 72.5145 21.0909 75 21.0938ZM75 7.03125C75.9271 7.03125 76.8334 7.30617 77.6042 7.82124C78.3751 8.33631 78.9759 9.0684 79.3307 9.92493C79.6855 10.7815 79.7783 11.724 79.5974 12.6332C79.4166 13.5425 78.9701 14.3778 78.3146 15.0333C77.659 15.6889 76.8238 16.1353 75.9145 16.3162C75.0052 16.4971 74.0627 16.4042 73.2062 16.0494C72.3496 15.6947 71.6176 15.0938 71.1025 14.323C70.5874 13.5521 70.3125 12.6459 70.3125 11.7188C70.3137 10.4759 70.808 9.28437 71.6868 8.40556C72.5656 7.52675 73.7572 7.0325 75 7.03125Z" fill="#192E45"/>
<path d="M23.4375 72.1675C25.2917 72.1675 27.1043 71.6177 28.646 70.5875C30.1877 69.5574 31.3893 68.0932 32.0989 66.3801C32.8084 64.6671 32.9941 62.7821 32.6324 60.9635C32.2706 59.1449 31.3777 57.4745 30.0666 56.1634C28.7555 54.8522 27.085 53.9594 25.2665 53.5976C23.4479 53.2359 21.5629 53.4215 19.8498 54.1311C18.1368 54.8407 16.6726 56.0423 15.6425 57.584C14.6123 59.1257 14.0625 60.9383 14.0625 62.7925C14.0653 65.278 15.054 67.6609 16.8115 69.4185C18.569 71.176 20.952 72.1646 23.4375 72.1675ZM23.4375 58.105C24.3646 58.105 25.2709 58.3799 26.0417 58.895C26.8126 59.41 27.4134 60.1421 27.7682 60.9987C28.123 61.8552 28.2158 62.7977 28.0349 63.707C27.8541 64.6163 27.4076 65.4515 26.7521 66.107C26.0965 66.7626 25.2613 67.209 24.352 67.3899C23.4427 67.5708 22.5002 67.478 21.6437 67.1232C20.7871 66.7684 20.0551 66.1676 19.54 65.3967C19.0249 64.6259 18.75 63.7196 18.75 62.7925C18.7512 61.5497 19.2455 60.3581 20.1243 59.4793C21.0031 58.6005 22.1947 58.1062 23.4375 58.105Z" fill="#192E45"/>
<path d="M117.188 62.7925C117.188 64.6467 117.737 66.4592 118.767 68.001C119.798 69.5427 121.262 70.7443 122.975 71.4539C124.688 72.1634 126.573 72.3491 128.391 71.9873C130.21 71.6256 131.881 70.7327 133.192 69.4216C134.503 68.1105 135.396 66.44 135.757 64.6215C136.119 62.8029 135.933 60.9179 135.224 59.2048C134.514 57.4918 133.313 56.0276 131.771 54.9975C130.229 53.9673 128.417 53.4175 126.562 53.4175C124.077 53.4203 121.694 54.409 119.937 56.1665C118.179 57.924 117.19 60.3069 117.188 62.7925ZM131.25 62.7925C131.25 63.7196 130.975 64.6259 130.46 65.3967C129.945 66.1676 129.213 66.7684 128.356 67.1232C127.5 67.478 126.557 67.5708 125.648 67.3899C124.739 67.209 123.903 66.7626 123.248 66.107C122.592 65.4515 122.146 64.6163 121.965 63.707C121.784 62.7977 121.877 61.8552 122.232 60.9987C122.587 60.1421 123.187 59.41 123.958 58.895C124.729 58.3799 125.635 58.105 126.562 58.105C127.805 58.1062 128.997 58.6005 129.876 59.4793C130.754 60.3581 131.249 61.5497 131.25 62.7925Z" fill="#192E45"/>
<path d="M122.366 49.8563L126.877 48.5814C124.453 39.9586 119.912 32.0789 113.665 25.6593C107.419 19.2397 99.6665 14.4841 91.1133 11.8252L89.7148 16.2998C97.5236 18.7271 104.601 23.0686 110.304 28.9294C116.007 34.7902 120.153 41.984 122.366 49.8563Z" fill="#192E45"/>
<path d="M61.575 15.9153L60.3 11.4041C51.4588 13.9392 43.4077 18.6817 36.9041 25.1853C30.4004 31.6889 25.658 39.74 23.1228 48.5813L27.6341 49.8561C29.9485 41.7845 34.2781 34.4343 40.2156 28.4968C46.1531 22.5593 53.5034 18.2297 61.575 15.9153Z" fill="#192E45"/>
<path d="M113.034 94.1196L116.656 97.0974C121.381 91.3712 124.862 84.7238 126.877 77.5784L122.366 76.3035C120.526 82.8258 117.348 88.8933 113.034 94.1196Z" fill="#192E45"/>
<path d="M28.0369 76.3035L23.5256 77.5784C25.6006 84.9387 29.2308 91.7681 34.1709 97.6055L37.7552 94.5843C33.2449 89.2564 29.9308 83.0223 28.0369 76.3035Z" fill="#192E45"/>
<path d="M108.575 117.697C109.519 116.285 110.061 114.644 110.145 112.948C110.228 111.252 109.85 109.566 109.05 108.068C108.249 106.571 107.058 105.319 105.601 104.446C104.145 103.573 102.479 103.112 100.781 103.112C99.0834 103.112 97.4174 103.573 95.9612 104.446C94.5049 105.319 93.3131 106.571 92.5129 108.068C91.7126 109.566 91.3341 111.252 91.4176 112.948C91.5011 114.644 92.0436 116.285 92.9871 117.697C92.2224 117.928 91.4886 118.251 90.802 118.659C90.2657 117.195 89.3728 115.888 88.204 114.856C87.0353 113.825 85.6277 113.101 84.1086 112.75C85.786 110.693 86.7073 108.123 86.7188 105.469C86.7188 102.361 85.4841 99.38 83.2864 97.1823C81.0887 94.9847 78.108 93.75 75 93.75C71.892 93.75 68.9113 94.9847 66.7136 97.1823C64.5159 99.38 63.2812 102.361 63.2812 105.469C63.2927 108.123 64.214 110.693 65.8914 112.75C64.3723 113.101 62.9647 113.825 61.796 114.856C60.6272 115.888 59.7343 117.195 59.198 118.659C58.5114 118.251 57.7776 117.928 57.0129 117.697C57.9564 116.285 58.4989 114.644 58.5824 112.948C58.6659 111.252 58.2874 109.566 57.4871 108.068C56.6869 106.571 55.4951 105.319 54.0388 104.446C52.5826 103.573 50.9166 103.112 49.2188 103.112C47.5209 103.112 45.8549 103.573 44.3987 104.446C42.9424 105.319 41.7506 106.571 40.9504 108.068C40.1501 109.566 39.7716 111.252 39.8551 112.948C39.9386 114.644 40.4811 116.285 41.4246 117.697C39.6782 118.168 38.1282 119.186 37.0006 120.6C35.873 122.015 35.2268 123.752 35.1562 125.56V142.969C35.1562 143.59 35.4032 144.186 35.8427 144.626C36.2823 145.066 36.8784 145.312 37.5 145.312H58.5938C58.5938 145.934 58.8407 146.53 59.2802 146.97C59.7198 147.409 60.3159 147.656 60.9375 147.656H89.0625C89.6841 147.656 90.2802 147.409 90.7198 146.97C91.1593 146.53 91.4062 145.934 91.4062 145.312H112.5C113.122 145.312 113.718 145.066 114.157 144.626C114.597 144.186 114.844 143.59 114.844 142.969V125.56C114.773 123.752 114.127 122.015 112.999 120.6C111.872 119.186 110.322 118.168 108.575 117.697ZM49.2188 107.812C50.1459 107.812 51.0521 108.087 51.823 108.602C52.5938 109.118 53.1947 109.85 53.5494 110.706C53.9042 111.563 53.997 112.505 53.8162 113.414C53.6353 114.324 53.1889 115.159 52.5333 115.815C51.8778 116.47 51.0425 116.917 50.1332 117.097C49.2239 117.278 48.2814 117.185 47.4249 116.831C46.5684 116.476 45.8363 115.875 45.3212 115.104C44.8062 114.333 44.5312 113.427 44.5312 112.5C44.5325 111.257 45.0267 110.066 45.9056 109.187C46.7844 108.308 47.9759 107.814 49.2188 107.812ZM58.5938 140.625H39.8438V125.56C39.993 124.457 40.5658 123.456 41.4408 122.768C42.3158 122.08 43.4242 121.76 44.5312 121.875H53.9062C55.0133 121.76 56.1217 122.08 56.9967 122.768C57.8717 123.456 58.4445 124.457 58.5938 125.56V140.625ZM75 98.4375C75.9665 98.4395 76.922 98.6419 77.8063 99.0318C78.6906 99.4218 79.4845 99.9908 80.1378 100.703C76.7713 99.8061 73.2287 99.8061 69.8622 100.703C70.5155 99.9908 71.3094 99.4218 72.1937 99.0318C73.078 98.6419 74.0335 98.4395 75 98.4375ZM81.9381 106.391C81.7228 108.079 80.8994 109.63 79.6222 110.755C78.3451 111.88 76.7017 112.5 75 112.5C73.2983 112.5 71.6549 111.88 70.3777 110.755C69.1006 109.63 68.2772 108.079 68.0619 106.391C70.2122 105.3 72.5891 104.732 75 104.732C77.4109 104.732 79.7878 105.3 81.9381 106.391ZM77.0555 130.568L75 132.623L72.9445 130.568L75 123.375L77.0555 130.568ZM86.7188 142.969H63.2812V121.875C63.2825 120.632 63.7767 119.441 64.6556 118.562C65.5344 117.683 66.7259 117.189 67.9688 117.188H71.8929L68.0592 130.606C67.9441 131.008 67.9386 131.433 68.0435 131.838C68.1483 132.242 68.3596 132.612 68.6554 132.907L73.3429 137.595C73.5605 137.812 73.8188 137.985 74.1031 138.103C74.3875 138.221 74.6922 138.281 75 138.281C75.3078 138.281 75.6125 138.221 75.8969 138.103C76.1812 137.985 76.4395 137.812 76.6571 137.595L81.3446 132.907C81.6404 132.612 81.8516 132.242 81.9565 131.838C82.0613 131.433 82.0559 131.008 81.9408 130.606L78.1071 117.188H82.0312C83.2741 117.189 84.4656 117.683 85.3444 118.562C86.2232 119.441 86.7175 120.632 86.7188 121.875V142.969ZM100.781 107.812C101.708 107.812 102.615 108.087 103.385 108.602C104.156 109.118 104.757 109.85 105.112 110.706C105.467 111.563 105.56 112.505 105.379 113.414C105.198 114.324 104.751 115.159 104.096 115.815C103.44 116.47 102.605 116.917 101.696 117.097C100.786 117.278 99.844 117.185 98.9874 116.831C98.1309 116.476 97.3988 115.875 96.8837 115.104C96.3687 114.333 96.0938 113.427 96.0938 112.5C96.095 111.257 96.5893 110.066 97.4681 109.187C98.3469 108.308 99.5384 107.814 100.781 107.812ZM110.156 140.625H91.4062V125.56C91.5555 124.457 92.1283 123.456 93.0033 122.768C93.8783 122.08 94.9867 121.76 96.0938 121.875H105.469C106.576 121.76 107.684 122.08 108.559 122.768C109.434 123.456 110.007 124.457 110.156 125.56V140.625Z" fill="#192E45"/>
</svg>
