<svg width="147" height="147" viewBox="0 0 147 147" fill="none" xmlns="http://www.w3.org/2000/svg">
<path d="M131.576 15.2368H53.7802C46.5502 15.2368 40.6672 21.1168 40.6672 28.344V42.5715C40.6672 43.7841 41.6487 44.7655 42.8613 44.7655C44.0738 44.7655 45.0553 43.7841 45.0553 42.5715V28.344C45.0553 23.5361 48.9694 19.6249 53.7802 19.6249H131.576C136.391 19.6249 140.308 23.5361 140.308 28.344V81.8914C140.308 86.6993 136.391 90.6105 131.576 90.6105H102.426C102.39 90.6105 102.355 90.6193 102.318 90.6208C102.281 90.6193 102.248 90.6105 102.21 90.6105H83.1363C81.9252 90.6105 80.9423 91.5934 80.9423 92.8046V115.469H59.9996C58.787 115.469 57.8055 116.452 57.8055 117.663C57.8055 118.874 58.787 119.857 59.9996 119.857H83.1378H102.211H125.368C126.58 119.857 127.563 118.874 127.563 117.663C127.563 116.452 126.58 115.469 125.368 115.469H104.405V94.9986H131.576C138.811 94.9986 144.696 89.1186 144.696 81.8914V28.344C144.696 21.1168 138.811 15.2368 131.576 15.2368ZM85.3318 115.469V94.9986H100.017V115.469H85.3318Z" fill="#192E45"/>
<path d="M47.2185 109.84C55.3891 109.84 63.526 106.482 69.3607 99.9044C80.1831 87.6982 79.0627 68.9656 66.8609 58.1447C54.6563 47.3266 35.9251 48.4485 25.1042 60.6444C14.7761 72.2947 15.3539 89.8747 26.0344 100.862L22.4377 104.921L21.6069 104.186C20.7015 103.384 19.3222 103.466 18.5191 104.364L2.27016 122.509C1.88108 122.943 1.6807 123.514 1.71434 124.094C1.74652 124.675 2.00834 125.222 2.44276 125.608L7.55192 130.173C7.97025 130.548 8.49243 130.732 9.01314 130.732C9.61577 130.732 10.2155 130.485 10.6484 130.001L26.9135 111.827C27.3026 111.392 27.503 110.82 27.4693 110.237C27.4357 109.655 27.1695 109.109 26.7336 108.721L25.7258 107.829L29.3138 103.78C34.616 107.829 40.9231 109.84 47.2185 109.84ZM8.84055 125.441L7.00341 123.8L20.1778 109.092C20.2934 109.457 20.4982 109.801 20.8068 110.073C21.1871 110.409 21.6537 110.57 22.1247 110.6L8.84055 125.441ZM28.3879 63.5566C33.3581 57.9545 40.2854 55.0964 47.2463 55.0964C53.1921 55.0964 59.1614 57.1837 63.9502 61.4269C74.3411 70.6419 75.2962 86.5968 66.0784 96.9922C56.8635 107.382 40.907 108.337 30.5146 99.1189C20.1266 89.9054 19.173 73.9519 28.3879 63.5566Z" fill="#192E45"/>
<path d="M92.844 35.7086C94.29 35.7086 95.4622 34.5364 95.4622 33.0904C95.4622 31.6444 94.29 30.4722 92.844 30.4722C91.398 30.4722 90.2258 31.6444 90.2258 33.0904C90.2258 34.5364 91.398 35.7086 92.844 35.7086Z" fill="#192E45"/>
</svg>
