<svg width="140" height="140" viewBox="0 0 140 140" fill="none" xmlns="http://www.w3.org/2000/svg">
<path d="M110.833 11.6667H98.6294C97.4214 8.27896 94.2142 5.83333 90.4167 5.83333H81.6069C78.8668 2.19889 74.5601 0 70 0C65.4399 0 61.1332 2.19889 58.3932 5.83333H49.5833C45.7858 5.83333 42.5786 8.27896 41.3706 11.6667H29.1667C22.7323 11.6667 17.5 16.899 17.5 23.3333V128.333C17.5 134.768 22.7323 140 29.1667 140H110.833C117.268 140 122.5 134.768 122.5 128.333V23.3333C122.5 16.899 117.268 11.6667 110.833 11.6667ZM46.6667 14.5833C46.6667 12.974 47.974 11.6667 49.5833 11.6667H59.9512C60.988 11.6667 61.9478 11.1141 62.4719 10.2169C64.0698 7.47111 66.884 5.83333 70 5.83333C73.1161 5.83333 75.9302 7.47111 77.5281 10.2169C78.0522 11.1141 79.012 11.6667 80.0488 11.6667H90.4167C92.026 11.6667 93.3333 12.974 93.3333 14.5833V17.5C93.3333 20.7157 90.7157 23.3333 87.5 23.3333H52.5C49.2843 23.3333 46.6667 20.7157 46.6667 17.5V14.5833ZM116.667 128.333C116.667 131.549 114.049 134.167 110.833 134.167H29.1667C25.9509 134.167 23.3333 131.549 23.3333 128.333V23.3333C23.3333 20.1176 25.9509 17.5 29.1667 17.5H40.8333C40.8333 23.9343 46.0657 29.1667 52.5 29.1667H87.5C93.9343 29.1667 99.1667 23.9343 99.1667 17.5H110.833C114.049 17.5 116.667 20.1176 116.667 23.3333V128.333Z" fill="#192E45"/>
<path d="M49.5833 46.6667H37.9167C36.3045 46.6667 35 47.9713 35 49.5834V61.2501C35 62.8622 36.3045 64.1667 37.9167 64.1667H49.5833C51.1955 64.1667 52.5 62.8622 52.5 61.2501V49.5834C52.5 47.9713 51.1955 46.6667 49.5833 46.6667ZM46.6667 58.3334H40.8333V52.5001H46.6667V58.3334Z" fill="#192E45"/>
<path d="M49.5833 75.8333H37.9167C36.3045 75.8333 35 77.1378 35 78.7499V90.4166C35 92.0287 36.3045 93.3333 37.9167 93.3333H49.5833C51.1955 93.3333 52.5 92.0287 52.5 90.4166V78.7499C52.5 77.1378 51.1955 75.8333 49.5833 75.8333ZM46.6667 87.4999H40.8333V81.6666H46.6667V87.4999Z" fill="#192E45"/>
<path d="M49.5833 105H37.9167C36.3045 105 35 106.305 35 107.917V119.583C35 121.195 36.3045 122.5 37.9167 122.5H49.5833C51.1955 122.5 52.5 121.195 52.5 119.583V107.917C52.5 106.305 51.1955 105 49.5833 105ZM46.6667 116.667H40.8333V110.833H46.6667V116.667Z" fill="#192E45"/>
<path d="M69.1455 53.3545C68.0062 52.2152 66.1605 52.2152 65.0212 53.3545L64.1667 54.209L63.3122 53.3545C62.1729 52.2152 60.3272 52.2152 59.1879 53.3545C58.0485 54.4938 58.0485 56.3395 59.1879 57.4788L60.0424 58.3333L59.1879 59.1878C58.0485 60.3271 58.0485 62.1729 59.1879 63.3122C59.7575 63.8818 60.5038 64.1667 61.25 64.1667C61.9963 64.1667 62.7426 63.8818 63.3122 63.3122L64.1667 62.4577L65.0212 63.3122C65.5909 63.8818 66.3371 64.1667 67.0834 64.1667C67.8296 64.1667 68.5759 63.8818 69.1455 63.3122C70.2849 62.1729 70.2849 60.3271 69.1455 59.1878L68.2911 58.3333L69.1455 57.4788C70.2849 56.3395 70.2849 54.4938 69.1455 53.3545Z" fill="#192E45"/>
<path d="M86.6455 53.3545C85.5062 52.2152 83.6605 52.2152 82.5212 53.3545L81.6667 54.209L80.8122 53.3545C79.6729 52.2152 77.8272 52.2152 76.6879 53.3545C75.5485 54.4938 75.5485 56.3395 76.6879 57.4788L77.5424 58.3333L76.6879 59.1878C75.5485 60.3271 75.5485 62.1729 76.6879 63.3122C77.2575 63.8818 78.0038 64.1667 78.75 64.1667C79.4963 64.1667 80.2426 63.8818 80.8122 63.3122L81.6667 62.4577L82.5212 63.3122C83.0909 63.8818 83.8371 64.1667 84.5834 64.1667C85.3296 64.1667 86.0759 63.8818 86.6455 63.3122C87.7849 62.1729 87.7849 60.3271 86.6455 59.1878L85.7911 58.3333L86.6455 57.4788C87.7849 56.3395 87.7849 54.4938 86.6455 53.3545Z" fill="#192E45"/>
<path d="M69.1455 82.5212C68.0062 81.3819 66.1605 81.3819 65.0212 82.5212L64.1667 83.3757L63.3122 82.5212C62.1729 81.3819 60.3272 81.3819 59.1879 82.5212C58.0485 83.6606 58.0485 85.5063 59.1879 86.6456L60.0424 87.5001L59.1879 88.3546C58.0485 89.4939 58.0485 91.3396 59.1879 92.4789C59.7575 93.0486 60.5038 93.3334 61.25 93.3334C61.9963 93.3334 62.7426 93.0486 63.3122 92.4789L64.1667 91.6244L65.0212 92.4789C65.5909 93.0486 66.3371 93.3334 67.0834 93.3334C67.8296 93.3334 68.5759 93.0486 69.1455 92.4789C70.2849 91.3396 70.2849 89.4939 69.1455 88.3546L68.2911 87.5001L69.1455 86.6456C70.2849 85.5063 70.2849 83.6606 69.1455 82.5212Z" fill="#192E45"/>
<path d="M86.6455 82.5212C85.5062 81.3819 83.6605 81.3819 82.5212 82.5212L81.6667 83.3757L80.8122 82.5212C79.6729 81.3819 77.8272 81.3819 76.6879 82.5212C75.5485 83.6606 75.5485 85.5063 76.6879 86.6456L77.5424 87.5001L76.6879 88.3546C75.5485 89.4939 75.5485 91.3396 76.6879 92.4789C77.2575 93.0486 78.0038 93.3334 78.75 93.3334C79.4963 93.3334 80.2426 93.0486 80.8122 92.4789L81.6667 91.6244L82.5212 92.4789C83.0909 93.0486 83.8371 93.3334 84.5834 93.3334C85.3296 93.3334 86.0759 93.0486 86.6455 92.4789C87.7849 91.3396 87.7849 89.4939 86.6455 88.3546L85.7911 87.5001L86.6455 86.6456C87.7849 85.5063 87.7849 83.6606 86.6455 82.5212Z" fill="#192E45"/>
<path d="M69.1455 111.688C68.0062 110.548 66.1605 110.548 65.0212 111.688L64.1667 112.542L63.3122 111.688C62.1729 110.548 60.3272 110.548 59.1879 111.688C58.0485 112.827 58.0485 114.673 59.1879 115.812L60.0424 116.667L59.1879 117.521C58.0485 118.66 58.0485 120.506 59.1879 121.645C59.7575 122.215 60.5038 122.5 61.25 122.5C61.9963 122.5 62.7426 122.215 63.3122 121.645L64.1667 120.791L65.0212 121.645C65.5909 122.215 66.3371 122.5 67.0834 122.5C67.8296 122.5 68.5759 122.215 69.1455 121.645C70.2849 120.506 70.2849 118.66 69.1455 117.521L68.2911 116.667L69.1455 115.812C70.2849 114.673 70.2849 112.827 69.1455 111.688Z" fill="#192E45"/>
<path d="M104.146 53.3545C103.006 52.2152 101.161 52.2152 100.021 53.3545L99.1667 54.209L98.3122 53.3545C97.1729 52.2152 95.3272 52.2152 94.1879 53.3545C93.0485 54.4938 93.0485 56.3395 94.1879 57.4788L95.0424 58.3333L94.1879 59.1878C93.0485 60.3271 93.0485 62.1729 94.1879 63.3122C94.7575 63.8818 95.5038 64.1667 96.25 64.1667C96.9963 64.1667 97.7426 63.8818 98.3122 63.3122L99.1667 62.4577L100.021 63.3122C100.591 63.8818 101.337 64.1667 102.083 64.1667C102.83 64.1667 103.576 63.8818 104.146 63.3122C105.285 62.1729 105.285 60.3271 104.146 59.1878L103.291 58.3333L104.146 57.4788C105.285 56.3395 105.285 54.4938 104.146 53.3545Z" fill="#192E45"/>
</svg>
