<svg width="28" height="28" viewBox="0 0 28 28" fill="none" xmlns="http://www.w3.org/2000/svg">
<g clip-path="url(#clip0_53_685)">
<circle cx="14" cy="14" r="13" fill="#FCB040"/>
<path d="M14.0001 0.56C6.58958 0.56 0.560059 6.58952 0.560059 14C0.560059 17.971 2.2927 21.5443 5.04006 24.0066V24.0162L5.23494 24.1842C5.2691 24.2138 5.30662 24.2385 5.34134 24.2676C5.5827 24.4714 5.83134 24.6669 6.0867 24.8539C6.15558 24.9043 6.22446 24.953 6.29446 25.0018C6.5655 25.1922 6.8427 25.3736 7.12718 25.5438C7.17478 25.5724 7.2235 25.5993 7.2711 25.6267C7.58302 25.8082 7.90166 25.979 8.2287 26.1352C8.23206 26.1369 8.23542 26.138 8.23878 26.1397C8.93822 26.4729 9.67182 26.7456 10.4312 26.955C10.4452 26.959 10.4592 26.9634 10.4732 26.9668C10.8321 27.0648 11.1973 27.1471 11.5674 27.2149C11.6021 27.221 11.6363 27.2272 11.671 27.2334C12.0283 27.2961 12.3901 27.3459 12.7569 27.3801C12.7989 27.384 12.8409 27.3862 12.8823 27.3896C13.2513 27.4204 13.6232 27.44 14.0001 27.44C14.3769 27.44 14.7488 27.4204 15.1178 27.3896C15.1598 27.3862 15.2018 27.384 15.2433 27.3801C15.6101 27.3465 15.9718 27.2961 16.3291 27.2334C16.3638 27.2272 16.398 27.221 16.4327 27.2149C16.8029 27.1471 17.168 27.0648 17.5269 26.9668C17.5409 26.9629 17.5549 26.959 17.5689 26.955C18.3283 26.7456 19.0619 26.4729 19.7613 26.1397C19.7647 26.138 19.7681 26.1369 19.7714 26.1352C20.0985 25.979 20.4171 25.8076 20.729 25.6267C20.7772 25.5987 20.8253 25.5724 20.8729 25.5438C21.158 25.3736 21.4352 25.1916 21.7057 25.0018C21.7751 24.953 21.8445 24.9043 21.9134 24.8539C22.1688 24.6669 22.4174 24.4714 22.6588 24.2676C22.6935 24.2385 22.731 24.2138 22.7652 24.1842L22.9601 24.0162V24.0066C25.7074 21.5438 27.4401 17.971 27.4401 14C27.4401 6.58952 21.4105 0.56 14.0001 0.56ZM14.0001 14C11.5299 14 9.52006 11.9902 9.52006 9.52C9.52006 7.04984 11.5299 5.04 14.0001 5.04C16.4702 5.04 18.4801 7.04984 18.4801 9.52C18.4801 11.9902 16.4702 14 14.0001 14ZM15.6801 15.12C19.0765 15.12 21.8401 17.8836 21.8401 21.28V23.4965C21.8165 23.5161 21.7919 23.534 21.7684 23.5536C21.5472 23.7334 21.3204 23.9042 21.0885 24.0677C21.037 24.1041 20.9866 24.1416 20.9351 24.1769C20.6848 24.3477 20.4277 24.5078 20.1662 24.6596C20.1186 24.6876 20.0705 24.715 20.0223 24.7425C19.7479 24.8965 19.4685 25.041 19.1834 25.1731C19.1537 25.1871 19.1235 25.2006 19.0933 25.214C18.1631 25.6368 17.1831 25.9431 16.1745 26.1246C16.1426 26.1302 16.1107 26.1363 16.0788 26.1419C15.7613 26.1962 15.4409 26.2382 15.1184 26.2679C15.0741 26.2718 15.0293 26.2746 14.9845 26.278C14.6581 26.3032 14.3299 26.32 14.0001 26.32C13.6702 26.32 13.3421 26.3032 13.0156 26.2769C12.9713 26.2735 12.9265 26.2707 12.8817 26.2668C12.5592 26.2371 12.2389 26.1957 11.9213 26.1408C11.8894 26.1352 11.8575 26.1296 11.8256 26.1234C10.817 25.942 9.83702 25.6357 8.90686 25.2129C8.87662 25.1989 8.84638 25.186 8.8167 25.172C8.53166 25.0398 8.25222 24.8954 7.97782 24.7414C7.92966 24.7139 7.88206 24.6865 7.8339 24.6585C7.57238 24.5073 7.31534 24.3466 7.06502 24.1758C7.01294 24.1405 6.96254 24.103 6.91158 24.0666C6.67974 23.903 6.45294 23.7328 6.23174 23.5525C6.20822 23.5334 6.18358 23.515 6.16006 23.4954V21.28C6.16006 17.8836 8.92366 15.12 12.3201 15.12H15.6801ZM22.9601 22.4426V21.28C22.9601 17.7682 20.4602 14.8294 17.1473 14.1484C18.6262 13.1398 19.6001 11.4414 19.6001 9.52C19.6001 6.43216 17.0879 3.92 14.0001 3.92C10.9122 3.92 8.40006 6.43216 8.40006 9.52C8.40006 11.4414 9.3739 13.1398 10.8529 14.1484C7.5399 14.8294 5.04006 17.7682 5.04006 21.28V22.4426C2.9591 20.2356 1.68006 17.2654 1.68006 14C1.68006 7.20664 7.2067 1.68 14.0001 1.68C20.7934 1.68 26.3201 7.20664 26.3201 14C26.3201 17.2654 25.041 20.2356 22.9601 22.4426Z" fill="white"/>
</g>
<defs>
<clipPath id="clip0_53_685">
<rect width="28" height="28" rx="8" fill="white"/>
</clipPath>
</defs>
</svg>
